<svg width="44" height="42" viewBox="0 0 44 42" fill="none" xmlns="http://www.w3.org/2000/svg">
<path d="M10.3542 34.125C13.0417 32.375 16.625 31.5 18.4167 29.75C20.2084 28 14.8334 28 14.8334 19.25C14.8334 10.5 22 10.5 22 10.5C22 10.5 29.1667 10.5 29.1667 19.25C29.1667 28 23.7917 28 25.5834 29.75C27.375 31.5 30.9584 32.375 33.6459 34.125" stroke="#EBEBEB" stroke-width="1.5" stroke-linecap="round"/>
<path fill-rule="evenodd" clip-rule="evenodd" d="M22 38.5C31.8951 38.5 39.9166 30.665 39.9166 21C39.9166 11.335 31.8951 3.5 22 3.5C12.1049 3.5 4.08331 11.335 4.08331 21C4.08331 30.665 12.1049 38.5 22 38.5Z" stroke="#EBEBEB" stroke-width="1.5"/>
</svg>
