<svg width="41" height="40" viewBox="0 0 41 40" fill="none" xmlns="http://www.w3.org/2000/svg">
<path d="M9.91699 32.5C12.417 30.8333 15.7503 30 17.417 28.3333C19.0837 26.6667 14.0837 26.6667 14.0837 18.3333C14.0837 10 20.7503 10 20.7503 10C20.7503 10 27.417 10 27.417 18.3333C27.417 26.6667 22.417 26.6667 24.0837 28.3333C25.7503 30 29.0837 30.8333 31.5837 32.5" stroke="#EBEBEB" stroke-width="1.5" stroke-linecap="round"/>
<path fill-rule="evenodd" clip-rule="evenodd" d="M20.7497 36.6666C29.9544 36.6666 37.4163 29.2047 37.4163 19.9999C37.4163 10.7952 29.9544 3.33325 20.7497 3.33325C11.5449 3.33325 4.08301 10.7952 4.08301 19.9999C4.08301 29.2047 11.5449 36.6666 20.7497 36.6666Z" stroke="#EBEBEB" stroke-width="1.5"/>
</svg>
