<svg width="24" height="24" viewBox="0 0 24 24" fill="none" xmlns="http://www.w3.org/2000/svg">
<path fill-rule="evenodd" clip-rule="evenodd" d="M11.65 20.6144C11.8391 20.8285 12.1609 20.8285 12.35 20.6144C13.6325 19.163 18 13.8631 18 9C18 5.68629 15.3137 3 12 3C8.68629 3 6 5.68629 6 9C6 13.8631 10.3675 19.163 11.65 20.6144Z" stroke="#7B62CB" stroke-width="1.5"/>
<path fill-rule="evenodd" clip-rule="evenodd" d="M12 11C13.1046 11 14 10.1046 14 9C14 7.89543 13.1046 7 12 7C10.8954 7 10 7.89543 10 9C10 10.1046 10.8954 11 12 11Z" stroke="#7B62CB" stroke-width="1.5"/>
</svg>
