<svg width="359" height="353" viewBox="0 0 359 353" fill="none" xmlns="http://www.w3.org/2000/svg">
<rect x="3.25" y="3.30176" width="353" height="347" rx="29.5" fill="white"/>
<path d="M31.75 55.8018L25.75 49.8018L31.75 43.8018" stroke="#2E2885" stroke-width="2" stroke-linecap="round" stroke-linejoin="round"/>
<path d="M134.891 59.8018L129.635 41.292H129.477C129.523 41.7725 129.57 42.4229 129.617 43.2432C129.676 44.0635 129.729 44.9482 129.775 45.8975C129.822 46.8467 129.846 47.7607 129.846 48.6396V59.8018H123.693V34.1025H132.939L138.301 52.3486H138.441L143.697 34.1025H152.961V59.8018H146.58V48.5342C146.58 47.7256 146.592 46.8584 146.615 45.9326C146.65 44.9951 146.686 44.1162 146.721 43.2959C146.768 42.4639 146.809 41.8076 146.844 41.3271H146.686L141.5 59.8018H134.891ZM167.814 39.5342C170.334 39.5342 172.303 40.1611 173.721 41.415C175.139 42.6572 175.848 44.4326 175.848 46.7412V59.8018H171.084L169.766 57.165H169.625C169.062 57.8682 168.482 58.4424 167.885 58.8877C167.299 59.3213 166.625 59.6377 165.863 59.8369C165.102 60.0479 164.17 60.1533 163.068 60.1533C161.92 60.1533 160.889 59.9189 159.975 59.4502C159.061 58.9814 158.34 58.2725 157.812 57.3232C157.285 56.374 157.021 55.1729 157.021 53.7197C157.021 51.5869 157.76 50.0049 159.236 48.9736C160.713 47.9424 162.852 47.3623 165.652 47.2334L168.975 47.1279V46.8467C168.975 45.9561 168.752 45.3232 168.307 44.9482C167.873 44.5732 167.287 44.3857 166.549 44.3857C165.764 44.3857 164.885 44.5264 163.912 44.8076C162.951 45.0771 161.984 45.4287 161.012 45.8623L159.025 41.3271C160.174 40.7412 161.475 40.2959 162.928 39.9912C164.381 39.6865 166.01 39.5342 167.814 39.5342ZM169.01 50.9072L167.428 50.9775C166.162 51.0244 165.271 51.2471 164.756 51.6455C164.252 52.0322 164 52.5889 164 53.3154C164 53.9951 164.182 54.499 164.545 54.8271C164.908 55.1436 165.389 55.3018 165.986 55.3018C166.818 55.3018 167.527 55.0381 168.113 54.5107C168.711 53.9834 169.01 53.2979 169.01 52.4541V50.9072ZM192.547 39.5342C192.922 39.5342 193.314 39.5635 193.725 39.6221C194.135 39.6689 194.439 39.71 194.639 39.7451L194.023 46.2314C193.801 46.1729 193.514 46.126 193.162 46.0908C192.811 46.0439 192.318 46.0205 191.686 46.0205C191.252 46.0205 190.789 46.0615 190.297 46.1436C189.805 46.2256 189.336 46.4014 188.891 46.6709C188.457 46.9287 188.1 47.3271 187.818 47.8662C187.537 48.3936 187.396 49.1084 187.396 50.0107V59.8018H180.523V39.8857H185.639L186.711 43.0674H187.045C187.408 42.4111 187.871 41.8193 188.434 41.292C189.008 40.7529 189.646 40.3252 190.35 40.0088C191.064 39.6924 191.797 39.5342 192.547 39.5342ZM206.504 60.1533C204.488 60.1533 202.736 59.7959 201.248 59.0811C199.76 58.3545 198.605 57.2412 197.785 55.7412C196.977 54.2295 196.572 52.2959 196.572 49.9404C196.572 47.5264 197.023 45.5518 197.926 44.0166C198.84 42.4814 200.088 41.3506 201.67 40.624C203.252 39.8975 205.045 39.5342 207.049 39.5342C208.268 39.5342 209.422 39.6689 210.512 39.9385C211.613 40.208 212.633 40.5771 213.57 41.0459L211.549 46.126C210.729 45.7627 209.961 45.4756 209.246 45.2646C208.543 45.042 207.811 44.9307 207.049 44.9307C206.357 44.9307 205.748 45.1123 205.221 45.4756C204.693 45.8389 204.283 46.3896 203.99 47.1279C203.697 47.8545 203.551 48.7803 203.551 49.9053C203.551 51.0537 203.697 51.9795 203.99 52.6826C204.295 53.3857 204.711 53.8955 205.238 54.2119C205.777 54.5283 206.393 54.6865 207.084 54.6865C208.08 54.6865 209.07 54.5342 210.055 54.2295C211.051 53.9131 211.994 53.4795 212.885 52.9287V58.3955C212.064 58.9346 211.139 59.3623 210.107 59.6787C209.076 59.9951 207.875 60.1533 206.504 60.1533ZM223.713 32.4502V36.335C223.713 37.8115 223.678 39.0537 223.607 40.0615C223.549 41.0576 223.49 41.8193 223.432 42.3467H223.748C224.182 41.6553 224.674 41.1045 225.225 40.6943C225.775 40.2842 226.385 39.9912 227.053 39.8154C227.721 39.6279 228.447 39.5342 229.232 39.5342C230.545 39.5342 231.729 39.7861 232.783 40.29C233.85 40.7939 234.699 41.585 235.332 42.6631C235.965 43.7295 236.281 45.124 236.281 46.8467V59.8018H229.373V48.9385C229.373 47.6143 229.18 46.6182 228.793 45.9502C228.406 45.2705 227.809 44.9307 227 44.9307C226.168 44.9307 225.512 45.1709 225.031 45.6514C224.551 46.1201 224.211 46.8115 224.012 47.7256C223.812 48.6279 223.713 49.7354 223.713 51.0479V59.8018H216.84V32.4502H223.713Z" fill="#350659"/>
<path d="M327.75 55.8018L333.75 49.8018L327.75 43.8018" stroke="#2E2885" stroke-width="2" stroke-linecap="round" stroke-linejoin="round"/>
<path d="M30.6641 105.423C30.6641 105.931 30.541 106.372 30.2949 106.747C30.0488 107.122 29.6895 107.411 29.2168 107.614C28.748 107.817 28.1777 107.919 27.5059 107.919C27.209 107.919 26.918 107.899 26.6328 107.86C26.3516 107.821 26.0801 107.765 25.8184 107.69C25.5605 107.612 25.3145 107.517 25.0801 107.403V105.716C25.4863 105.896 25.9082 106.058 26.3457 106.202C26.7832 106.347 27.2168 106.419 27.6465 106.419C27.9434 106.419 28.1816 106.38 28.3613 106.302C28.5449 106.224 28.6777 106.116 28.7598 105.979C28.8418 105.843 28.8828 105.687 28.8828 105.511C28.8828 105.296 28.8105 105.112 28.666 104.96C28.5215 104.808 28.3223 104.665 28.0684 104.532C27.8184 104.399 27.5352 104.257 27.2188 104.104C27.0195 104.011 26.8027 103.897 26.5684 103.765C26.334 103.628 26.1113 103.462 25.9004 103.267C25.6895 103.071 25.5156 102.835 25.3789 102.558C25.2461 102.276 25.1797 101.94 25.1797 101.55C25.1797 101.038 25.2969 100.601 25.5312 100.237C25.7656 99.874 26.0996 99.5967 26.5332 99.4053C26.9707 99.21 27.4863 99.1123 28.0801 99.1123C28.5254 99.1123 28.9492 99.165 29.3516 99.2705C29.7578 99.3721 30.1816 99.5205 30.623 99.7158L30.0371 101.128C29.6426 100.968 29.2891 100.845 28.9766 100.759C28.6641 100.669 28.3457 100.624 28.0215 100.624C27.7949 100.624 27.6016 100.661 27.4414 100.735C27.2812 100.806 27.1602 100.907 27.0781 101.04C26.9961 101.169 26.9551 101.319 26.9551 101.491C26.9551 101.694 27.0137 101.866 27.1309 102.007C27.252 102.144 27.4316 102.276 27.6699 102.405C27.9121 102.534 28.2129 102.685 28.5723 102.856C29.0098 103.063 29.3828 103.28 29.6914 103.507C30.0039 103.729 30.2441 103.993 30.4121 104.298C30.5801 104.599 30.6641 104.974 30.6641 105.423ZM39.1895 99.2354V104.778C39.1895 105.368 39.0586 105.901 38.7969 106.378C38.5391 106.851 38.1465 107.226 37.6191 107.503C37.0957 107.78 36.4355 107.919 35.6387 107.919C34.5059 107.919 33.6426 107.63 33.0488 107.052C32.4551 106.474 32.1582 105.708 32.1582 104.755V99.2354H33.9688V104.479C33.9688 105.187 34.1133 105.683 34.4023 105.968C34.6914 106.253 35.1191 106.396 35.6855 106.396C36.084 106.396 36.4062 106.327 36.6523 106.19C36.9023 106.054 37.0859 105.843 37.2031 105.558C37.3203 105.272 37.3789 104.909 37.3789 104.468V99.2354H39.1895ZM48.8867 107.802H46.5781L42.8516 101.321H42.7988C42.8145 101.591 42.8281 101.862 42.8398 102.136C42.8516 102.409 42.8633 102.683 42.875 102.956C42.8867 103.226 42.8984 103.497 42.9102 103.771V107.802H41.2871V99.2354H43.5781L47.2988 105.651H47.3398C47.332 105.386 47.3223 105.122 47.3105 104.86C47.2988 104.599 47.2871 104.337 47.2754 104.075C47.2676 103.813 47.2598 103.552 47.252 103.29V99.2354H48.8867V107.802Z" fill="#2E2885"/>
<path d="M71.1387 107.802L69.0762 101.081H69.0234C69.0312 101.241 69.043 101.483 69.0586 101.808C69.0781 102.128 69.0957 102.47 69.1113 102.833C69.127 103.196 69.1348 103.524 69.1348 103.817V107.802H67.5117V99.2354H69.9844L72.0117 105.786H72.0469L74.1973 99.2354H76.6699V107.802H74.9766V103.747C74.9766 103.478 74.9805 103.167 74.9883 102.815C75 102.464 75.0137 102.13 75.0293 101.813C75.0449 101.493 75.0566 101.253 75.0645 101.093H75.0117L72.8027 107.802H71.1387ZM86.6074 103.507C86.6074 104.167 86.5254 104.769 86.3613 105.312C86.1973 105.851 85.9473 106.315 85.6113 106.706C85.2793 107.097 84.8574 107.397 84.3457 107.608C83.834 107.815 83.2285 107.919 82.5293 107.919C81.8301 107.919 81.2246 107.815 80.7129 107.608C80.2012 107.397 79.7773 107.097 79.4414 106.706C79.1094 106.315 78.8613 105.849 78.6973 105.306C78.5332 104.763 78.4512 104.159 78.4512 103.495C78.4512 102.608 78.5957 101.837 78.8848 101.181C79.1777 100.521 79.627 100.009 80.2324 99.6455C80.8379 99.2822 81.6074 99.1006 82.541 99.1006C83.4707 99.1006 84.2344 99.2822 84.832 99.6455C85.4336 100.009 85.8789 100.521 86.168 101.181C86.4609 101.841 86.6074 102.616 86.6074 103.507ZM80.3555 103.507C80.3555 104.104 80.4297 104.62 80.5781 105.054C80.7305 105.483 80.9668 105.815 81.2871 106.05C81.6074 106.28 82.0215 106.396 82.5293 106.396C83.0449 106.396 83.4629 106.28 83.7832 106.05C84.1035 105.815 84.3359 105.483 84.4805 105.054C84.6289 104.62 84.7031 104.104 84.7031 103.507C84.7031 102.608 84.5352 101.901 84.1992 101.386C83.8633 100.87 83.3105 100.612 82.541 100.612C82.0293 100.612 81.6113 100.729 81.2871 100.964C80.9668 101.194 80.7305 101.526 80.5781 101.96C80.4297 102.39 80.3555 102.905 80.3555 103.507ZM95.9824 107.802H93.6738L89.9473 101.321H89.8945C89.9102 101.591 89.9238 101.862 89.9355 102.136C89.9473 102.409 89.959 102.683 89.9707 102.956C89.9824 103.226 89.9941 103.497 90.0059 103.771V107.802H88.3828V99.2354H90.6738L94.3945 105.651H94.4355C94.4277 105.386 94.418 105.122 94.4062 104.86C94.3945 104.599 94.3828 104.337 94.3711 104.075C94.3633 103.813 94.3555 103.552 94.3477 103.29V99.2354H95.9824V107.802Z" fill="#2E2885"/>
<path d="M119.26 107.802H117.443V100.747H115.117V99.2354H121.586V100.747H119.26V107.802ZM129.877 99.2354V104.778C129.877 105.368 129.746 105.901 129.484 106.378C129.227 106.851 128.834 107.226 128.307 107.503C127.783 107.78 127.123 107.919 126.326 107.919C125.193 107.919 124.33 107.63 123.736 107.052C123.143 106.474 122.846 105.708 122.846 104.755V99.2354H124.656V104.479C124.656 105.187 124.801 105.683 125.09 105.968C125.379 106.253 125.807 106.396 126.373 106.396C126.771 106.396 127.094 106.327 127.34 106.19C127.59 106.054 127.773 105.843 127.891 105.558C128.008 105.272 128.066 104.909 128.066 104.468V99.2354H129.877ZM136.908 107.802H131.975V99.2354H136.908V100.724H133.791V102.604H136.691V104.093H133.791V106.302H136.908V107.802Z" fill="#2E2885"/>
<path d="M173.246 99.2354L171.066 107.802H168.998L167.838 103.302C167.814 103.216 167.783 103.085 167.744 102.909C167.705 102.733 167.664 102.542 167.621 102.335C167.578 102.124 167.539 101.927 167.504 101.743C167.473 101.556 167.451 101.407 167.439 101.298C167.428 101.407 167.404 101.554 167.369 101.737C167.338 101.921 167.301 102.116 167.258 102.323C167.219 102.53 167.18 102.724 167.141 102.903C167.102 103.083 167.07 103.22 167.047 103.313L165.893 107.802H163.83L161.645 99.2354H163.432L164.527 103.911C164.559 104.052 164.594 104.22 164.633 104.415C164.676 104.61 164.717 104.815 164.756 105.03C164.799 105.241 164.836 105.446 164.867 105.646C164.902 105.841 164.928 106.011 164.943 106.155C164.963 106.007 164.988 105.835 165.02 105.64C165.051 105.44 165.084 105.239 165.119 105.036C165.158 104.829 165.197 104.638 165.236 104.462C165.275 104.286 165.311 104.144 165.342 104.034L166.59 99.2354H168.307L169.555 104.034C169.582 104.14 169.613 104.282 169.648 104.462C169.688 104.638 169.727 104.829 169.766 105.036C169.805 105.243 169.84 105.446 169.871 105.646C169.906 105.841 169.932 106.011 169.947 106.155C169.975 105.96 170.012 105.724 170.059 105.446C170.109 105.165 170.162 104.886 170.217 104.608C170.275 104.331 170.326 104.099 170.369 103.911L171.459 99.2354H173.246ZM179.258 107.802H174.324V99.2354H179.258V100.724H176.141V102.604H179.041V104.093H176.141V106.302H179.258V107.802ZM188.158 103.437C188.158 104.401 187.973 105.208 187.602 105.856C187.234 106.501 186.701 106.987 186.002 107.315C185.303 107.64 184.461 107.802 183.477 107.802H181.051V99.2354H183.74C184.639 99.2354 185.418 99.3955 186.078 99.7158C186.738 100.032 187.25 100.503 187.613 101.128C187.977 101.749 188.158 102.519 188.158 103.437ZM186.271 103.483C186.271 102.851 186.178 102.331 185.99 101.925C185.807 101.515 185.533 101.212 185.17 101.017C184.811 100.821 184.365 100.724 183.834 100.724H182.867V106.302H183.646C184.533 106.302 185.191 106.065 185.621 105.593C186.055 105.12 186.271 104.417 186.271 103.483Z" fill="#2E2885"/>
<path d="M216.029 107.802H214.213V100.747H211.887V99.2354H218.355V100.747H216.029V107.802ZM226.693 107.802H224.883V104.104H221.49V107.802H219.674V99.2354H221.49V102.593H224.883V99.2354H226.693V107.802ZM235.834 99.2354V104.778C235.834 105.368 235.703 105.901 235.441 106.378C235.184 106.851 234.791 107.226 234.264 107.503C233.74 107.78 233.08 107.919 232.283 107.919C231.15 107.919 230.287 107.63 229.693 107.052C229.1 106.474 228.803 105.708 228.803 104.755V99.2354H230.613V104.479C230.613 105.187 230.758 105.683 231.047 105.968C231.336 106.253 231.764 106.396 232.33 106.396C232.729 106.396 233.051 106.327 233.297 106.19C233.547 106.054 233.73 105.843 233.848 105.558C233.965 105.272 234.023 104.909 234.023 104.468V99.2354H235.834Z" fill="#2E2885"/>
<path d="M266.875 107.802H265.088V99.2354H269.998V100.724H266.875V102.933H269.781V104.415H266.875V107.802ZM274.17 99.2354C274.947 99.2354 275.588 99.3291 276.092 99.5166C276.6 99.7041 276.977 99.9873 277.223 100.366C277.469 100.745 277.592 101.224 277.592 101.802C277.592 102.192 277.518 102.534 277.369 102.827C277.221 103.12 277.025 103.368 276.783 103.571C276.541 103.774 276.279 103.94 275.998 104.069L278.518 107.802H276.502L274.457 104.515H273.49V107.802H271.674V99.2354H274.17ZM274.041 100.724H273.49V103.038H274.076C274.678 103.038 275.107 102.938 275.365 102.739C275.627 102.536 275.758 102.239 275.758 101.849C275.758 101.442 275.617 101.153 275.336 100.981C275.059 100.81 274.627 100.724 274.041 100.724ZM279.596 107.802V99.2354H281.412V107.802H279.596Z" fill="#2E2885"/>
<path d="M317.463 105.423C317.463 105.931 317.34 106.372 317.094 106.747C316.848 107.122 316.488 107.411 316.016 107.614C315.547 107.817 314.977 107.919 314.305 107.919C314.008 107.919 313.717 107.899 313.432 107.86C313.15 107.821 312.879 107.765 312.617 107.69C312.359 107.612 312.113 107.517 311.879 107.403V105.716C312.285 105.896 312.707 106.058 313.145 106.202C313.582 106.347 314.016 106.419 314.445 106.419C314.742 106.419 314.98 106.38 315.16 106.302C315.344 106.224 315.477 106.116 315.559 105.979C315.641 105.843 315.682 105.687 315.682 105.511C315.682 105.296 315.609 105.112 315.465 104.96C315.32 104.808 315.121 104.665 314.867 104.532C314.617 104.399 314.334 104.257 314.018 104.104C313.818 104.011 313.602 103.897 313.367 103.765C313.133 103.628 312.91 103.462 312.699 103.267C312.488 103.071 312.314 102.835 312.178 102.558C312.045 102.276 311.979 101.94 311.979 101.55C311.979 101.038 312.096 100.601 312.33 100.237C312.564 99.874 312.898 99.5967 313.332 99.4053C313.77 99.21 314.285 99.1123 314.879 99.1123C315.324 99.1123 315.748 99.165 316.15 99.2705C316.557 99.3721 316.98 99.5205 317.422 99.7158L316.836 101.128C316.441 100.968 316.088 100.845 315.775 100.759C315.463 100.669 315.145 100.624 314.82 100.624C314.594 100.624 314.4 100.661 314.24 100.735C314.08 100.806 313.959 100.907 313.877 101.04C313.795 101.169 313.754 101.319 313.754 101.491C313.754 101.694 313.812 101.866 313.93 102.007C314.051 102.144 314.23 102.276 314.469 102.405C314.711 102.534 315.012 102.685 315.371 102.856C315.809 103.063 316.182 103.28 316.49 103.507C316.803 103.729 317.043 103.993 317.211 104.298C317.379 104.599 317.463 104.974 317.463 105.423ZM324.26 107.802L323.639 105.763H320.516L319.895 107.802H317.938L320.961 99.2002H323.182L326.217 107.802H324.26ZM323.205 104.239L322.584 102.247C322.545 102.114 322.492 101.944 322.426 101.737C322.363 101.526 322.299 101.313 322.232 101.099C322.17 100.88 322.119 100.69 322.08 100.53C322.041 100.69 321.986 100.89 321.916 101.128C321.85 101.362 321.785 101.585 321.723 101.796C321.66 102.007 321.615 102.157 321.588 102.247L320.973 104.239H323.205ZM330.605 107.802H328.789V100.747H326.463V99.2354H332.932V100.747H330.605V107.802Z" fill="#2E2885"/>
<g clip-path="url(#clip0_174_49839)">
<rect x="16.75" y="117.802" width="46.5714" height="43.8" rx="8" fill="white"/>
<path d="M38.7822 136.949C38.7822 137.523 38.6709 138.021 38.4482 138.443C38.2256 138.865 37.915 139.211 37.5166 139.48C37.1182 139.744 36.6494 139.929 36.1104 140.034V140.104C37.1299 140.233 37.8945 140.562 38.4043 141.089C38.9199 141.616 39.1777 142.308 39.1777 143.163C39.1777 143.907 39.002 144.566 38.6504 145.141C38.3047 145.715 37.7715 146.166 37.0508 146.494C36.3359 146.816 35.4189 146.978 34.2998 146.978C33.6201 146.978 32.9902 146.922 32.4102 146.811C31.8359 146.705 31.2852 146.526 30.7578 146.274V144.903C31.291 145.167 31.8711 145.375 32.498 145.527C33.125 145.674 33.7314 145.747 34.3174 145.747C35.4893 145.747 36.3359 145.516 36.8574 145.053C37.3789 144.584 37.6396 143.945 37.6396 143.137C37.6396 142.58 37.4932 142.132 37.2002 141.792C36.9131 141.446 36.4971 141.194 35.9521 141.036C35.4131 140.872 34.7627 140.79 34.001 140.79H32.7178V139.542H34.0098C34.707 139.542 35.2988 139.439 35.7852 139.234C36.2715 139.029 36.6406 138.742 36.8926 138.373C37.1504 137.998 37.2793 137.556 37.2793 137.046C37.2793 136.396 37.0625 135.895 36.6289 135.543C36.1953 135.186 35.6064 135.007 34.8623 135.007C34.4053 135.007 33.9893 135.054 33.6143 135.147C33.2393 135.241 32.8877 135.37 32.5596 135.534C32.2314 135.698 31.9033 135.889 31.5752 136.105L30.8369 135.104C31.3057 134.74 31.877 134.427 32.5508 134.163C33.2246 133.899 33.9893 133.768 34.8447 133.768C36.1572 133.768 37.1416 134.066 37.7979 134.664C38.4541 135.262 38.7822 136.023 38.7822 136.949ZM49.6279 140.359C49.6279 141.402 49.5488 142.334 49.3906 143.154C49.2324 143.975 48.9834 144.669 48.6436 145.237C48.3037 145.806 47.8643 146.239 47.3252 146.538C46.7861 146.831 46.1387 146.978 45.3828 146.978C44.4277 146.978 43.6367 146.717 43.0098 146.195C42.3887 145.674 41.9229 144.921 41.6123 143.937C41.3076 142.946 41.1553 141.754 41.1553 140.359C41.1553 138.988 41.293 137.811 41.5684 136.826C41.8496 135.836 42.3008 135.077 42.9219 134.55C43.543 134.017 44.3633 133.75 45.3828 133.75C46.3496 133.75 47.1465 134.014 47.7734 134.541C48.4004 135.062 48.8662 135.818 49.1709 136.809C49.4756 137.793 49.6279 138.977 49.6279 140.359ZM42.623 140.359C42.623 141.555 42.7139 142.551 42.8955 143.348C43.0771 144.145 43.3701 144.742 43.7744 145.141C44.1846 145.533 44.7207 145.729 45.3828 145.729C46.0449 145.729 46.5781 145.533 46.9824 145.141C47.3926 144.748 47.6885 144.153 47.8701 143.356C48.0576 142.56 48.1514 141.561 48.1514 140.359C48.1514 139.182 48.0605 138.197 47.8789 137.406C47.6973 136.609 47.4043 136.012 47 135.613C46.5957 135.209 46.0566 135.007 45.3828 135.007C44.709 135.007 44.1699 135.209 43.7656 135.613C43.3613 136.012 43.0684 136.609 42.8867 137.406C42.7109 138.197 42.623 139.182 42.623 140.359Z" fill="#A6B1E1"/>
</g>
<g clip-path="url(#clip1_174_49839)">
<rect x="63.3213" y="117.802" width="46.5714" height="43.8" rx="8" fill="white"/>
<path d="M87.9902 146.802H86.5664V137.696C86.5664 137.351 86.5664 137.055 86.5664 136.809C86.5723 136.557 86.5781 136.328 86.584 136.123C86.5957 135.912 86.6104 135.698 86.6279 135.481C86.4463 135.669 86.2764 135.83 86.1182 135.965C85.96 136.094 85.7637 136.255 85.5293 136.448L84.0615 137.626L83.2969 136.633L86.7773 133.952H87.9902V146.802Z" fill="#2E2885"/>
</g>
<g clip-path="url(#clip2_174_49839)">
<rect x="109.893" y="117.802" width="46.5714" height="43.8" rx="21.9" fill="#5012B5"/>
<path d="M129.298 146.802V145.651L133.619 140.921C134.127 140.367 134.544 139.886 134.872 139.476C135.2 139.063 135.443 138.675 135.601 138.313C135.763 137.947 135.844 137.563 135.844 137.163C135.844 136.702 135.733 136.304 135.512 135.967C135.294 135.631 134.996 135.371 134.617 135.187C134.237 135.004 133.811 134.913 133.338 134.913C132.835 134.913 132.396 135.017 132.021 135.226C131.651 135.43 131.363 135.718 131.159 136.089C130.958 136.459 130.858 136.894 130.858 137.393H129.35C129.35 136.626 129.526 135.952 129.88 135.373C130.234 134.793 130.715 134.342 131.325 134.018C131.938 133.694 132.627 133.532 133.389 133.532C134.156 133.532 134.836 133.694 135.428 134.018C136.021 134.342 136.485 134.778 136.822 135.328C137.159 135.878 137.327 136.489 137.327 137.163C137.327 137.644 137.24 138.115 137.065 138.575C136.894 139.031 136.596 139.54 136.17 140.103C135.748 140.661 135.162 141.343 134.412 142.148L131.472 145.293V145.396H137.557V146.802H129.298Z" fill="#A6B1E1"/>
</g>
<g clip-path="url(#clip3_174_49839)">
<rect x="156.464" y="117.802" width="46.5714" height="43.8" rx="8" fill="white"/>
<path d="M183.646 136.949C183.646 137.523 183.535 138.021 183.312 138.443C183.09 138.865 182.779 139.211 182.381 139.48C181.982 139.744 181.514 139.929 180.975 140.034V140.104C181.994 140.233 182.759 140.562 183.269 141.089C183.784 141.616 184.042 142.308 184.042 143.163C184.042 143.907 183.866 144.566 183.515 145.141C183.169 145.715 182.636 146.166 181.915 146.494C181.2 146.816 180.283 146.978 179.164 146.978C178.484 146.978 177.854 146.922 177.274 146.811C176.7 146.705 176.149 146.526 175.622 146.274V144.903C176.155 145.167 176.735 145.375 177.362 145.527C177.989 145.674 178.596 145.747 179.182 145.747C180.354 145.747 181.2 145.516 181.722 145.053C182.243 144.584 182.504 143.945 182.504 143.137C182.504 142.58 182.357 142.132 182.064 141.792C181.777 141.446 181.361 141.194 180.816 141.036C180.277 140.872 179.627 140.79 178.865 140.79H177.582V139.542H178.874C179.571 139.542 180.163 139.439 180.649 139.234C181.136 139.029 181.505 138.742 181.757 138.373C182.015 137.998 182.144 137.556 182.144 137.046C182.144 136.396 181.927 135.895 181.493 135.543C181.06 135.186 180.471 135.007 179.727 135.007C179.27 135.007 178.854 135.054 178.479 135.147C178.104 135.241 177.752 135.37 177.424 135.534C177.096 135.698 176.768 135.889 176.439 136.105L175.701 135.104C176.17 134.74 176.741 134.427 177.415 134.163C178.089 133.899 178.854 133.768 179.709 133.768C181.021 133.768 182.006 134.066 182.662 134.664C183.318 135.262 183.646 136.023 183.646 136.949Z" fill="#2E2885"/>
</g>
<g clip-path="url(#clip4_174_49839)">
<rect x="203.036" y="117.802" width="46.5714" height="43.8" rx="8" fill="white"/>
<path d="M231.335 143.822H229.41V146.802H227.986V143.822H221.772V142.592L227.89 133.882H229.41V142.504H231.335V143.822ZM227.986 142.504V138.303C227.986 137.98 227.989 137.69 227.995 137.433C228.001 137.169 228.01 136.926 228.021 136.703C228.033 136.475 228.042 136.258 228.048 136.053C228.06 135.848 228.068 135.646 228.074 135.446H228.004C227.893 135.681 227.764 135.93 227.617 136.193C227.477 136.451 227.333 136.683 227.187 136.888L223.223 142.504H227.986Z" fill="#2E2885"/>
</g>
<g clip-path="url(#clip5_174_49839)">
<rect x="249.607" y="117.802" width="46.5714" height="43.8" rx="8" fill="white"/>
<path d="M272.905 138.944C273.778 138.944 274.537 139.094 275.182 139.393C275.826 139.686 276.324 140.113 276.676 140.676C277.033 141.238 277.212 141.921 277.212 142.724C277.212 143.603 277.021 144.361 276.641 145C276.26 145.633 275.712 146.122 274.997 146.468C274.282 146.808 273.427 146.978 272.431 146.978C271.763 146.978 271.142 146.919 270.567 146.802C269.993 146.685 269.51 146.509 269.117 146.274V144.886C269.545 145.144 270.063 145.349 270.673 145.501C271.282 145.653 271.874 145.729 272.448 145.729C273.099 145.729 273.667 145.627 274.153 145.422C274.646 145.211 275.026 144.895 275.296 144.473C275.571 144.045 275.709 143.509 275.709 142.864C275.709 142.009 275.445 141.35 274.918 140.887C274.396 140.418 273.57 140.184 272.439 140.184C272.076 140.184 271.678 140.213 271.244 140.271C270.811 140.33 270.453 140.395 270.172 140.465L269.434 139.981L269.926 133.952H276.315V135.288H271.174L270.849 139.164C271.071 139.117 271.358 139.07 271.71 139.023C272.062 138.971 272.46 138.944 272.905 138.944Z" fill="#2E2885"/>
</g>
<g clip-path="url(#clip6_174_49839)">
<rect x="296.179" y="117.802" width="46.5714" height="43.8" rx="8" fill="white"/>
<path d="M315.548 141.309C315.548 140.535 315.601 139.779 315.706 139.041C315.817 138.303 316.002 137.617 316.26 136.984C316.518 136.346 316.869 135.786 317.314 135.306C317.76 134.825 318.313 134.45 318.976 134.181C319.644 133.905 320.443 133.768 321.375 133.768C321.639 133.768 321.923 133.782 322.228 133.812C322.532 133.835 322.784 133.876 322.983 133.935V135.191C322.767 135.115 322.518 135.06 322.236 135.024C321.961 134.989 321.683 134.972 321.401 134.972C320.312 134.972 319.453 135.209 318.826 135.684C318.205 136.158 317.757 136.803 317.481 137.617C317.206 138.426 317.048 139.337 317.007 140.351H317.104C317.285 140.058 317.517 139.794 317.798 139.56C318.079 139.319 318.419 139.129 318.817 138.988C319.222 138.848 319.69 138.777 320.224 138.777C320.974 138.777 321.627 138.93 322.184 139.234C322.746 139.539 323.18 139.981 323.484 140.562C323.795 141.142 323.95 141.845 323.95 142.671C323.95 143.556 323.786 144.32 323.458 144.965C323.13 145.609 322.661 146.107 322.052 146.459C321.448 146.805 320.728 146.978 319.89 146.978C319.263 146.978 318.686 146.857 318.158 146.617C317.631 146.377 317.171 146.02 316.778 145.545C316.392 145.07 316.09 144.481 315.873 143.778C315.656 143.069 315.548 142.246 315.548 141.309ZM319.872 145.747C320.669 145.747 321.308 145.492 321.788 144.982C322.269 144.473 322.509 143.702 322.509 142.671C322.509 141.827 322.295 141.159 321.867 140.667C321.439 140.175 320.795 139.929 319.934 139.929C319.348 139.929 318.838 140.052 318.404 140.298C317.971 140.538 317.634 140.843 317.394 141.212C317.153 141.581 317.033 141.956 317.033 142.337C317.033 142.724 317.089 143.116 317.2 143.515C317.317 143.913 317.493 144.282 317.728 144.622C317.962 144.962 318.258 145.234 318.615 145.439C318.973 145.645 319.392 145.747 319.872 145.747Z" fill="#2E2885"/>
</g>
<g clip-path="url(#clip7_174_49839)">
<rect x="16.75" y="161.602" width="46.5714" height="43.8" rx="8" fill="white"/>
<path d="M37.6484 190.602L42.9219 179.088H35.917V177.752H44.4863V178.877L39.248 190.602H37.6484Z" fill="#2E2885"/>
</g>
<g clip-path="url(#clip8_174_49839)">
<rect x="63.3213" y="161.602" width="46.5714" height="43.8" rx="8" fill="white"/>
<path d="M86.8037 177.568C87.5479 177.568 88.207 177.685 88.7812 177.919C89.3555 178.154 89.8037 178.499 90.126 178.956C90.4541 179.407 90.6182 179.964 90.6182 180.626C90.6182 181.148 90.5039 181.605 90.2754 181.997C90.0527 182.384 89.751 182.724 89.3701 183.017C88.9893 183.304 88.5674 183.562 88.1045 183.79C88.6553 184.042 89.1504 184.326 89.5898 184.643C90.0352 184.959 90.3867 185.331 90.6445 185.759C90.9023 186.187 91.0312 186.694 91.0312 187.279C91.0312 188 90.8555 188.624 90.5039 189.152C90.1582 189.673 89.6719 190.074 89.0449 190.356C88.418 190.637 87.6826 190.778 86.8389 190.778C85.9307 190.778 85.1572 190.643 84.5186 190.373C83.8857 190.098 83.4023 189.705 83.0684 189.195C82.7402 188.68 82.5762 188.062 82.5762 187.341C82.5762 186.749 82.7021 186.237 82.9541 185.803C83.2061 185.363 83.54 184.986 83.9561 184.669C84.3721 184.353 84.8262 184.086 85.3184 183.869C84.8906 183.635 84.498 183.368 84.1406 183.07C83.7891 182.771 83.5078 182.422 83.2969 182.024C83.0918 181.619 82.9893 181.151 82.9893 180.617C82.9893 179.967 83.1533 179.416 83.4814 178.965C83.8154 178.508 84.2695 178.162 84.8438 177.928C85.4238 177.688 86.0771 177.568 86.8037 177.568ZM84.0088 187.35C84.0088 188.006 84.2402 188.548 84.7031 188.976C85.166 189.398 85.8662 189.609 86.8037 189.609C87.6943 189.609 88.3828 189.398 88.8691 188.976C89.3555 188.548 89.5986 187.988 89.5986 187.297C89.5986 186.869 89.4873 186.494 89.2646 186.172C89.042 185.844 88.7256 185.551 88.3154 185.293C87.9053 185.035 87.4219 184.801 86.8652 184.59L86.5488 184.476C86.0098 184.698 85.5498 184.947 85.1689 185.223C84.7939 185.492 84.5068 185.8 84.3076 186.146C84.1084 186.491 84.0088 186.893 84.0088 187.35ZM86.7861 178.763C86.0947 178.763 85.5293 178.93 85.0898 179.264C84.6504 179.592 84.4307 180.067 84.4307 180.688C84.4307 181.133 84.5361 181.511 84.7471 181.821C84.9639 182.126 85.2568 182.39 85.626 182.612C85.9951 182.829 86.4082 183.031 86.8652 183.219C87.3105 183.031 87.7061 182.826 88.0518 182.604C88.3975 182.375 88.6699 182.106 88.8691 181.795C89.0684 181.485 89.168 181.112 89.168 180.679C89.168 180.058 88.9482 179.583 88.5088 179.255C88.0752 178.927 87.501 178.763 86.7861 178.763Z" fill="#2E2885"/>
</g>
<g clip-path="url(#clip9_174_49839)">
<rect x="109.893" y="161.602" width="46.5714" height="43.8" rx="8" fill="white"/>
<path d="M137.567 183.228C137.567 184.007 137.512 184.766 137.4 185.504C137.295 186.242 137.11 186.931 136.847 187.57C136.589 188.208 136.237 188.768 135.792 189.248C135.347 189.729 134.787 190.107 134.113 190.382C133.445 190.652 132.646 190.786 131.714 190.786C131.462 190.786 131.175 190.769 130.853 190.734C130.53 190.704 130.267 190.66 130.062 190.602V189.336C130.278 189.412 130.533 189.474 130.826 189.521C131.119 189.562 131.406 189.582 131.688 189.582C132.783 189.582 133.645 189.348 134.271 188.879C134.898 188.404 135.35 187.763 135.625 186.954C135.9 186.14 136.056 185.226 136.091 184.212H135.985C135.81 184.493 135.578 184.754 135.291 184.994C135.01 185.229 134.667 185.419 134.263 185.566C133.858 185.706 133.387 185.777 132.848 185.777C132.104 185.777 131.453 185.624 130.896 185.32C130.346 185.015 129.915 184.572 129.604 183.992C129.3 183.412 129.147 182.712 129.147 181.892C129.147 181.007 129.314 180.242 129.648 179.598C129.988 178.947 130.463 178.446 131.072 178.095C131.682 177.743 132.399 177.568 133.226 177.568C133.858 177.568 134.438 177.688 134.966 177.928C135.493 178.168 135.95 178.529 136.337 179.009C136.729 179.484 137.031 180.072 137.242 180.776C137.459 181.479 137.567 182.296 137.567 183.228ZM133.226 178.807C132.446 178.807 131.813 179.062 131.327 179.571C130.847 180.081 130.606 180.849 130.606 181.874C130.606 182.724 130.814 183.395 131.23 183.887C131.646 184.379 132.288 184.625 133.155 184.625C133.753 184.625 134.269 184.505 134.702 184.265C135.142 184.025 135.479 183.72 135.713 183.351C135.953 182.982 136.073 182.604 136.073 182.217C136.073 181.83 136.015 181.438 135.897 181.039C135.786 180.641 135.613 180.275 135.379 179.941C135.145 179.601 134.849 179.328 134.491 179.123C134.134 178.912 133.712 178.807 133.226 178.807Z" fill="#2E2885"/>
</g>
<g clip-path="url(#clip10_174_49839)">
<rect x="156.464" y="161.602" width="46.5714" height="43.8" rx="8" fill="white"/>
<path d="M175.982 190.602H174.559V181.496C174.559 181.151 174.559 180.855 174.559 180.609C174.564 180.357 174.57 180.128 174.576 179.923C174.588 179.712 174.603 179.498 174.62 179.281C174.438 179.469 174.269 179.63 174.11 179.765C173.952 179.894 173.756 180.055 173.521 180.248L172.054 181.426L171.289 180.433L174.77 177.752H175.982V190.602ZM189.342 184.159C189.342 185.202 189.263 186.134 189.104 186.954C188.946 187.775 188.697 188.469 188.357 189.037C188.018 189.606 187.578 190.039 187.039 190.338C186.5 190.631 185.853 190.778 185.097 190.778C184.142 190.778 183.351 190.517 182.724 189.995C182.103 189.474 181.637 188.721 181.326 187.737C181.021 186.746 180.869 185.554 180.869 184.159C180.869 182.788 181.007 181.611 181.282 180.626C181.563 179.636 182.015 178.877 182.636 178.35C183.257 177.817 184.077 177.55 185.097 177.55C186.063 177.55 186.86 177.814 187.487 178.341C188.114 178.862 188.58 179.618 188.885 180.609C189.189 181.593 189.342 182.777 189.342 184.159ZM182.337 184.159C182.337 185.355 182.428 186.351 182.609 187.148C182.791 187.945 183.084 188.542 183.488 188.941C183.898 189.333 184.435 189.529 185.097 189.529C185.759 189.529 186.292 189.333 186.696 188.941C187.106 188.548 187.402 187.953 187.584 187.156C187.771 186.36 187.865 185.361 187.865 184.159C187.865 182.982 187.774 181.997 187.593 181.206C187.411 180.409 187.118 179.812 186.714 179.413C186.31 179.009 185.771 178.807 185.097 178.807C184.423 178.807 183.884 179.009 183.479 179.413C183.075 179.812 182.782 180.409 182.601 181.206C182.425 181.997 182.337 182.982 182.337 184.159Z" fill="#2E2885"/>
</g>
<g clip-path="url(#clip11_174_49839)">
<rect x="203.036" y="161.602" width="46.5714" height="43.8" rx="8" fill="white"/>
<path d="M222.555 190.602H221.131V181.496C221.131 181.151 221.131 180.855 221.131 180.609C221.137 180.357 221.143 180.128 221.148 179.923C221.16 179.712 221.175 179.498 221.192 179.281C221.011 179.469 220.841 179.63 220.683 179.765C220.524 179.894 220.328 180.055 220.094 180.248L218.626 181.426L217.861 180.433L221.342 177.752H222.555V190.602ZM232.855 190.602H231.432V181.496C231.432 181.151 231.432 180.855 231.432 180.609C231.438 180.357 231.443 180.128 231.449 179.923C231.461 179.712 231.476 179.498 231.493 179.281C231.312 179.469 231.142 179.63 230.983 179.765C230.825 179.894 230.629 180.055 230.395 180.248L228.927 181.426L228.162 180.433L231.643 177.752H232.855V190.602Z" fill="#2E2885"/>
</g>
<g clip-path="url(#clip12_174_49839)">
<rect x="249.607" y="161.602" width="46.5714" height="43.8" rx="8" fill="white"/>
<path d="M269.126 190.602H267.702V181.496C267.702 181.151 267.702 180.855 267.702 180.609C267.708 180.357 267.714 180.128 267.72 179.923C267.731 179.712 267.746 179.498 267.764 179.281C267.582 179.469 267.412 179.63 267.254 179.765C267.096 179.894 266.899 180.055 266.665 180.248L265.197 181.426L264.433 180.433L267.913 177.752H269.126V190.602ZM282.415 190.602H273.995V189.38L277.432 185.891C278.07 185.246 278.606 184.672 279.04 184.168C279.479 183.664 279.813 183.169 280.042 182.683C280.271 182.191 280.385 181.652 280.385 181.066C280.385 180.339 280.168 179.785 279.734 179.404C279.307 179.018 278.741 178.824 278.038 178.824C277.423 178.824 276.878 178.93 276.403 179.141C275.929 179.352 275.442 179.651 274.944 180.037L274.162 179.053C274.502 178.766 274.871 178.511 275.27 178.288C275.674 178.066 276.104 177.89 276.562 177.761C277.024 177.632 277.517 177.568 278.038 177.568C278.829 177.568 279.512 177.705 280.086 177.981C280.66 178.256 281.103 178.649 281.413 179.158C281.729 179.668 281.888 180.275 281.888 180.978C281.888 181.657 281.753 182.29 281.483 182.876C281.214 183.456 280.836 184.033 280.35 184.608C279.863 185.176 279.295 185.779 278.645 186.418L275.85 189.204V189.266H282.415V190.602Z" fill="#2E2885"/>
</g>
<g clip-path="url(#clip13_174_49839)">
<rect x="296.179" y="161.602" width="46.5714" height="43.8" rx="8" fill="white"/>
<path d="M315.697 190.602H314.273V181.496C314.273 181.151 314.273 180.855 314.273 180.609C314.279 180.357 314.285 180.128 314.291 179.923C314.303 179.712 314.317 179.498 314.335 179.281C314.153 179.469 313.983 179.63 313.825 179.765C313.667 179.894 313.471 180.055 313.236 180.248L311.769 181.426L311.004 180.433L314.484 177.752H315.697V190.602ZM328.512 180.749C328.512 181.323 328.4 181.821 328.178 182.243C327.955 182.665 327.645 183.011 327.246 183.28C326.848 183.544 326.379 183.729 325.84 183.834V183.904C326.859 184.033 327.624 184.362 328.134 184.889C328.649 185.416 328.907 186.108 328.907 186.963C328.907 187.707 328.731 188.366 328.38 188.941C328.034 189.515 327.501 189.966 326.78 190.294C326.065 190.616 325.148 190.778 324.029 190.778C323.35 190.778 322.72 190.722 322.14 190.611C321.565 190.505 321.015 190.326 320.487 190.074V188.703C321.021 188.967 321.601 189.175 322.228 189.327C322.854 189.474 323.461 189.547 324.047 189.547C325.219 189.547 326.065 189.316 326.587 188.853C327.108 188.384 327.369 187.745 327.369 186.937C327.369 186.38 327.223 185.932 326.93 185.592C326.643 185.246 326.227 184.994 325.682 184.836C325.143 184.672 324.492 184.59 323.73 184.59H322.447V183.342H323.739C324.437 183.342 325.028 183.239 325.515 183.034C326.001 182.829 326.37 182.542 326.622 182.173C326.88 181.798 327.009 181.356 327.009 180.846C327.009 180.195 326.792 179.695 326.358 179.343C325.925 178.986 325.336 178.807 324.592 178.807C324.135 178.807 323.719 178.854 323.344 178.947C322.969 179.041 322.617 179.17 322.289 179.334C321.961 179.498 321.633 179.689 321.305 179.905L320.566 178.904C321.035 178.54 321.606 178.227 322.28 177.963C322.954 177.699 323.719 177.568 324.574 177.568C325.887 177.568 326.871 177.866 327.527 178.464C328.184 179.062 328.512 179.823 328.512 180.749Z" fill="#2E2885"/>
</g>
<g clip-path="url(#clip14_174_49839)">
<rect x="16.75" y="205.402" width="46.5714" height="43.8" rx="8" fill="white"/>
<path d="M36.2686 234.402H34.8447V225.296C34.8447 224.951 34.8447 224.655 34.8447 224.409C34.8506 224.157 34.8564 223.928 34.8623 223.723C34.874 223.512 34.8887 223.298 34.9062 223.081C34.7246 223.269 34.5547 223.43 34.3965 223.565C34.2383 223.694 34.042 223.855 33.8076 224.048L32.3398 225.226L31.5752 224.233L35.0557 221.552H36.2686V234.402ZM50.1992 231.422H48.2744V234.402H46.8506V231.422H40.6367V230.192L46.7539 221.482H48.2744V230.104H50.1992V231.422ZM46.8506 230.104V225.903C46.8506 225.58 46.8535 225.29 46.8594 225.033C46.8652 224.769 46.874 224.526 46.8857 224.303C46.8975 224.075 46.9062 223.858 46.9121 223.653C46.9238 223.448 46.9326 223.245 46.9385 223.046H46.8682C46.7568 223.281 46.6279 223.53 46.4814 223.793C46.3408 224.051 46.1973 224.283 46.0508 224.488L42.0869 230.104H46.8506Z" fill="#2E2885"/>
</g>
<g clip-path="url(#clip15_174_49839)">
<rect x="63.3213" y="205.402" width="46.5714" height="43.8" rx="8" fill="white"/>
<path d="M82.8398 234.402H81.416V225.296C81.416 224.951 81.416 224.655 81.416 224.409C81.4219 224.157 81.4277 223.928 81.4336 223.723C81.4453 223.512 81.46 223.298 81.4775 223.081C81.2959 223.269 81.126 223.43 80.9678 223.565C80.8096 223.694 80.6133 223.855 80.3789 224.048L78.9111 225.226L78.1465 224.233L81.627 221.552H82.8398V234.402ZM91.7695 226.544C92.6426 226.544 93.4014 226.694 94.0459 226.993C94.6904 227.286 95.1885 227.713 95.54 228.276C95.8975 228.838 96.0762 229.521 96.0762 230.324C96.0762 231.203 95.8857 231.961 95.5049 232.6C95.124 233.233 94.5762 233.722 93.8613 234.068C93.1465 234.408 92.291 234.578 91.2949 234.578C90.627 234.578 90.0059 234.519 89.4316 234.402C88.8574 234.285 88.374 234.109 87.9814 233.874V232.486C88.4092 232.744 88.9277 232.949 89.5371 233.101C90.1465 233.253 90.7383 233.329 91.3125 233.329C91.9629 233.329 92.5312 233.227 93.0176 233.022C93.5098 232.811 93.8906 232.495 94.1602 232.073C94.4355 231.645 94.5732 231.109 94.5732 230.464C94.5732 229.609 94.3096 228.95 93.7822 228.487C93.2607 228.018 92.4346 227.784 91.3037 227.784C90.9404 227.784 90.542 227.813 90.1084 227.871C89.6748 227.93 89.3174 227.995 89.0361 228.065L88.2979 227.581L88.79 221.552H95.1797V222.888H90.0381L89.7129 226.764C89.9355 226.717 90.2227 226.67 90.5742 226.623C90.9258 226.571 91.3242 226.544 91.7695 226.544Z" fill="#2E2885"/>
</g>
<g clip-path="url(#clip16_174_49839)">
<rect x="109.893" y="205.402" width="46.5714" height="43.8" rx="8" fill="white"/>
<path d="M129.411 234.402H127.987V225.296C127.987 224.951 127.987 224.655 127.987 224.409C127.993 224.157 127.999 223.928 128.005 223.723C128.017 223.512 128.031 223.298 128.049 223.081C127.867 223.269 127.697 223.43 127.539 223.565C127.381 223.694 127.185 223.855 126.95 224.048L125.482 225.226L124.718 224.233L128.198 221.552H129.411V234.402ZM134.412 228.909C134.412 228.135 134.465 227.379 134.57 226.641C134.682 225.903 134.866 225.217 135.124 224.584C135.382 223.946 135.733 223.386 136.179 222.906C136.624 222.425 137.178 222.05 137.84 221.781C138.508 221.505 139.308 221.368 140.239 221.368C140.503 221.368 140.787 221.382 141.092 221.411C141.396 221.435 141.648 221.476 141.848 221.535V222.791C141.631 222.715 141.382 222.66 141.101 222.624C140.825 222.589 140.547 222.572 140.266 222.572C139.176 222.572 138.317 222.809 137.69 223.284C137.069 223.758 136.621 224.403 136.346 225.217C136.07 226.026 135.912 226.937 135.871 227.951H135.968C136.149 227.658 136.381 227.394 136.662 227.16C136.943 226.919 137.283 226.729 137.682 226.588C138.086 226.448 138.555 226.377 139.088 226.377C139.838 226.377 140.491 226.53 141.048 226.834C141.61 227.139 142.044 227.581 142.349 228.161C142.659 228.742 142.814 229.445 142.814 230.271C142.814 231.156 142.65 231.92 142.322 232.565C141.994 233.209 141.525 233.707 140.916 234.059C140.312 234.405 139.592 234.578 138.754 234.578C138.127 234.578 137.55 234.457 137.022 234.217C136.495 233.977 136.035 233.62 135.643 233.145C135.256 232.67 134.954 232.081 134.737 231.378C134.521 230.669 134.412 229.846 134.412 228.909ZM138.736 233.347C139.533 233.347 140.172 233.092 140.652 232.582C141.133 232.073 141.373 231.302 141.373 230.271C141.373 229.427 141.159 228.759 140.731 228.267C140.304 227.775 139.659 227.529 138.798 227.529C138.212 227.529 137.702 227.652 137.269 227.898C136.835 228.138 136.498 228.443 136.258 228.812C136.018 229.181 135.897 229.556 135.897 229.937C135.897 230.324 135.953 230.716 136.064 231.115C136.182 231.513 136.357 231.882 136.592 232.222C136.826 232.562 137.122 232.834 137.479 233.039C137.837 233.245 138.256 233.347 138.736 233.347Z" fill="#2E2885"/>
</g>
<g clip-path="url(#clip17_174_49839)">
<rect x="156.464" y="205.402" width="46.5714" height="43.8" rx="8" fill="white"/>
<path d="M175.982 234.402H174.559V225.296C174.559 224.951 174.559 224.655 174.559 224.409C174.564 224.157 174.57 223.928 174.576 223.723C174.588 223.512 174.603 223.298 174.62 223.081C174.438 223.269 174.269 223.43 174.11 223.565C173.952 223.694 173.756 223.855 173.521 224.048L172.054 225.226L171.289 224.233L174.77 221.552H175.982V234.402ZM182.513 234.402L187.786 222.888H180.781V221.552H189.351V222.677L184.112 234.402H182.513Z" fill="#2E2885"/>
</g>
<g clip-path="url(#clip18_174_49839)">
<path d="M222.555 234.402H221.131V225.296C221.131 224.951 221.131 224.655 221.131 224.409C221.137 224.157 221.143 223.928 221.148 223.723C221.16 223.512 221.175 223.298 221.192 223.081C221.011 223.269 220.841 223.43 220.683 223.565C220.524 223.694 220.328 223.855 220.094 224.048L218.626 225.226L217.861 224.233L221.342 221.552H222.555V234.402ZM231.669 221.368C232.413 221.368 233.072 221.485 233.646 221.719C234.221 221.953 234.669 222.299 234.991 222.756C235.319 223.207 235.483 223.764 235.483 224.426C235.483 224.948 235.369 225.405 235.141 225.797C234.918 226.184 234.616 226.524 234.235 226.817C233.854 227.104 233.433 227.362 232.97 227.59C233.521 227.842 234.016 228.126 234.455 228.443C234.9 228.759 235.252 229.131 235.51 229.559C235.768 229.987 235.896 230.494 235.896 231.079C235.896 231.8 235.721 232.424 235.369 232.952C235.023 233.473 234.537 233.874 233.91 234.156C233.283 234.437 232.548 234.578 231.704 234.578C230.796 234.578 230.022 234.443 229.384 234.173C228.751 233.898 228.268 233.505 227.934 232.995C227.605 232.48 227.441 231.862 227.441 231.141C227.441 230.549 227.567 230.036 227.819 229.603C228.071 229.163 228.405 228.786 228.821 228.469C229.237 228.153 229.691 227.886 230.184 227.669C229.756 227.435 229.363 227.168 229.006 226.87C228.654 226.571 228.373 226.222 228.162 225.824C227.957 225.419 227.854 224.951 227.854 224.417C227.854 223.767 228.019 223.216 228.347 222.765C228.681 222.308 229.135 221.962 229.709 221.728C230.289 221.488 230.942 221.368 231.669 221.368ZM228.874 231.15C228.874 231.806 229.105 232.348 229.568 232.776C230.031 233.198 230.731 233.409 231.669 233.409C232.56 233.409 233.248 233.198 233.734 232.776C234.221 232.348 234.464 231.788 234.464 231.097C234.464 230.669 234.353 230.294 234.13 229.972C233.907 229.644 233.591 229.351 233.181 229.093C232.771 228.835 232.287 228.601 231.73 228.39L231.414 228.276C230.875 228.498 230.415 228.747 230.034 229.023C229.659 229.292 229.372 229.6 229.173 229.946C228.974 230.291 228.874 230.693 228.874 231.15ZM231.651 222.563C230.96 222.563 230.395 222.73 229.955 223.064C229.516 223.392 229.296 223.867 229.296 224.488C229.296 224.933 229.401 225.311 229.612 225.621C229.829 225.926 230.122 226.19 230.491 226.412C230.86 226.629 231.273 226.831 231.73 227.019C232.176 226.831 232.571 226.626 232.917 226.404C233.263 226.175 233.535 225.906 233.734 225.595C233.934 225.285 234.033 224.912 234.033 224.479C234.033 223.858 233.813 223.383 233.374 223.055C232.94 222.727 232.366 222.563 231.651 222.563Z" fill="#2E2885"/>
</g>
<g clip-path="url(#clip19_174_49839)">
<rect x="249.607" y="205.402" width="46.5714" height="43.8" rx="8" fill="white"/>
<path d="M269.126 234.402H267.702V225.296C267.702 224.951 267.702 224.655 267.702 224.409C267.708 224.157 267.714 223.928 267.72 223.723C267.731 223.512 267.746 223.298 267.764 223.081C267.582 223.269 267.412 223.43 267.254 223.565C267.096 223.694 266.899 223.855 266.665 224.048L265.197 225.226L264.433 224.233L267.913 221.552H269.126V234.402ZM282.433 227.028C282.433 227.807 282.377 228.566 282.266 229.304C282.16 230.042 281.976 230.731 281.712 231.37C281.454 232.008 281.103 232.568 280.657 233.048C280.212 233.529 279.652 233.907 278.979 234.182C278.311 234.452 277.511 234.586 276.579 234.586C276.327 234.586 276.04 234.569 275.718 234.534C275.396 234.504 275.132 234.46 274.927 234.402V233.136C275.144 233.212 275.398 233.274 275.691 233.321C275.984 233.362 276.271 233.382 276.553 233.382C277.648 233.382 278.51 233.148 279.137 232.679C279.764 232.204 280.215 231.563 280.49 230.754C280.766 229.94 280.921 229.026 280.956 228.012H280.851C280.675 228.293 280.443 228.554 280.156 228.794C279.875 229.029 279.532 229.219 279.128 229.366C278.724 229.506 278.252 229.577 277.713 229.577C276.969 229.577 276.318 229.424 275.762 229.12C275.211 228.815 274.78 228.372 274.47 227.792C274.165 227.212 274.013 226.512 274.013 225.692C274.013 224.807 274.18 224.042 274.514 223.398C274.854 222.747 275.328 222.246 275.938 221.895C276.547 221.543 277.265 221.368 278.091 221.368C278.724 221.368 279.304 221.488 279.831 221.728C280.358 221.968 280.815 222.328 281.202 222.809C281.595 223.284 281.896 223.872 282.107 224.576C282.324 225.279 282.433 226.096 282.433 227.028ZM278.091 222.607C277.312 222.607 276.679 222.862 276.192 223.371C275.712 223.881 275.472 224.649 275.472 225.674C275.472 226.524 275.68 227.195 276.096 227.687C276.512 228.179 277.153 228.425 278.021 228.425C278.618 228.425 279.134 228.305 279.567 228.065C280.007 227.825 280.344 227.52 280.578 227.151C280.818 226.782 280.938 226.404 280.938 226.017C280.938 225.63 280.88 225.238 280.763 224.839C280.651 224.441 280.479 224.075 280.244 223.741C280.01 223.401 279.714 223.128 279.356 222.923C278.999 222.712 278.577 222.607 278.091 222.607Z" fill="#2E2885"/>
</g>
<g clip-path="url(#clip20_174_49839)">
<rect x="296.179" y="205.402" width="46.5714" height="43.8" rx="8" fill="white"/>
<path d="M318.686 234.402H310.266V233.18L313.702 229.691C314.341 229.046 314.877 228.472 315.311 227.968C315.75 227.464 316.084 226.969 316.312 226.483C316.541 225.991 316.655 225.452 316.655 224.866C316.655 224.139 316.438 223.585 316.005 223.204C315.577 222.818 315.012 222.624 314.309 222.624C313.693 222.624 313.148 222.73 312.674 222.941C312.199 223.152 311.713 223.451 311.215 223.837L310.433 222.853C310.772 222.566 311.142 222.311 311.54 222.088C311.944 221.866 312.375 221.69 312.832 221.561C313.295 221.432 313.787 221.368 314.309 221.368C315.1 221.368 315.782 221.505 316.356 221.781C316.931 222.056 317.373 222.449 317.684 222.958C318 223.468 318.158 224.075 318.158 224.778C318.158 225.457 318.023 226.09 317.754 226.676C317.484 227.256 317.106 227.833 316.62 228.408C316.134 228.976 315.565 229.579 314.915 230.218L312.12 233.004V233.066H318.686V234.402ZM329.057 227.959C329.057 229.002 328.978 229.934 328.819 230.754C328.661 231.575 328.412 232.269 328.072 232.837C327.732 233.406 327.293 233.839 326.754 234.138C326.215 234.431 325.567 234.578 324.812 234.578C323.856 234.578 323.065 234.317 322.438 233.795C321.817 233.274 321.352 232.521 321.041 231.536C320.736 230.546 320.584 229.354 320.584 227.959C320.584 226.588 320.722 225.411 320.997 224.426C321.278 223.436 321.729 222.677 322.351 222.15C322.972 221.617 323.792 221.35 324.812 221.35C325.778 221.35 326.575 221.614 327.202 222.141C327.829 222.662 328.295 223.418 328.6 224.409C328.904 225.393 329.057 226.577 329.057 227.959ZM322.052 227.959C322.052 229.155 322.143 230.151 322.324 230.948C322.506 231.745 322.799 232.342 323.203 232.741C323.613 233.133 324.149 233.329 324.812 233.329C325.474 233.329 326.007 233.133 326.411 232.741C326.821 232.348 327.117 231.753 327.299 230.956C327.486 230.16 327.58 229.161 327.58 227.959C327.58 226.782 327.489 225.797 327.308 225.006C327.126 224.209 326.833 223.612 326.429 223.213C326.024 222.809 325.485 222.607 324.812 222.607C324.138 222.607 323.599 222.809 323.194 223.213C322.79 223.612 322.497 224.209 322.315 225.006C322.14 225.797 322.052 226.782 322.052 227.959Z" fill="#2E2885"/>
</g>
<g clip-path="url(#clip21_174_49839)">
<rect x="16.75" y="249.202" width="46.5714" height="43.8" rx="8" fill="white"/>
<path d="M39.2568 278.202H30.8369V276.98L34.2734 273.491C34.9121 272.846 35.4482 272.272 35.8818 271.768C36.3213 271.264 36.6553 270.769 36.8838 270.283C37.1123 269.791 37.2266 269.252 37.2266 268.666C37.2266 267.939 37.0098 267.385 36.5762 267.005C36.1484 266.618 35.583 266.424 34.8799 266.424C34.2646 266.424 33.7197 266.53 33.2451 266.741C32.7705 266.952 32.2842 267.251 31.7861 267.637L31.0039 266.653C31.3438 266.366 31.7129 266.111 32.1113 265.888C32.5156 265.666 32.9463 265.49 33.4033 265.361C33.8662 265.232 34.3584 265.168 34.8799 265.168C35.6709 265.168 36.3535 265.305 36.9277 265.581C37.502 265.856 37.9443 266.249 38.2549 266.758C38.5713 267.268 38.7295 267.875 38.7295 268.578C38.7295 269.257 38.5947 269.89 38.3252 270.476C38.0557 271.056 37.6777 271.633 37.1914 272.208C36.7051 272.776 36.1367 273.38 35.4863 274.018L32.6914 276.804V276.866H39.2568V278.202ZM46.5693 278.202H45.1455V269.096C45.1455 268.751 45.1455 268.455 45.1455 268.209C45.1514 267.957 45.1572 267.728 45.1631 267.523C45.1748 267.312 45.1895 267.098 45.207 266.881C45.0254 267.069 44.8555 267.23 44.6973 267.365C44.5391 267.494 44.3428 267.655 44.1084 267.848L42.6406 269.026L41.876 268.033L45.3564 265.352H46.5693V278.202Z" fill="#2E2885"/>
</g>
<g clip-path="url(#clip22_174_49839)">
<rect x="63.3213" y="249.202" width="46.5714" height="43.8" rx="8" fill="white"/>
<path d="M85.8281 278.202H77.4082V276.98L80.8447 273.491C81.4834 272.846 82.0195 272.272 82.4531 271.768C82.8926 271.264 83.2266 270.769 83.4551 270.283C83.6836 269.791 83.7979 269.252 83.7979 268.666C83.7979 267.939 83.5811 267.385 83.1475 267.005C82.7197 266.618 82.1543 266.424 81.4512 266.424C80.8359 266.424 80.291 266.53 79.8164 266.741C79.3418 266.952 78.8555 267.251 78.3574 267.637L77.5752 266.653C77.915 266.366 78.2842 266.111 78.6826 265.888C79.0869 265.666 79.5176 265.49 79.9746 265.361C80.4375 265.232 80.9297 265.168 81.4512 265.168C82.2422 265.168 82.9248 265.305 83.499 265.581C84.0732 265.856 84.5156 266.249 84.8262 266.758C85.1426 267.268 85.3008 267.875 85.3008 268.578C85.3008 269.257 85.166 269.89 84.8965 270.476C84.627 271.056 84.249 271.633 83.7627 272.208C83.2764 272.776 82.708 273.38 82.0576 274.018L79.2627 276.804V276.866H85.8281V278.202ZM96.1289 278.202H87.709V276.98L91.1455 273.491C91.7842 272.846 92.3203 272.272 92.7539 271.768C93.1934 271.264 93.5273 270.769 93.7559 270.283C93.9844 269.791 94.0986 269.252 94.0986 268.666C94.0986 267.939 93.8818 267.385 93.4482 267.005C93.0205 266.618 92.4551 266.424 91.752 266.424C91.1367 266.424 90.5918 266.53 90.1172 266.741C89.6426 266.952 89.1562 267.251 88.6582 267.637L87.876 266.653C88.2158 266.366 88.585 266.111 88.9834 265.888C89.3877 265.666 89.8184 265.49 90.2754 265.361C90.7383 265.232 91.2305 265.168 91.752 265.168C92.543 265.168 93.2256 265.305 93.7998 265.581C94.374 265.856 94.8164 266.249 95.127 266.758C95.4434 267.268 95.6016 267.875 95.6016 268.578C95.6016 269.257 95.4668 269.89 95.1973 270.476C94.9277 271.056 94.5498 271.633 94.0635 272.208C93.5771 272.776 93.0088 273.38 92.3584 274.018L89.5635 276.804V276.866H96.1289V278.202Z" fill="#2E2885"/>
</g>
<g clip-path="url(#clip23_174_49839)">
<rect x="109.893" y="249.202" width="46.5714" height="43.8" rx="8" fill="white"/>
<path d="M132.399 278.202H123.979V276.98L127.416 273.491C128.055 272.846 128.591 272.272 129.024 271.768C129.464 271.264 129.798 270.769 130.026 270.283C130.255 269.791 130.369 269.252 130.369 268.666C130.369 267.939 130.152 267.385 129.719 267.005C129.291 266.618 128.726 266.424 128.022 266.424C127.407 266.424 126.862 266.53 126.388 266.741C125.913 266.952 125.427 267.251 124.929 267.637L124.146 266.653C124.486 266.366 124.855 266.111 125.254 265.888C125.658 265.666 126.089 265.49 126.546 265.361C127.009 265.232 127.501 265.168 128.022 265.168C128.813 265.168 129.496 265.305 130.07 265.581C130.645 265.856 131.087 266.249 131.397 266.758C131.714 267.268 131.872 267.875 131.872 268.578C131.872 269.257 131.737 269.89 131.468 270.476C131.198 271.056 130.82 271.633 130.334 272.208C129.848 272.776 129.279 273.38 128.629 274.018L125.834 276.804V276.866H132.399V278.202ZM142.226 268.349C142.226 268.923 142.114 269.422 141.892 269.843C141.669 270.265 141.358 270.611 140.96 270.88C140.562 271.144 140.093 271.329 139.554 271.434V271.505C140.573 271.633 141.338 271.962 141.848 272.489C142.363 273.016 142.621 273.708 142.621 274.563C142.621 275.307 142.445 275.966 142.094 276.541C141.748 277.115 141.215 277.566 140.494 277.894C139.779 278.216 138.862 278.378 137.743 278.378C137.063 278.378 136.434 278.322 135.854 278.211C135.279 278.105 134.729 277.926 134.201 277.674V276.303C134.734 276.567 135.314 276.775 135.941 276.927C136.568 277.074 137.175 277.147 137.761 277.147C138.933 277.147 139.779 276.916 140.301 276.453C140.822 275.984 141.083 275.345 141.083 274.537C141.083 273.98 140.937 273.532 140.644 273.192C140.356 272.846 139.94 272.594 139.396 272.436C138.856 272.272 138.206 272.19 137.444 272.19H136.161V270.942H137.453C138.15 270.942 138.742 270.839 139.229 270.634C139.715 270.429 140.084 270.142 140.336 269.773C140.594 269.398 140.723 268.956 140.723 268.446C140.723 267.796 140.506 267.295 140.072 266.943C139.639 266.586 139.05 266.407 138.306 266.407C137.849 266.407 137.433 266.454 137.058 266.547C136.683 266.641 136.331 266.77 136.003 266.934C135.675 267.098 135.347 267.289 135.019 267.505L134.28 266.504C134.749 266.14 135.32 265.827 135.994 265.563C136.668 265.299 137.433 265.168 138.288 265.168C139.601 265.168 140.585 265.466 141.241 266.064C141.897 266.662 142.226 267.423 142.226 268.349Z" fill="#2E2885"/>
</g>
<g clip-path="url(#clip24_174_49839)">
<rect x="156.464" y="249.202" width="46.5714" height="43.8" rx="8" fill="white"/>
<path d="M178.971 278.202H170.551V276.98L173.987 273.491C174.626 272.846 175.162 272.272 175.596 271.768C176.035 271.264 176.369 270.769 176.598 270.283C176.826 269.791 176.94 269.252 176.94 268.666C176.94 267.939 176.724 267.385 176.29 267.005C175.862 266.618 175.297 266.424 174.594 266.424C173.979 266.424 173.434 266.53 172.959 266.741C172.484 266.952 171.998 267.251 171.5 267.637L170.718 266.653C171.058 266.366 171.427 266.111 171.825 265.888C172.229 265.666 172.66 265.49 173.117 265.361C173.58 265.232 174.072 265.168 174.594 265.168C175.385 265.168 176.067 265.305 176.642 265.581C177.216 265.856 177.658 266.249 177.969 266.758C178.285 267.268 178.443 267.875 178.443 268.578C178.443 269.257 178.309 269.89 178.039 270.476C177.77 271.056 177.392 271.633 176.905 272.208C176.419 272.776 175.851 273.38 175.2 274.018L172.405 276.804V276.866H178.971V278.202ZM189.913 275.222H187.988V278.202H186.564V275.222H180.351V273.992L186.468 265.282H187.988V273.904H189.913V275.222ZM186.564 273.904V269.703C186.564 269.38 186.567 269.09 186.573 268.833C186.579 268.569 186.588 268.326 186.6 268.103C186.611 267.875 186.62 267.658 186.626 267.453C186.638 267.248 186.646 267.046 186.652 266.846H186.582C186.471 267.081 186.342 267.33 186.195 267.593C186.055 267.851 185.911 268.083 185.765 268.288L181.801 273.904H186.564Z" fill="#2E2885"/>
</g>
<g clip-path="url(#clip25_174_49839)">
<rect x="203.036" y="249.202" width="46.5714" height="43.8" rx="8" fill="white"/>
<path d="M225.543 278.202H217.123V276.98L220.56 273.491C221.198 272.846 221.734 272.272 222.168 271.768C222.607 271.264 222.941 270.769 223.17 270.283C223.398 269.791 223.513 269.252 223.513 268.666C223.513 267.939 223.296 267.385 222.862 267.005C222.435 266.618 221.869 266.424 221.166 266.424C220.551 266.424 220.006 266.53 219.531 266.741C219.057 266.952 218.57 267.251 218.072 267.637L217.29 266.653C217.63 266.366 217.999 266.111 218.397 265.888C218.802 265.666 219.232 265.49 219.689 265.361C220.152 265.232 220.645 265.168 221.166 265.168C221.957 265.168 222.64 265.305 223.214 265.581C223.788 265.856 224.23 266.249 224.541 266.758C224.857 267.268 225.016 267.875 225.016 268.578C225.016 269.257 224.881 269.89 224.611 270.476C224.342 271.056 223.964 271.633 223.478 272.208C222.991 272.776 222.423 273.38 221.772 274.018L218.978 276.804V276.866H225.543V278.202ZM231.484 270.344C232.357 270.344 233.116 270.494 233.761 270.793C234.405 271.086 234.903 271.513 235.255 272.076C235.612 272.638 235.791 273.321 235.791 274.124C235.791 275.003 235.601 275.761 235.22 276.4C234.839 277.033 234.291 277.522 233.576 277.868C232.861 278.208 232.006 278.378 231.01 278.378C230.342 278.378 229.721 278.319 229.146 278.202C228.572 278.085 228.089 277.909 227.696 277.674V276.286C228.124 276.544 228.643 276.749 229.252 276.901C229.861 277.053 230.453 277.13 231.027 277.13C231.678 277.13 232.246 277.027 232.732 276.822C233.225 276.611 233.605 276.295 233.875 275.873C234.15 275.445 234.288 274.909 234.288 274.264C234.288 273.409 234.024 272.75 233.497 272.287C232.976 271.818 232.149 271.584 231.019 271.584C230.655 271.584 230.257 271.613 229.823 271.672C229.39 271.73 229.032 271.795 228.751 271.865L228.013 271.381L228.505 265.352H234.895V266.688H229.753L229.428 270.564C229.65 270.517 229.938 270.47 230.289 270.423C230.641 270.371 231.039 270.344 231.484 270.344Z" fill="#2E2885"/>
</g>
<g clip-path="url(#clip26_174_49839)">
<rect x="249.607" y="249.202" width="46.5714" height="43.8" rx="8" fill="white"/>
<path d="M272.114 278.202H263.694V276.98L267.131 273.491C267.77 272.846 268.306 272.272 268.739 271.768C269.179 271.264 269.513 270.769 269.741 270.283C269.97 269.791 270.084 269.252 270.084 268.666C270.084 267.939 269.867 267.385 269.434 267.005C269.006 266.618 268.44 266.424 267.737 266.424C267.122 266.424 266.577 266.53 266.103 266.741C265.628 266.952 265.142 267.251 264.644 267.637L263.861 266.653C264.201 266.366 264.57 266.111 264.969 265.888C265.373 265.666 265.804 265.49 266.261 265.361C266.724 265.232 267.216 265.168 267.737 265.168C268.528 265.168 269.211 265.305 269.785 265.581C270.359 265.856 270.802 266.249 271.112 266.758C271.429 267.268 271.587 267.875 271.587 268.578C271.587 269.257 271.452 269.89 271.183 270.476C270.913 271.056 270.535 271.633 270.049 272.208C269.562 272.776 268.994 273.38 268.344 274.018L265.549 276.804V276.866H272.114V278.202ZM274.127 272.709C274.127 271.935 274.18 271.179 274.285 270.441C274.396 269.703 274.581 269.017 274.839 268.384C275.097 267.746 275.448 267.186 275.894 266.706C276.339 266.225 276.893 265.85 277.555 265.581C278.223 265.305 279.022 265.168 279.954 265.168C280.218 265.168 280.502 265.182 280.807 265.212C281.111 265.235 281.363 265.276 281.562 265.335V266.591C281.346 266.515 281.097 266.46 280.815 266.424C280.54 266.389 280.262 266.372 279.98 266.372C278.891 266.372 278.032 266.609 277.405 267.084C276.784 267.558 276.336 268.203 276.061 269.017C275.785 269.826 275.627 270.737 275.586 271.751H275.683C275.864 271.458 276.096 271.194 276.377 270.96C276.658 270.719 276.998 270.529 277.396 270.388C277.801 270.248 278.27 270.177 278.803 270.177C279.553 270.177 280.206 270.33 280.763 270.634C281.325 270.939 281.759 271.381 282.063 271.962C282.374 272.542 282.529 273.245 282.529 274.071C282.529 274.956 282.365 275.72 282.037 276.365C281.709 277.009 281.24 277.507 280.631 277.859C280.027 278.205 279.307 278.378 278.469 278.378C277.842 278.378 277.265 278.257 276.737 278.017C276.21 277.777 275.75 277.42 275.357 276.945C274.971 276.47 274.669 275.881 274.452 275.178C274.235 274.469 274.127 273.646 274.127 272.709ZM278.451 277.147C279.248 277.147 279.887 276.892 280.367 276.382C280.848 275.873 281.088 275.102 281.088 274.071C281.088 273.227 280.874 272.559 280.446 272.067C280.019 271.575 279.374 271.329 278.513 271.329C277.927 271.329 277.417 271.452 276.983 271.698C276.55 271.938 276.213 272.243 275.973 272.612C275.732 272.981 275.612 273.356 275.612 273.737C275.612 274.124 275.668 274.516 275.779 274.915C275.896 275.313 276.072 275.682 276.307 276.022C276.541 276.362 276.837 276.634 277.194 276.839C277.552 277.045 277.971 277.147 278.451 277.147Z" fill="#2E2885"/>
</g>
<g clip-path="url(#clip27_174_49839)">
<rect x="296.179" y="249.202" width="46.5714" height="43.8" rx="8" fill="white"/>
<path d="M318.686 278.202H310.266V276.98L313.702 273.491C314.341 272.846 314.877 272.272 315.311 271.768C315.75 271.264 316.084 270.769 316.312 270.283C316.541 269.791 316.655 269.252 316.655 268.666C316.655 267.939 316.438 267.385 316.005 267.005C315.577 266.618 315.012 266.424 314.309 266.424C313.693 266.424 313.148 266.53 312.674 266.741C312.199 266.952 311.713 267.251 311.215 267.637L310.433 266.653C310.772 266.366 311.142 266.111 311.54 265.888C311.944 265.666 312.375 265.49 312.832 265.361C313.295 265.232 313.787 265.168 314.309 265.168C315.1 265.168 315.782 265.305 316.356 265.581C316.931 265.856 317.373 266.249 317.684 266.758C318 267.268 318.158 267.875 318.158 268.578C318.158 269.257 318.023 269.89 317.754 270.476C317.484 271.056 317.106 271.633 316.62 272.208C316.134 272.776 315.565 273.38 314.915 274.018L312.12 276.804V276.866H318.686V278.202ZM322.228 278.202L327.501 266.688H320.496V265.352H329.065V266.477L323.827 278.202H322.228Z" fill="#2E2885"/>
</g>
<g clip-path="url(#clip28_174_49839)">
<rect x="16.75" y="293.002" width="46.5714" height="43.8" rx="8" fill="white"/>
<path d="M39.2568 322.002H30.8369V320.78L34.2734 317.291C34.9121 316.646 35.4482 316.072 35.8818 315.568C36.3213 315.064 36.6553 314.569 36.8838 314.083C37.1123 313.591 37.2266 313.052 37.2266 312.466C37.2266 311.739 37.0098 311.185 36.5762 310.805C36.1484 310.418 35.583 310.224 34.8799 310.224C34.2646 310.224 33.7197 310.33 33.2451 310.541C32.7705 310.752 32.2842 311.051 31.7861 311.437L31.0039 310.453C31.3438 310.166 31.7129 309.911 32.1113 309.688C32.5156 309.466 32.9463 309.29 33.4033 309.161C33.8662 309.032 34.3584 308.968 34.8799 308.968C35.6709 308.968 36.3535 309.105 36.9277 309.381C37.502 309.656 37.9443 310.049 38.2549 310.558C38.5713 311.068 38.7295 311.675 38.7295 312.378C38.7295 313.057 38.5947 313.69 38.3252 314.276C38.0557 314.856 37.6777 315.433 37.1914 316.008C36.7051 316.576 36.1367 317.18 35.4863 317.818L32.6914 320.604V320.666H39.2568V322.002ZM45.3828 308.968C46.127 308.968 46.7861 309.085 47.3604 309.319C47.9346 309.554 48.3828 309.899 48.7051 310.356C49.0332 310.807 49.1973 311.364 49.1973 312.026C49.1973 312.548 49.083 313.005 48.8545 313.397C48.6318 313.784 48.3301 314.124 47.9492 314.417C47.5684 314.704 47.1465 314.962 46.6836 315.19C47.2344 315.442 47.7295 315.726 48.1689 316.043C48.6143 316.359 48.9658 316.731 49.2236 317.159C49.4814 317.587 49.6104 318.094 49.6104 318.68C49.6104 319.4 49.4346 320.024 49.083 320.552C48.7373 321.073 48.251 321.474 47.624 321.756C46.9971 322.037 46.2617 322.178 45.418 322.178C44.5098 322.178 43.7363 322.043 43.0977 321.773C42.4648 321.498 41.9814 321.105 41.6475 320.596C41.3193 320.08 41.1553 319.462 41.1553 318.741C41.1553 318.149 41.2812 317.637 41.5332 317.203C41.7852 316.763 42.1191 316.386 42.5352 316.069C42.9512 315.753 43.4053 315.486 43.8975 315.269C43.4697 315.035 43.0771 314.768 42.7197 314.47C42.3682 314.171 42.0869 313.822 41.876 313.424C41.6709 313.019 41.5684 312.551 41.5684 312.017C41.5684 311.367 41.7324 310.816 42.0605 310.365C42.3945 309.908 42.8486 309.562 43.4229 309.328C44.0029 309.088 44.6562 308.968 45.3828 308.968ZM42.5879 318.75C42.5879 319.406 42.8193 319.948 43.2822 320.376C43.7451 320.798 44.4453 321.009 45.3828 321.009C46.2734 321.009 46.9619 320.798 47.4482 320.376C47.9346 319.948 48.1777 319.388 48.1777 318.697C48.1777 318.269 48.0664 317.894 47.8438 317.572C47.6211 317.244 47.3047 316.951 46.8945 316.693C46.4844 316.435 46.001 316.201 45.4443 315.99L45.1279 315.876C44.5889 316.098 44.1289 316.347 43.748 316.623C43.373 316.892 43.0859 317.2 42.8867 317.546C42.6875 317.891 42.5879 318.293 42.5879 318.75ZM45.3652 310.163C44.6738 310.163 44.1084 310.33 43.6689 310.664C43.2295 310.992 43.0098 311.467 43.0098 312.088C43.0098 312.533 43.1152 312.911 43.3262 313.221C43.543 313.526 43.8359 313.79 44.2051 314.013C44.5742 314.229 44.9873 314.431 45.4443 314.619C45.8896 314.431 46.2852 314.226 46.6309 314.004C46.9766 313.775 47.249 313.506 47.4482 313.195C47.6475 312.885 47.7471 312.513 47.7471 312.079C47.7471 311.458 47.5273 310.983 47.0879 310.655C46.6543 310.327 46.0801 310.163 45.3652 310.163Z" fill="#2E2885"/>
</g>
<g clip-path="url(#clip29_174_49839)">
<rect x="63.3213" y="293.002" width="46.5714" height="43.8" rx="8" fill="white"/>
<path d="M85.8281 322.002H77.4082V320.78L80.8447 317.291C81.4834 316.646 82.0195 316.072 82.4531 315.568C82.8926 315.064 83.2266 314.569 83.4551 314.083C83.6836 313.591 83.7979 313.052 83.7979 312.466C83.7979 311.739 83.5811 311.185 83.1475 310.805C82.7197 310.418 82.1543 310.224 81.4512 310.224C80.8359 310.224 80.291 310.33 79.8164 310.541C79.3418 310.752 78.8555 311.051 78.3574 311.437L77.5752 310.453C77.915 310.166 78.2842 309.911 78.6826 309.688C79.0869 309.466 79.5176 309.29 79.9746 309.161C80.4375 309.032 80.9297 308.968 81.4512 308.968C82.2422 308.968 82.9248 309.105 83.499 309.381C84.0732 309.656 84.5156 310.049 84.8262 310.558C85.1426 311.068 85.3008 311.675 85.3008 312.378C85.3008 313.057 85.166 313.69 84.8965 314.276C84.627 314.856 84.249 315.433 83.7627 316.008C83.2764 316.576 82.708 317.18 82.0576 317.818L79.2627 320.604V320.666H85.8281V322.002ZM96.1465 314.628C96.1465 315.407 96.0908 316.166 95.9795 316.904C95.874 317.642 95.6895 318.331 95.4258 318.97C95.168 319.608 94.8164 320.168 94.3711 320.648C93.9258 321.129 93.3662 321.507 92.6924 321.782C92.0244 322.052 91.2246 322.186 90.293 322.186C90.041 322.186 89.7539 322.169 89.4316 322.134C89.1094 322.104 88.8457 322.06 88.6406 322.002V320.736C88.8574 320.812 89.1123 320.874 89.4053 320.921C89.6982 320.962 89.9854 320.982 90.2666 320.982C91.3623 320.982 92.2236 320.748 92.8506 320.279C93.4775 319.805 93.9287 319.163 94.2041 318.354C94.4795 317.54 94.6348 316.626 94.6699 315.612H94.5645C94.3887 315.893 94.1572 316.154 93.8701 316.394C93.5889 316.629 93.2461 316.819 92.8418 316.966C92.4375 317.106 91.9658 317.177 91.4268 317.177C90.6826 317.177 90.0322 317.024 89.4756 316.72C88.9248 316.415 88.4941 315.972 88.1836 315.392C87.8789 314.812 87.7266 314.112 87.7266 313.292C87.7266 312.407 87.8936 311.642 88.2275 310.998C88.5674 310.347 89.042 309.846 89.6514 309.495C90.2607 309.143 90.9785 308.968 91.8047 308.968C92.4375 308.968 93.0176 309.088 93.5449 309.328C94.0723 309.568 94.5293 309.929 94.916 310.409C95.3086 310.884 95.6104 311.472 95.8213 312.176C96.0381 312.879 96.1465 313.696 96.1465 314.628ZM91.8047 310.207C91.0254 310.207 90.3926 310.462 89.9062 310.971C89.4258 311.481 89.1855 312.249 89.1855 313.274C89.1855 314.124 89.3936 314.795 89.8096 315.287C90.2256 315.779 90.8672 316.025 91.7344 316.025C92.332 316.025 92.8477 315.905 93.2812 315.665C93.7207 315.425 94.0576 315.12 94.292 314.751C94.5322 314.382 94.6523 314.004 94.6523 313.617C94.6523 313.23 94.5938 312.838 94.4766 312.439C94.3652 312.041 94.1924 311.675 93.958 311.341C93.7236 311.001 93.4277 310.728 93.0703 310.523C92.7129 310.312 92.291 310.207 91.8047 310.207Z" fill="#2E2885"/>
</g>
<g clip-path="url(#clip30_174_49839)">
<rect x="109.893" y="293.002" width="46.5714" height="43.8" rx="8" fill="white"/>
<path d="M131.925 312.149C131.925 312.723 131.813 313.221 131.591 313.643C131.368 314.065 131.058 314.411 130.659 314.68C130.261 314.944 129.792 315.129 129.253 315.234V315.305C130.272 315.433 131.037 315.762 131.547 316.289C132.062 316.816 132.32 317.508 132.32 318.363C132.32 319.107 132.145 319.766 131.793 320.341C131.447 320.915 130.914 321.366 130.193 321.694C129.479 322.016 128.562 322.178 127.442 322.178C126.763 322.178 126.133 322.122 125.553 322.011C124.979 321.905 124.428 321.726 123.9 321.474V320.103C124.434 320.367 125.014 320.575 125.641 320.727C126.268 320.874 126.874 320.947 127.46 320.947C128.632 320.947 129.479 320.716 130 320.253C130.521 319.784 130.782 319.145 130.782 318.337C130.782 317.78 130.636 317.332 130.343 316.992C130.056 316.646 129.64 316.394 129.095 316.236C128.556 316.072 127.905 315.99 127.144 315.99H125.86V314.742H127.152C127.85 314.742 128.441 314.639 128.928 314.434C129.414 314.229 129.783 313.942 130.035 313.573C130.293 313.198 130.422 312.756 130.422 312.246C130.422 311.596 130.205 311.095 129.771 310.743C129.338 310.386 128.749 310.207 128.005 310.207C127.548 310.207 127.132 310.254 126.757 310.347C126.382 310.441 126.03 310.57 125.702 310.734C125.374 310.898 125.046 311.089 124.718 311.305L123.979 310.304C124.448 309.94 125.02 309.627 125.693 309.363C126.367 309.099 127.132 308.968 127.987 308.968C129.3 308.968 130.284 309.266 130.94 309.864C131.597 310.462 131.925 311.223 131.925 312.149ZM142.771 315.559C142.771 316.602 142.691 317.534 142.533 318.354C142.375 319.175 142.126 319.869 141.786 320.437C141.446 321.006 141.007 321.439 140.468 321.738C139.929 322.031 139.281 322.178 138.525 322.178C137.57 322.178 136.779 321.917 136.152 321.395C135.531 320.874 135.065 320.121 134.755 319.137C134.45 318.146 134.298 316.954 134.298 315.559C134.298 314.188 134.436 313.011 134.711 312.026C134.992 311.036 135.443 310.277 136.064 309.75C136.686 309.217 137.506 308.95 138.525 308.95C139.492 308.95 140.289 309.214 140.916 309.741C141.543 310.263 142.009 311.018 142.313 312.009C142.618 312.993 142.771 314.177 142.771 315.559ZM135.766 315.559C135.766 316.755 135.856 317.751 136.038 318.548C136.22 319.345 136.513 319.942 136.917 320.341C137.327 320.733 137.863 320.93 138.525 320.93C139.188 320.93 139.721 320.733 140.125 320.341C140.535 319.948 140.831 319.353 141.013 318.556C141.2 317.76 141.294 316.761 141.294 315.559C141.294 314.382 141.203 313.397 141.021 312.606C140.84 311.809 140.547 311.212 140.143 310.813C139.738 310.409 139.199 310.207 138.525 310.207C137.852 310.207 137.312 310.409 136.908 310.813C136.504 311.212 136.211 311.809 136.029 312.606C135.854 313.397 135.766 314.382 135.766 315.559Z" fill="#2E2885"/>
</g>
<g clip-path="url(#clip31_174_49839)">
<rect x="156.464" y="293.002" width="46.5714" height="43.8" rx="8" fill="white"/>
<path d="M178.496 312.149C178.496 312.723 178.385 313.221 178.162 313.643C177.939 314.065 177.629 314.411 177.23 314.68C176.832 314.944 176.363 315.129 175.824 315.234V315.305C176.844 315.433 177.608 315.762 178.118 316.289C178.634 316.816 178.892 317.508 178.892 318.363C178.892 319.107 178.716 319.766 178.364 320.341C178.019 320.915 177.485 321.366 176.765 321.694C176.05 322.016 175.133 322.178 174.014 322.178C173.334 322.178 172.704 322.122 172.124 322.011C171.55 321.905 170.999 321.726 170.472 321.474V320.103C171.005 320.367 171.585 320.575 172.212 320.727C172.839 320.874 173.445 320.947 174.031 320.947C175.203 320.947 176.05 320.716 176.571 320.253C177.093 319.784 177.354 319.145 177.354 318.337C177.354 317.78 177.207 317.332 176.914 316.992C176.627 316.646 176.211 316.394 175.666 316.236C175.127 316.072 174.477 315.99 173.715 315.99H172.432V314.742H173.724C174.421 314.742 175.013 314.639 175.499 314.434C175.985 314.229 176.354 313.942 176.606 313.573C176.864 313.198 176.993 312.756 176.993 312.246C176.993 311.596 176.776 311.095 176.343 310.743C175.909 310.386 175.32 310.207 174.576 310.207C174.119 310.207 173.703 310.254 173.328 310.347C172.953 310.441 172.602 310.57 172.273 310.734C171.945 310.898 171.617 311.089 171.289 311.305L170.551 310.304C171.02 309.94 171.591 309.627 172.265 309.363C172.938 309.099 173.703 308.968 174.559 308.968C175.871 308.968 176.855 309.266 177.512 309.864C178.168 310.462 178.496 311.223 178.496 312.149ZM186.283 322.002H184.859V312.896C184.859 312.551 184.859 312.255 184.859 312.009C184.865 311.757 184.871 311.528 184.877 311.323C184.889 311.112 184.903 310.898 184.921 310.681C184.739 310.869 184.569 311.03 184.411 311.165C184.253 311.294 184.057 311.455 183.822 311.648L182.354 312.826L181.59 311.833L185.07 309.152H186.283V322.002Z" fill="#2E2885"/>
</g>
<g clip-path="url(#clip32_174_49839)">
<rect x="203.036" y="293.002" width="46.5714" height="43.8" rx="8" fill="white"/>
<path d="M227.705 322.002H226.281V312.896C226.281 312.551 226.281 312.255 226.281 312.009C226.287 311.757 226.293 311.528 226.299 311.323C226.311 311.112 226.325 310.898 226.343 310.681C226.161 310.869 225.991 311.03 225.833 311.165C225.675 311.294 225.479 311.455 225.244 311.648L223.776 312.826L223.012 311.833L226.492 309.152H227.705V322.002Z" fill="#A6B1E1"/>
</g>
<g clip-path="url(#clip33_174_49839)">
<rect x="249.607" y="293.002" width="46.5714" height="43.8" rx="8" fill="white"/>
<path d="M277.265 322.002H268.845V320.78L272.281 317.291C272.92 316.646 273.456 316.072 273.89 315.568C274.329 315.064 274.663 314.569 274.892 314.083C275.12 313.591 275.234 313.052 275.234 312.466C275.234 311.739 275.018 311.185 274.584 310.805C274.156 310.418 273.591 310.224 272.888 310.224C272.272 310.224 271.728 310.33 271.253 310.541C270.778 310.752 270.292 311.051 269.794 311.437L269.012 310.453C269.352 310.166 269.721 309.911 270.119 309.688C270.523 309.466 270.954 309.29 271.411 309.161C271.874 309.032 272.366 308.968 272.888 308.968C273.679 308.968 274.361 309.105 274.936 309.381C275.51 309.656 275.952 310.049 276.263 310.558C276.579 311.068 276.737 311.675 276.737 312.378C276.737 313.057 276.603 313.69 276.333 314.276C276.063 314.856 275.686 315.433 275.199 316.008C274.713 316.576 274.145 317.18 273.494 317.818L270.699 320.604V320.666H277.265V322.002Z" fill="#A6B1E1"/>
</g>
<g clip-path="url(#clip34_174_49839)">
<rect x="296.179" y="293.002" width="46.5714" height="43.8" rx="8" fill="white"/>
<path d="M323.361 312.149C323.361 312.723 323.25 313.221 323.027 313.643C322.805 314.065 322.494 314.411 322.096 314.68C321.697 314.944 321.229 315.129 320.689 315.234V315.305C321.709 315.433 322.474 315.762 322.983 316.289C323.499 316.816 323.757 317.508 323.757 318.363C323.757 319.107 323.581 319.766 323.229 320.341C322.884 320.915 322.351 321.366 321.63 321.694C320.915 322.016 319.998 322.178 318.879 322.178C318.199 322.178 317.569 322.122 316.989 322.011C316.415 321.905 315.864 321.726 315.337 321.474V320.103C315.87 320.367 316.45 320.575 317.077 320.727C317.704 320.874 318.311 320.947 318.896 320.947C320.068 320.947 320.915 320.716 321.437 320.253C321.958 319.784 322.219 319.145 322.219 318.337C322.219 317.78 322.072 317.332 321.779 316.992C321.492 316.646 321.076 316.394 320.531 316.236C319.992 316.072 319.342 315.99 318.58 315.99H317.297V314.742H318.589C319.286 314.742 319.878 314.639 320.364 314.434C320.851 314.229 321.22 313.942 321.472 313.573C321.729 313.198 321.858 312.756 321.858 312.246C321.858 311.596 321.642 311.095 321.208 310.743C320.774 310.386 320.186 310.207 319.441 310.207C318.984 310.207 318.568 310.254 318.193 310.347C317.818 310.441 317.467 310.57 317.139 310.734C316.811 310.898 316.482 311.089 316.154 311.305L315.416 310.304C315.885 309.94 316.456 309.627 317.13 309.363C317.804 309.099 318.568 308.968 319.424 308.968C320.736 308.968 321.721 309.266 322.377 309.864C323.033 310.462 323.361 311.223 323.361 312.149Z" fill="#A6B1E1"/>
</g>
<rect x="3.25" y="3.30176" width="353" height="347" rx="29.5" stroke="#5012B5" stroke-width="5"/>
<defs>
<clipPath id="clip0_174_49839">
<rect x="16.75" y="117.802" width="46.5714" height="43.8" rx="8" fill="white"/>
</clipPath>
<clipPath id="clip1_174_49839">
<rect x="63.3213" y="117.802" width="46.5714" height="43.8" rx="8" fill="white"/>
</clipPath>
<clipPath id="clip2_174_49839">
<rect x="109.893" y="117.802" width="46.5714" height="43.8" rx="21.9" fill="white"/>
</clipPath>
<clipPath id="clip3_174_49839">
<rect x="156.464" y="117.802" width="46.5714" height="43.8" rx="8" fill="white"/>
</clipPath>
<clipPath id="clip4_174_49839">
<rect x="203.036" y="117.802" width="46.5714" height="43.8" rx="8" fill="white"/>
</clipPath>
<clipPath id="clip5_174_49839">
<rect x="249.607" y="117.802" width="46.5714" height="43.8" rx="8" fill="white"/>
</clipPath>
<clipPath id="clip6_174_49839">
<rect x="296.179" y="117.802" width="46.5714" height="43.8" rx="8" fill="white"/>
</clipPath>
<clipPath id="clip7_174_49839">
<rect x="16.75" y="161.602" width="46.5714" height="43.8" rx="8" fill="white"/>
</clipPath>
<clipPath id="clip8_174_49839">
<rect x="63.3213" y="161.602" width="46.5714" height="43.8" rx="8" fill="white"/>
</clipPath>
<clipPath id="clip9_174_49839">
<rect x="109.893" y="161.602" width="46.5714" height="43.8" rx="8" fill="white"/>
</clipPath>
<clipPath id="clip10_174_49839">
<rect x="156.464" y="161.602" width="46.5714" height="43.8" rx="8" fill="white"/>
</clipPath>
<clipPath id="clip11_174_49839">
<rect x="203.036" y="161.602" width="46.5714" height="43.8" rx="8" fill="white"/>
</clipPath>
<clipPath id="clip12_174_49839">
<rect x="249.607" y="161.602" width="46.5714" height="43.8" rx="8" fill="white"/>
</clipPath>
<clipPath id="clip13_174_49839">
<rect x="296.179" y="161.602" width="46.5714" height="43.8" rx="8" fill="white"/>
</clipPath>
<clipPath id="clip14_174_49839">
<rect x="16.75" y="205.402" width="46.5714" height="43.8" rx="8" fill="white"/>
</clipPath>
<clipPath id="clip15_174_49839">
<rect x="63.3213" y="205.402" width="46.5714" height="43.8" rx="8" fill="white"/>
</clipPath>
<clipPath id="clip16_174_49839">
<rect x="109.893" y="205.402" width="46.5714" height="43.8" rx="8" fill="white"/>
</clipPath>
<clipPath id="clip17_174_49839">
<rect x="156.464" y="205.402" width="46.5714" height="43.8" rx="8" fill="white"/>
</clipPath>
<clipPath id="clip18_174_49839">
<rect x="203.036" y="205.402" width="46.5714" height="43.8" rx="21.9" fill="white"/>
</clipPath>
<clipPath id="clip19_174_49839">
<rect x="249.607" y="205.402" width="46.5714" height="43.8" rx="8" fill="white"/>
</clipPath>
<clipPath id="clip20_174_49839">
<rect x="296.179" y="205.402" width="46.5714" height="43.8" rx="8" fill="white"/>
</clipPath>
<clipPath id="clip21_174_49839">
<rect x="16.75" y="249.202" width="46.5714" height="43.8" rx="8" fill="white"/>
</clipPath>
<clipPath id="clip22_174_49839">
<rect x="63.3213" y="249.202" width="46.5714" height="43.8" rx="8" fill="white"/>
</clipPath>
<clipPath id="clip23_174_49839">
<rect x="109.893" y="249.202" width="46.5714" height="43.8" rx="8" fill="white"/>
</clipPath>
<clipPath id="clip24_174_49839">
<rect x="156.464" y="249.202" width="46.5714" height="43.8" rx="8" fill="white"/>
</clipPath>
<clipPath id="clip25_174_49839">
<rect x="203.036" y="249.202" width="46.5714" height="43.8" rx="8" fill="white"/>
</clipPath>
<clipPath id="clip26_174_49839">
<rect x="249.607" y="249.202" width="46.5714" height="43.8" rx="8" fill="white"/>
</clipPath>
<clipPath id="clip27_174_49839">
<rect x="296.179" y="249.202" width="46.5714" height="43.8" rx="8" fill="white"/>
</clipPath>
<clipPath id="clip28_174_49839">
<rect x="16.75" y="293.002" width="46.5714" height="43.8" rx="8" fill="white"/>
</clipPath>
<clipPath id="clip29_174_49839">
<rect x="63.3213" y="293.002" width="46.5714" height="43.8" rx="8" fill="white"/>
</clipPath>
<clipPath id="clip30_174_49839">
<rect x="109.893" y="293.002" width="46.5714" height="43.8" rx="8" fill="white"/>
</clipPath>
<clipPath id="clip31_174_49839">
<rect x="156.464" y="293.002" width="46.5714" height="43.8" rx="8" fill="white"/>
</clipPath>
<clipPath id="clip32_174_49839">
<rect x="203.036" y="293.002" width="46.5714" height="43.8" rx="8" fill="white"/>
</clipPath>
<clipPath id="clip33_174_49839">
<rect x="249.607" y="293.002" width="46.5714" height="43.8" rx="8" fill="white"/>
</clipPath>
<clipPath id="clip34_174_49839">
<rect x="296.179" y="293.002" width="46.5714" height="43.8" rx="8" fill="white"/>
</clipPath>
</defs>
</svg>
