<svg width="586" height="589" viewBox="0 0 586 589" fill="none" xmlns="http://www.w3.org/2000/svg">
<rect x="3.25" y="3.05737" width="580" height="583" rx="29.5" fill="white"/>
<path d="M31.75 55.5574L25.75 49.5574L31.75 43.5574" stroke="#2E2885" stroke-width="2" stroke-linecap="round" stroke-linejoin="round"/>
<path d="M248.391 59.5574L243.135 41.0476H242.977C243.023 41.5281 243.07 42.1785 243.117 42.9988C243.176 43.8191 243.229 44.7039 243.275 45.6531C243.322 46.6023 243.346 47.5164 243.346 48.3953V59.5574H237.193V33.8582H246.439L251.801 52.1042H251.941L257.197 33.8582H266.461V59.5574H260.08V48.2898C260.08 47.4812 260.092 46.614 260.115 45.6882C260.15 44.7507 260.186 43.8718 260.221 43.0515C260.268 42.2195 260.309 41.5632 260.344 41.0828H260.186L255 59.5574H248.391ZM281.314 39.2898C283.834 39.2898 285.803 39.9167 287.221 41.1707C288.639 42.4128 289.348 44.1882 289.348 46.4968V59.5574H284.584L283.266 56.9207H283.125C282.562 57.6238 281.982 58.198 281.385 58.6433C280.799 59.0769 280.125 59.3933 279.363 59.5925C278.602 59.8035 277.67 59.9089 276.568 59.9089C275.42 59.9089 274.389 59.6746 273.475 59.2058C272.561 58.7371 271.84 58.0281 271.312 57.0789C270.785 56.1296 270.521 54.9285 270.521 53.4753C270.521 51.3425 271.26 49.7605 272.736 48.7292C274.213 47.698 276.352 47.1179 279.152 46.989L282.475 46.8835V46.6023C282.475 45.7117 282.252 45.0789 281.807 44.7039C281.373 44.3289 280.787 44.1414 280.049 44.1414C279.264 44.1414 278.385 44.282 277.412 44.5632C276.451 44.8328 275.484 45.1843 274.512 45.6179L272.525 41.0828C273.674 40.4968 274.975 40.0515 276.428 39.7468C277.881 39.4421 279.51 39.2898 281.314 39.2898ZM282.51 50.6628L280.928 50.7332C279.662 50.78 278.771 51.0027 278.256 51.4011C277.752 51.7878 277.5 52.3445 277.5 53.071C277.5 53.7507 277.682 54.2546 278.045 54.5828C278.408 54.8992 278.889 55.0574 279.486 55.0574C280.318 55.0574 281.027 54.7937 281.613 54.2664C282.211 53.739 282.51 53.0535 282.51 52.2097V50.6628ZM306.047 39.2898C306.422 39.2898 306.814 39.3191 307.225 39.3777C307.635 39.4246 307.939 39.4656 308.139 39.5007L307.523 45.9871C307.301 45.9285 307.014 45.8816 306.662 45.8464C306.311 45.7996 305.818 45.7761 305.186 45.7761C304.752 45.7761 304.289 45.8171 303.797 45.8992C303.305 45.9812 302.836 46.157 302.391 46.4265C301.957 46.6843 301.6 47.0828 301.318 47.6218C301.037 48.1492 300.896 48.864 300.896 49.7664V59.5574H294.023V39.6414H299.139L300.211 42.823H300.545C300.908 42.1667 301.371 41.575 301.934 41.0476C302.508 40.5085 303.146 40.0808 303.85 39.7644C304.564 39.448 305.297 39.2898 306.047 39.2898ZM320.004 59.9089C317.988 59.9089 316.236 59.5515 314.748 58.8367C313.26 58.1101 312.105 56.9968 311.285 55.4968C310.477 53.9851 310.072 52.0515 310.072 49.696C310.072 47.282 310.523 45.3074 311.426 43.7722C312.34 42.2371 313.588 41.1062 315.17 40.3796C316.752 39.6531 318.545 39.2898 320.549 39.2898C321.768 39.2898 322.922 39.4246 324.012 39.6941C325.113 39.9636 326.133 40.3328 327.07 40.8015L325.049 45.8816C324.229 45.5183 323.461 45.2312 322.746 45.0203C322.043 44.7976 321.311 44.6863 320.549 44.6863C319.857 44.6863 319.248 44.8679 318.721 45.2312C318.193 45.5945 317.783 46.1453 317.49 46.8835C317.197 47.6101 317.051 48.5359 317.051 49.6609C317.051 50.8093 317.197 51.7351 317.49 52.4382C317.795 53.1414 318.211 53.6511 318.738 53.9675C319.277 54.2839 319.893 54.4421 320.584 54.4421C321.58 54.4421 322.57 54.2898 323.555 53.9851C324.551 53.6687 325.494 53.2351 326.385 52.6843V58.1511C325.564 58.6902 324.639 59.1179 323.607 59.4343C322.576 59.7507 321.375 59.9089 320.004 59.9089ZM337.213 32.2058V36.0906C337.213 37.5671 337.178 38.8093 337.107 39.8171C337.049 40.8132 336.99 41.575 336.932 42.1023H337.248C337.682 41.4109 338.174 40.8601 338.725 40.45C339.275 40.0398 339.885 39.7468 340.553 39.571C341.221 39.3835 341.947 39.2898 342.732 39.2898C344.045 39.2898 345.229 39.5417 346.283 40.0457C347.35 40.5496 348.199 41.3406 348.832 42.4187C349.465 43.4851 349.781 44.8796 349.781 46.6023V59.5574H342.873V48.6941C342.873 47.3699 342.68 46.3738 342.293 45.7058C341.906 45.0261 341.309 44.6863 340.5 44.6863C339.668 44.6863 339.012 44.9265 338.531 45.407C338.051 45.8757 337.711 46.5671 337.512 47.4812C337.312 48.3835 337.213 49.491 337.213 50.8035V59.5574H330.34V32.2058H337.213Z" fill="#350659"/>
<path d="M554.75 55.5574L560.75 49.5574L554.75 43.5574" stroke="#2E2885" stroke-width="2" stroke-linecap="round" stroke-linejoin="round"/>
<path d="M49.5807 105.178C49.5807 105.686 49.4577 106.128 49.2116 106.503C48.9655 106.878 48.6061 107.167 48.1335 107.37C47.6647 107.573 47.0944 107.675 46.4225 107.675C46.1257 107.675 45.8346 107.655 45.5495 107.616C45.2682 107.577 44.9967 107.52 44.735 107.446C44.4772 107.368 44.2311 107.272 43.9967 107.159V105.471C44.403 105.651 44.8249 105.813 45.2624 105.958C45.6999 106.102 46.1335 106.175 46.5632 106.175C46.86 106.175 47.0983 106.135 47.278 106.057C47.4616 105.979 47.5944 105.872 47.6764 105.735C47.7585 105.598 47.7995 105.442 47.7995 105.266C47.7995 105.052 47.7272 104.868 47.5827 104.716C47.4382 104.563 47.2389 104.421 46.985 104.288C46.735 104.155 46.4518 104.012 46.1354 103.86C45.9362 103.766 45.7194 103.653 45.485 103.52C45.2507 103.384 45.028 103.218 44.8171 103.022C44.6061 102.827 44.4323 102.591 44.2956 102.313C44.1628 102.032 44.0964 101.696 44.0964 101.305C44.0964 100.794 44.2135 100.356 44.4479 99.9929C44.6823 99.6296 45.0163 99.3523 45.4499 99.1609C45.8874 98.9656 46.403 98.8679 46.9967 98.8679C47.4421 98.8679 47.8659 98.9207 48.2682 99.0261C48.6745 99.1277 49.0983 99.2761 49.5397 99.4714L48.9538 100.884C48.5592 100.723 48.2057 100.6 47.8932 100.514C47.5807 100.425 47.2624 100.38 46.9382 100.38C46.7116 100.38 46.5182 100.417 46.3581 100.491C46.1979 100.561 46.0768 100.663 45.9948 100.796C45.9128 100.925 45.8717 101.075 45.8717 101.247C45.8717 101.45 45.9303 101.622 46.0475 101.762C46.1686 101.899 46.3483 102.032 46.5866 102.161C46.8288 102.29 47.1296 102.44 47.4889 102.612C47.9264 102.819 48.2995 103.036 48.6081 103.262C48.9206 103.485 49.1608 103.749 49.3288 104.053C49.4967 104.354 49.5807 104.729 49.5807 105.178ZM58.1061 98.991V104.534C58.1061 105.124 57.9753 105.657 57.7135 106.134C57.4557 106.606 57.0632 106.981 56.5358 107.259C56.0124 107.536 55.3522 107.675 54.5553 107.675C53.4225 107.675 52.5592 107.385 51.9655 106.807C51.3717 106.229 51.0749 105.464 51.0749 104.51V98.991H52.8854V104.235C52.8854 104.942 53.0299 105.438 53.319 105.723C53.6081 106.009 54.0358 106.151 54.6022 106.151C55.0007 106.151 55.3229 106.083 55.569 105.946C55.819 105.809 56.0026 105.598 56.1198 105.313C56.237 105.028 56.2956 104.665 56.2956 104.223V98.991H58.1061ZM67.8034 107.557H65.4948L61.7682 101.077H61.7155C61.7311 101.346 61.7448 101.618 61.7565 101.891C61.7682 102.165 61.7799 102.438 61.7917 102.712C61.8034 102.981 61.8151 103.253 61.8268 103.526V107.557H60.2038V98.991H62.4948L66.2155 105.407H66.2565C66.2487 105.141 66.2389 104.878 66.2272 104.616C66.2155 104.354 66.2038 104.093 66.1921 103.831C66.1842 103.569 66.1764 103.307 66.1686 103.046V98.991H67.8034V107.557Z" fill="#2E2885"/>
<path d="M108.972 107.557L106.909 100.837H106.856C106.864 100.997 106.876 101.239 106.892 101.563C106.911 101.884 106.929 102.225 106.944 102.589C106.96 102.952 106.968 103.28 106.968 103.573V107.557H105.345V98.991H107.817L109.845 105.542H109.88L112.03 98.991H114.503V107.557H112.81V103.503C112.81 103.233 112.813 102.923 112.821 102.571C112.833 102.219 112.847 101.885 112.862 101.569C112.878 101.249 112.89 101.009 112.897 100.848H112.845L110.636 107.557H108.972ZM124.44 103.262C124.44 103.923 124.358 104.524 124.194 105.067C124.03 105.606 123.78 106.071 123.444 106.462C123.112 106.852 122.69 107.153 122.179 107.364C121.667 107.571 121.062 107.675 120.362 107.675C119.663 107.675 119.058 107.571 118.546 107.364C118.034 107.153 117.61 106.852 117.274 106.462C116.942 106.071 116.694 105.604 116.53 105.061C116.366 104.518 116.284 103.915 116.284 103.251C116.284 102.364 116.429 101.593 116.718 100.936C117.011 100.276 117.46 99.7644 118.065 99.4011C118.671 99.0378 119.44 98.8562 120.374 98.8562C121.304 98.8562 122.067 99.0378 122.665 99.4011C123.267 99.7644 123.712 100.276 124.001 100.936C124.294 101.596 124.44 102.372 124.44 103.262ZM118.188 103.262C118.188 103.86 118.263 104.376 118.411 104.809C118.563 105.239 118.8 105.571 119.12 105.805C119.44 106.036 119.854 106.151 120.362 106.151C120.878 106.151 121.296 106.036 121.616 105.805C121.937 105.571 122.169 105.239 122.313 104.809C122.462 104.376 122.536 103.86 122.536 103.262C122.536 102.364 122.368 101.657 122.032 101.141C121.696 100.626 121.144 100.368 120.374 100.368C119.862 100.368 119.444 100.485 119.12 100.719C118.8 100.95 118.563 101.282 118.411 101.716C118.263 102.145 118.188 102.661 118.188 103.262ZM133.815 107.557H131.507L127.78 101.077H127.728C127.743 101.346 127.757 101.618 127.769 101.891C127.78 102.165 127.792 102.438 127.804 102.712C127.815 102.981 127.827 103.253 127.839 103.526V107.557H126.216V98.991H128.507L132.228 105.407H132.269C132.261 105.141 132.251 104.878 132.239 104.616C132.228 104.354 132.216 104.093 132.204 103.831C132.196 103.569 132.188 103.307 132.181 103.046V98.991H133.815V107.557Z" fill="#2E2885"/>
<path d="M176.009 107.557H174.193V100.503H171.867V98.991H178.336V100.503H176.009V107.557ZM186.627 98.991V104.534C186.627 105.124 186.496 105.657 186.234 106.134C185.976 106.606 185.584 106.981 185.056 107.259C184.533 107.536 183.873 107.675 183.076 107.675C181.943 107.675 181.08 107.385 180.486 106.807C179.892 106.229 179.595 105.464 179.595 104.51V98.991H181.406V104.235C181.406 104.942 181.55 105.438 181.84 105.723C182.129 106.009 182.556 106.151 183.123 106.151C183.521 106.151 183.843 106.083 184.09 105.946C184.34 105.809 184.523 105.598 184.64 105.313C184.757 105.028 184.816 104.665 184.816 104.223V98.991H186.627ZM193.658 107.557H188.724V98.991H193.658V100.479H190.541V102.36H193.441V103.848H190.541V106.057H193.658V107.557Z" fill="#2E2885"/>
<path d="M267.83 98.991L265.65 107.557H263.582L262.422 103.057C262.398 102.971 262.367 102.841 262.328 102.665C262.289 102.489 262.248 102.298 262.205 102.091C262.162 101.88 262.123 101.682 262.088 101.499C262.056 101.311 262.035 101.163 262.023 101.053C262.011 101.163 261.988 101.309 261.953 101.493C261.922 101.677 261.884 101.872 261.841 102.079C261.802 102.286 261.763 102.479 261.724 102.659C261.685 102.839 261.654 102.975 261.631 103.069L260.476 107.557H258.414L256.228 98.991H258.015L259.111 103.667C259.142 103.807 259.177 103.975 259.216 104.171C259.259 104.366 259.3 104.571 259.34 104.786C259.382 104.997 259.42 105.202 259.451 105.401C259.486 105.596 259.511 105.766 259.527 105.911C259.547 105.762 259.572 105.591 259.603 105.395C259.634 105.196 259.668 104.995 259.703 104.792C259.742 104.585 259.781 104.393 259.82 104.218C259.859 104.042 259.894 103.899 259.925 103.79L261.174 98.991H262.89L264.138 103.79C264.166 103.895 264.197 104.038 264.232 104.218C264.271 104.393 264.31 104.585 264.349 104.792C264.388 104.999 264.424 105.202 264.455 105.401C264.49 105.596 264.515 105.766 264.531 105.911C264.558 105.716 264.595 105.479 264.642 105.202C264.693 104.921 264.746 104.641 264.8 104.364C264.859 104.087 264.91 103.854 264.953 103.667L266.043 98.991H267.83ZM273.841 107.557H268.908V98.991H273.841V100.479H270.724V102.36H273.625V103.848H270.724V106.057H273.841V107.557ZM282.742 103.192C282.742 104.157 282.556 104.964 282.185 105.612C281.818 106.257 281.285 106.743 280.586 107.071C279.886 107.395 279.045 107.557 278.06 107.557H275.634V98.991H278.324C279.222 98.991 280.002 99.1511 280.662 99.4714C281.322 99.7878 281.834 100.259 282.197 100.884C282.56 101.505 282.742 102.274 282.742 103.192ZM280.855 103.239C280.855 102.606 280.761 102.087 280.574 101.68C280.39 101.27 280.117 100.968 279.754 100.772C279.394 100.577 278.949 100.479 278.418 100.479H277.451V106.057H278.23C279.117 106.057 279.775 105.821 280.205 105.348C280.638 104.876 280.855 104.173 280.855 103.239Z" fill="#2E2885"/>
<path d="M348.446 107.557H346.63V100.503H344.303V98.991H350.772V100.503H348.446V107.557ZM359.11 107.557H357.299V103.86H353.907V107.557H352.09V98.991H353.907V102.348H357.299V98.991H359.11V107.557ZM368.251 98.991V104.534C368.251 105.124 368.12 105.657 367.858 106.134C367.6 106.606 367.208 106.981 366.68 107.259C366.157 107.536 365.497 107.675 364.7 107.675C363.567 107.675 362.704 107.385 362.11 106.807C361.516 106.229 361.219 105.464 361.219 104.51V98.991H363.03V104.235C363.03 104.942 363.174 105.438 363.464 105.723C363.753 106.009 364.18 106.151 364.747 106.151C365.145 106.151 365.467 106.083 365.714 105.946C365.964 105.809 366.147 105.598 366.264 105.313C366.382 105.028 366.44 104.665 366.44 104.223V98.991H368.251Z" fill="#2E2885"/>
<path d="M437.125 107.557H435.338V98.991H440.248V100.479H437.125V102.688H440.031V104.171H437.125V107.557ZM444.42 98.991C445.197 98.991 445.838 99.0847 446.341 99.2722C446.849 99.4597 447.226 99.7429 447.472 100.122C447.718 100.501 447.841 100.979 447.841 101.557C447.841 101.948 447.767 102.29 447.619 102.583C447.47 102.876 447.275 103.124 447.033 103.327C446.791 103.53 446.529 103.696 446.248 103.825L448.767 107.557H446.752L444.707 104.27H443.74V107.557H441.924V98.991H444.42ZM444.291 100.479H443.74V102.794H444.326C444.927 102.794 445.357 102.694 445.615 102.495C445.877 102.292 446.007 101.995 446.007 101.604C446.007 101.198 445.867 100.909 445.586 100.737C445.308 100.565 444.877 100.479 444.291 100.479ZM449.845 107.557V98.991H451.662V107.557H449.845Z" fill="#2E2885"/>
<path d="M525.547 105.178C525.547 105.686 525.424 106.128 525.177 106.503C524.931 106.878 524.572 107.167 524.099 107.37C523.631 107.573 523.06 107.675 522.388 107.675C522.091 107.675 521.8 107.655 521.515 107.616C521.234 107.577 520.963 107.52 520.701 107.446C520.443 107.368 520.197 107.272 519.963 107.159V105.471C520.369 105.651 520.791 105.813 521.228 105.958C521.666 106.102 522.099 106.175 522.529 106.175C522.826 106.175 523.064 106.135 523.244 106.057C523.427 105.979 523.56 105.872 523.642 105.735C523.724 105.598 523.765 105.442 523.765 105.266C523.765 105.052 523.693 104.868 523.549 104.716C523.404 104.563 523.205 104.421 522.951 104.288C522.701 104.155 522.418 104.012 522.101 103.86C521.902 103.766 521.685 103.653 521.451 103.52C521.216 103.384 520.994 103.218 520.783 103.022C520.572 102.827 520.398 102.591 520.261 102.313C520.129 102.032 520.062 101.696 520.062 101.305C520.062 100.794 520.179 100.356 520.414 99.9929C520.648 99.6296 520.982 99.3523 521.416 99.1609C521.853 98.9656 522.369 98.8679 522.963 98.8679C523.408 98.8679 523.832 98.9207 524.234 99.0261C524.64 99.1277 525.064 99.2761 525.506 99.4714L524.92 100.884C524.525 100.723 524.172 100.6 523.859 100.514C523.547 100.425 523.228 100.38 522.904 100.38C522.677 100.38 522.484 100.417 522.324 100.491C522.164 100.561 522.043 100.663 521.961 100.796C521.879 100.925 521.838 101.075 521.838 101.247C521.838 101.45 521.896 101.622 522.013 101.762C522.134 101.899 522.314 102.032 522.552 102.161C522.795 102.29 523.095 102.44 523.455 102.612C523.892 102.819 524.265 103.036 524.574 103.262C524.886 103.485 525.127 103.749 525.295 104.053C525.463 104.354 525.547 104.729 525.547 105.178ZM532.343 107.557L531.722 105.518H528.599L527.978 107.557H526.021L529.045 98.9558H531.265L534.3 107.557H532.343ZM531.289 103.995L530.668 102.003C530.629 101.87 530.576 101.7 530.509 101.493C530.447 101.282 530.382 101.069 530.316 100.854C530.254 100.635 530.203 100.446 530.164 100.286C530.125 100.446 530.07 100.645 530 100.884C529.933 101.118 529.869 101.341 529.806 101.552C529.744 101.762 529.699 101.913 529.672 102.003L529.056 103.995H531.289ZM538.689 107.557H536.873V100.503H534.547V98.991H541.015V100.503H538.689V107.557Z" fill="#2E2885"/>
<rect x="16.75" y="117.557" width="79" height="91" rx="8" fill="white"/>
<path d="M54.7822 160.705C54.7822 161.279 54.6709 161.777 54.4482 162.199C54.2256 162.621 53.915 162.967 53.5166 163.236C53.1182 163.5 52.6494 163.684 52.1104 163.79V163.86C53.1299 163.989 53.8945 164.317 54.4043 164.844C54.9199 165.372 55.1777 166.063 55.1777 166.919C55.1777 167.663 55.002 168.322 54.6504 168.896C54.3047 169.47 53.7715 169.922 53.0508 170.25C52.3359 170.572 51.4189 170.733 50.2998 170.733C49.6201 170.733 48.9902 170.677 48.4102 170.566C47.8359 170.461 47.2852 170.282 46.7578 170.03V168.659C47.291 168.923 47.8711 169.131 48.498 169.283C49.125 169.429 49.7314 169.503 50.3174 169.503C51.4893 169.503 52.3359 169.271 52.8574 168.808C53.3789 168.34 53.6396 167.701 53.6396 166.892C53.6396 166.336 53.4932 165.887 53.2002 165.548C52.9131 165.202 52.4971 164.95 51.9521 164.792C51.4131 164.628 50.7627 164.546 50.001 164.546H48.7178V163.298H50.0098C50.707 163.298 51.2988 163.195 51.7852 162.99C52.2715 162.785 52.6406 162.498 52.8926 162.129C53.1504 161.754 53.2793 161.311 53.2793 160.802C53.2793 160.151 53.0625 159.65 52.6289 159.299C52.1953 158.941 51.6064 158.762 50.8623 158.762C50.4053 158.762 49.9893 158.809 49.6143 158.903C49.2393 158.997 48.8877 159.126 48.5596 159.29C48.2314 159.454 47.9033 159.644 47.5752 159.861L46.8369 158.859C47.3057 158.496 47.877 158.182 48.5508 157.919C49.2246 157.655 49.9893 157.523 50.8447 157.523C52.1572 157.523 53.1416 157.822 53.7979 158.42C54.4541 159.017 54.7822 159.779 54.7822 160.705ZM65.6279 164.115C65.6279 165.158 65.5488 166.09 65.3906 166.91C65.2324 167.73 64.9834 168.425 64.6436 168.993C64.3037 169.561 63.8643 169.995 63.3252 170.294C62.7861 170.587 62.1387 170.733 61.3828 170.733C60.4277 170.733 59.6367 170.472 59.0098 169.951C58.3887 169.429 57.9229 168.677 57.6123 167.692C57.3076 166.702 57.1553 165.51 57.1553 164.115C57.1553 162.744 57.293 161.566 57.5684 160.582C57.8496 159.592 58.3008 158.833 58.9219 158.305C59.543 157.772 60.3633 157.506 61.3828 157.506C62.3496 157.506 63.1465 157.769 63.7734 158.297C64.4004 158.818 64.8662 159.574 65.1709 160.564C65.4756 161.549 65.6279 162.732 65.6279 164.115ZM58.623 164.115C58.623 165.31 58.7139 166.306 58.8955 167.103C59.0771 167.9 59.3701 168.498 59.7744 168.896C60.1846 169.289 60.7207 169.485 61.3828 169.485C62.0449 169.485 62.5781 169.289 62.9824 168.896C63.3926 168.504 63.6885 167.909 63.8701 167.112C64.0576 166.315 64.1514 165.316 64.1514 164.115C64.1514 162.937 64.0605 161.953 63.8789 161.162C63.6973 160.365 63.4043 159.767 63 159.369C62.5957 158.965 62.0566 158.762 61.3828 158.762C60.709 158.762 60.1699 158.965 59.7656 159.369C59.3613 159.767 59.0684 160.365 58.8867 161.162C58.7109 161.953 58.623 162.937 58.623 164.115Z" fill="#A6B1E1"/>
<rect x="95.75" y="117.557" width="79" height="91" rx="8" fill="white"/>
<path d="M136.419 170.557H134.995V161.452C134.995 161.106 134.995 160.81 134.995 160.564C135.001 160.312 135.007 160.084 135.013 159.879C135.024 159.668 135.039 159.454 135.057 159.237C134.875 159.425 134.705 159.586 134.547 159.72C134.389 159.849 134.192 160.01 133.958 160.204L132.49 161.382L131.726 160.388L135.206 157.708H136.419V170.557Z" fill="#2E2885"/>
<rect x="174.75" y="117.557" width="79" height="91" rx="39.5" fill="#5012B5"/>
<path d="M210.156 170.557V169.407L214.477 164.677C214.984 164.123 215.402 163.641 215.73 163.232C216.058 162.819 216.301 162.431 216.458 162.069C216.62 161.702 216.701 161.319 216.701 160.918C216.701 160.458 216.591 160.06 216.369 159.723C216.152 159.386 215.853 159.126 215.474 158.943C215.095 158.76 214.669 158.668 214.196 158.668C213.693 158.668 213.254 158.773 212.879 158.981C212.508 159.186 212.221 159.474 212.016 159.844C211.816 160.215 211.716 160.65 211.716 161.148H210.207C210.207 160.381 210.384 159.708 210.738 159.128C211.091 158.549 211.573 158.097 212.182 157.773C212.796 157.449 213.484 157.287 214.247 157.287C215.014 157.287 215.694 157.449 216.286 157.773C216.878 158.097 217.343 158.534 217.679 159.084C218.016 159.633 218.184 160.245 218.184 160.918C218.184 161.4 218.097 161.871 217.922 162.331C217.752 162.787 217.453 163.296 217.027 163.859C216.605 164.417 216.02 165.099 215.27 165.904L212.329 169.049V169.151H218.414V170.557H210.156Z" fill="#A6B1E1"/>
<rect x="253.75" y="117.557" width="79" height="91" rx="8" fill="white"/>
<path d="M296.933 160.705C296.933 161.279 296.821 161.777 296.599 162.199C296.376 162.621 296.065 162.967 295.667 163.236C295.269 163.5 294.8 163.684 294.261 163.79V163.86C295.28 163.989 296.045 164.317 296.555 164.844C297.07 165.372 297.328 166.063 297.328 166.919C297.328 167.663 297.152 168.322 296.801 168.896C296.455 169.47 295.922 169.922 295.201 170.25C294.486 170.572 293.569 170.733 292.45 170.733C291.771 170.733 291.141 170.677 290.561 170.566C289.986 170.461 289.436 170.282 288.908 170.03V168.659C289.441 168.923 290.021 169.131 290.648 169.283C291.275 169.429 291.882 169.503 292.468 169.503C293.64 169.503 294.486 169.271 295.008 168.808C295.529 168.34 295.79 167.701 295.79 166.892C295.79 166.336 295.644 165.887 295.351 165.548C295.063 165.202 294.647 164.95 294.103 164.792C293.563 164.628 292.913 164.546 292.151 164.546H290.868V163.298H292.16C292.857 163.298 293.449 163.195 293.936 162.99C294.422 162.785 294.791 162.498 295.043 162.129C295.301 161.754 295.43 161.311 295.43 160.802C295.43 160.151 295.213 159.65 294.779 159.299C294.346 158.941 293.757 158.762 293.013 158.762C292.556 158.762 292.14 158.809 291.765 158.903C291.39 158.997 291.038 159.126 290.71 159.29C290.382 159.454 290.054 159.644 289.726 159.861L288.987 158.859C289.456 158.496 290.027 158.182 290.701 157.919C291.375 157.655 292.14 157.523 292.995 157.523C294.308 157.523 295.292 157.822 295.948 158.42C296.604 159.017 296.933 159.779 296.933 160.705Z" fill="#2E2885"/>
<rect x="332.75" y="117.557" width="79" height="91" rx="8" fill="white"/>
<path d="M377.049 167.578H375.124V170.557H373.7V167.578H367.486V166.347L373.604 157.637H375.124V166.26H377.049V167.578ZM373.7 166.26V162.058C373.7 161.736 373.703 161.446 373.709 161.188C373.715 160.925 373.724 160.681 373.735 160.459C373.747 160.23 373.756 160.013 373.762 159.808C373.773 159.603 373.782 159.401 373.788 159.202H373.718C373.606 159.436 373.478 159.685 373.331 159.949C373.19 160.207 373.047 160.438 372.9 160.643L368.937 166.26H373.7Z" fill="#2E2885"/>
<rect x="411.75" y="117.557" width="79" height="91" rx="8" fill="white"/>
<path d="M451.048 162.7C451.921 162.7 452.68 162.849 453.324 163.148C453.969 163.441 454.467 163.869 454.818 164.431C455.176 164.994 455.354 165.677 455.354 166.479C455.354 167.358 455.164 168.117 454.783 168.756C454.402 169.388 453.854 169.878 453.14 170.223C452.425 170.563 451.569 170.733 450.573 170.733C449.905 170.733 449.284 170.675 448.71 170.557C448.136 170.44 447.652 170.264 447.26 170.03V168.641C447.688 168.899 448.206 169.104 448.815 169.257C449.425 169.409 450.017 169.485 450.591 169.485C451.241 169.485 451.81 169.383 452.296 169.177C452.788 168.967 453.169 168.65 453.438 168.228C453.714 167.801 453.852 167.264 453.852 166.62C453.852 165.764 453.588 165.105 453.061 164.642C452.539 164.174 451.713 163.939 450.582 163.939C450.219 163.939 449.82 163.969 449.387 164.027C448.953 164.086 448.596 164.15 448.314 164.22L447.576 163.737L448.068 157.708H454.458V159.044H449.316L448.991 162.92C449.214 162.873 449.501 162.826 449.853 162.779C450.204 162.726 450.603 162.7 451.048 162.7Z" fill="#2E2885"/>
<rect x="490.75" y="117.557" width="79" height="91" rx="8" fill="white"/>
<path d="M526.119 165.064C526.119 164.291 526.172 163.535 526.277 162.797C526.389 162.058 526.573 161.373 526.831 160.74C527.089 160.101 527.44 159.542 527.886 159.061C528.331 158.581 528.885 158.206 529.547 157.936C530.215 157.661 531.015 157.523 531.946 157.523C532.21 157.523 532.494 157.538 532.799 157.567C533.104 157.591 533.355 157.632 533.555 157.69V158.947C533.338 158.871 533.089 158.815 532.808 158.78C532.532 158.745 532.254 158.727 531.973 158.727C530.883 158.727 530.024 158.965 529.397 159.439C528.776 159.914 528.328 160.558 528.053 161.373C527.777 162.181 527.619 163.093 527.578 164.106H527.675C527.856 163.813 528.088 163.55 528.369 163.315C528.65 163.075 528.99 162.885 529.389 162.744C529.793 162.603 530.262 162.533 530.795 162.533C531.545 162.533 532.198 162.685 532.755 162.99C533.317 163.295 533.751 163.737 534.056 164.317C534.366 164.897 534.521 165.6 534.521 166.427C534.521 167.311 534.357 168.076 534.029 168.72C533.701 169.365 533.232 169.863 532.623 170.215C532.02 170.56 531.299 170.733 530.461 170.733C529.834 170.733 529.257 170.613 528.729 170.373C528.202 170.133 527.742 169.775 527.35 169.301C526.963 168.826 526.661 168.237 526.444 167.534C526.228 166.825 526.119 166.002 526.119 165.064ZM530.443 169.503C531.24 169.503 531.879 169.248 532.359 168.738C532.84 168.228 533.08 167.458 533.08 166.427C533.08 165.583 532.866 164.915 532.438 164.423C532.011 163.93 531.366 163.684 530.505 163.684C529.919 163.684 529.409 163.807 528.976 164.053C528.542 164.294 528.205 164.598 527.965 164.968C527.725 165.337 527.604 165.712 527.604 166.093C527.604 166.479 527.66 166.872 527.771 167.27C527.889 167.669 528.064 168.038 528.299 168.378C528.533 168.718 528.829 168.99 529.187 169.195C529.544 169.4 529.963 169.503 530.443 169.503Z" fill="#2E2885"/>
<rect x="16.75" y="208.557" width="79" height="91" rx="8" fill="white"/>
<path d="M53.6484 261.557L58.9219 250.044H51.917V248.708H60.4863V249.833L55.248 261.557H53.6484Z" fill="#2E2885"/>
<rect x="95.75" y="208.557" width="79" height="91" rx="8" fill="white"/>
<path d="M135.232 248.523C135.977 248.523 136.636 248.64 137.21 248.875C137.784 249.109 138.232 249.455 138.555 249.912C138.883 250.363 139.047 250.92 139.047 251.582C139.047 252.103 138.933 252.56 138.704 252.953C138.481 253.34 138.18 253.679 137.799 253.972C137.418 254.26 136.996 254.517 136.533 254.746C137.084 254.998 137.579 255.282 138.019 255.598C138.464 255.915 138.815 256.287 139.073 256.715C139.331 257.142 139.46 257.649 139.46 258.235C139.46 258.956 139.284 259.58 138.933 260.107C138.587 260.629 138.101 261.03 137.474 261.311C136.847 261.593 136.111 261.733 135.268 261.733C134.359 261.733 133.586 261.598 132.947 261.329C132.314 261.053 131.831 260.661 131.497 260.151C131.169 259.635 131.005 259.017 131.005 258.297C131.005 257.705 131.131 257.192 131.383 256.759C131.635 256.319 131.969 255.941 132.385 255.625C132.801 255.308 133.255 255.042 133.747 254.825C133.319 254.591 132.927 254.324 132.569 254.025C132.218 253.726 131.937 253.378 131.726 252.979C131.521 252.575 131.418 252.106 131.418 251.573C131.418 250.923 131.582 250.372 131.91 249.921C132.244 249.464 132.698 249.118 133.272 248.884C133.853 248.643 134.506 248.523 135.232 248.523ZM132.438 258.305C132.438 258.962 132.669 259.504 133.132 259.931C133.595 260.353 134.295 260.564 135.232 260.564C136.123 260.564 136.812 260.353 137.298 259.931C137.784 259.504 138.027 258.944 138.027 258.253C138.027 257.825 137.916 257.45 137.693 257.128C137.471 256.8 137.154 256.507 136.744 256.249C136.334 255.991 135.851 255.757 135.294 255.546L134.978 255.431C134.438 255.654 133.979 255.903 133.598 256.178C133.223 256.448 132.936 256.756 132.736 257.101C132.537 257.447 132.438 257.848 132.438 258.305ZM135.215 249.719C134.523 249.719 133.958 249.885 133.519 250.219C133.079 250.548 132.859 251.022 132.859 251.643C132.859 252.089 132.965 252.467 133.176 252.777C133.393 253.082 133.686 253.345 134.055 253.568C134.424 253.785 134.837 253.987 135.294 254.175C135.739 253.987 136.135 253.782 136.48 253.559C136.826 253.331 137.099 253.061 137.298 252.751C137.497 252.44 137.597 252.068 137.597 251.635C137.597 251.013 137.377 250.539 136.938 250.211C136.504 249.883 135.93 249.719 135.215 249.719Z" fill="#2E2885"/>
<rect x="174.75" y="208.557" width="79" height="91" rx="8" fill="white"/>
<path d="M218.425 254.183C218.425 254.963 218.369 255.721 218.258 256.46C218.152 257.198 217.968 257.886 217.704 258.525C217.446 259.164 217.095 259.723 216.649 260.204C216.204 260.684 215.645 261.062 214.971 261.338C214.303 261.607 213.503 261.742 212.571 261.742C212.319 261.742 212.032 261.724 211.71 261.689C211.388 261.66 211.124 261.616 210.919 261.557V260.292C211.136 260.368 211.391 260.429 211.684 260.476C211.977 260.517 212.264 260.538 212.545 260.538C213.641 260.538 214.502 260.303 215.129 259.835C215.756 259.36 216.207 258.719 216.482 257.91C216.758 257.095 216.913 256.181 216.948 255.168H216.843C216.667 255.449 216.436 255.71 216.148 255.95C215.867 256.184 215.524 256.375 215.12 256.521C214.716 256.662 214.244 256.732 213.705 256.732C212.961 256.732 212.311 256.58 211.754 256.275C211.203 255.97 210.772 255.528 210.462 254.948C210.157 254.368 210.005 253.668 210.005 252.847C210.005 251.963 210.172 251.198 210.506 250.553C210.846 249.903 211.32 249.402 211.93 249.051C212.539 248.699 213.257 248.523 214.083 248.523C214.716 248.523 215.296 248.643 215.823 248.884C216.351 249.124 216.808 249.484 217.194 249.965C217.587 250.439 217.889 251.028 218.1 251.731C218.316 252.434 218.425 253.252 218.425 254.183ZM214.083 249.762C213.304 249.762 212.671 250.017 212.185 250.527C211.704 251.037 211.464 251.804 211.464 252.83C211.464 253.679 211.672 254.35 212.088 254.843C212.504 255.335 213.146 255.581 214.013 255.581C214.61 255.581 215.126 255.461 215.56 255.22C215.999 254.98 216.336 254.676 216.57 254.306C216.811 253.937 216.931 253.559 216.931 253.173C216.931 252.786 216.872 252.393 216.755 251.995C216.644 251.596 216.471 251.23 216.236 250.896C216.002 250.556 215.706 250.284 215.349 250.079C214.991 249.868 214.569 249.762 214.083 249.762Z" fill="#2E2885"/>
<rect x="253.75" y="208.557" width="79" height="91" rx="8" fill="white"/>
<path d="M289.269 261.557H287.845V252.452C287.845 252.106 287.845 251.81 287.845 251.564C287.851 251.312 287.856 251.084 287.862 250.879C287.874 250.668 287.889 250.454 287.906 250.237C287.725 250.425 287.555 250.586 287.396 250.72C287.238 250.849 287.042 251.01 286.808 251.204L285.34 252.382L284.575 251.388L288.056 248.708H289.269V261.557ZM302.628 255.115C302.628 256.158 302.549 257.09 302.391 257.91C302.232 258.73 301.983 259.425 301.644 259.993C301.304 260.561 300.864 260.995 300.325 261.294C299.786 261.587 299.139 261.733 298.383 261.733C297.428 261.733 296.637 261.472 296.01 260.951C295.389 260.429 294.923 259.677 294.612 258.692C294.308 257.702 294.155 256.51 294.155 255.115C294.155 253.744 294.293 252.566 294.568 251.582C294.85 250.592 295.301 249.833 295.922 249.305C296.543 248.772 297.363 248.506 298.383 248.506C299.35 248.506 300.146 248.769 300.773 249.297C301.4 249.818 301.866 250.574 302.171 251.564C302.476 252.549 302.628 253.732 302.628 255.115ZM295.623 255.115C295.623 256.31 295.714 257.306 295.896 258.103C296.077 258.9 296.37 259.498 296.774 259.896C297.185 260.289 297.721 260.485 298.383 260.485C299.045 260.485 299.578 260.289 299.982 259.896C300.393 259.504 300.688 258.909 300.87 258.112C301.058 257.315 301.151 256.316 301.151 255.115C301.151 253.937 301.061 252.953 300.879 252.162C300.697 251.365 300.404 250.767 300 250.369C299.596 249.965 299.057 249.762 298.383 249.762C297.709 249.762 297.17 249.965 296.766 250.369C296.361 250.767 296.068 251.365 295.887 252.162C295.711 252.953 295.623 253.937 295.623 255.115Z" fill="#2E2885"/>
<rect x="332.75" y="208.557" width="79" height="91" rx="8" fill="white"/>
<path d="M368.269 261.557H366.845V252.452C366.845 252.106 366.845 251.81 366.845 251.564C366.851 251.312 366.856 251.084 366.862 250.879C366.874 250.668 366.889 250.454 366.906 250.237C366.725 250.425 366.555 250.586 366.396 250.72C366.238 250.849 366.042 251.01 365.808 251.204L364.34 252.382L363.575 251.388L367.056 248.708H368.269V261.557ZM378.569 261.557H377.146V252.452C377.146 252.106 377.146 251.81 377.146 251.564C377.151 251.312 377.157 251.084 377.163 250.879C377.175 250.668 377.189 250.454 377.207 250.237C377.025 250.425 376.855 250.586 376.697 250.72C376.539 250.849 376.343 251.01 376.108 251.204L374.641 252.382L373.876 251.388L377.356 248.708H378.569V261.557Z" fill="#2E2885"/>
<rect x="411.75" y="208.557" width="79" height="91" rx="8" fill="white"/>
<path d="M447.269 261.557H445.845V252.452C445.845 252.106 445.845 251.81 445.845 251.564C445.851 251.312 445.856 251.084 445.862 250.879C445.874 250.668 445.889 250.454 445.906 250.237C445.725 250.425 445.555 250.586 445.396 250.72C445.238 250.849 445.042 251.01 444.808 251.204L443.34 252.382L442.575 251.388L446.056 248.708H447.269V261.557ZM460.558 261.557H452.138V260.336L455.574 256.846C456.213 256.202 456.749 255.628 457.183 255.124C457.622 254.62 457.956 254.125 458.185 253.638C458.413 253.146 458.527 252.607 458.527 252.021C458.527 251.295 458.311 250.741 457.877 250.36C457.449 249.973 456.884 249.78 456.181 249.78C455.565 249.78 455.021 249.885 454.546 250.096C454.071 250.307 453.585 250.606 453.087 250.993L452.305 250.009C452.645 249.721 453.014 249.467 453.412 249.244C453.816 249.021 454.247 248.845 454.704 248.717C455.167 248.588 455.659 248.523 456.181 248.523C456.972 248.523 457.654 248.661 458.229 248.936C458.803 249.212 459.245 249.604 459.556 250.114C459.872 250.624 460.03 251.23 460.03 251.933C460.03 252.613 459.896 253.246 459.626 253.832C459.356 254.412 458.979 254.989 458.492 255.563C458.006 256.132 457.438 256.735 456.787 257.374L453.992 260.16V260.221H460.558V261.557Z" fill="#2E2885"/>
<rect x="490.75" y="208.557" width="79" height="91" rx="8" fill="white"/>
<path d="M526.269 261.557H524.845V252.452C524.845 252.106 524.845 251.81 524.845 251.564C524.851 251.312 524.856 251.084 524.862 250.879C524.874 250.668 524.889 250.454 524.906 250.237C524.725 250.425 524.555 250.586 524.396 250.72C524.238 250.849 524.042 251.01 523.808 251.204L522.34 252.382L521.575 251.388L525.056 248.708H526.269V261.557ZM539.083 251.705C539.083 252.279 538.972 252.777 538.749 253.199C538.526 253.621 538.216 253.967 537.817 254.236C537.419 254.5 536.95 254.684 536.411 254.79V254.86C537.431 254.989 538.195 255.317 538.705 255.844C539.221 256.372 539.479 257.063 539.479 257.919C539.479 258.663 539.303 259.322 538.951 259.896C538.605 260.47 538.072 260.922 537.352 261.25C536.637 261.572 535.72 261.733 534.601 261.733C533.921 261.733 533.291 261.677 532.711 261.566C532.137 261.461 531.586 261.282 531.059 261.03V259.659C531.592 259.923 532.172 260.131 532.799 260.283C533.426 260.429 534.032 260.503 534.618 260.503C535.79 260.503 536.637 260.271 537.158 259.808C537.68 259.34 537.94 258.701 537.94 257.892C537.94 257.336 537.794 256.887 537.501 256.548C537.214 256.202 536.798 255.95 536.253 255.792C535.714 255.628 535.063 255.546 534.302 255.546H533.019V254.298H534.311C535.008 254.298 535.6 254.195 536.086 253.99C536.572 253.785 536.941 253.498 537.193 253.129C537.451 252.754 537.58 252.311 537.58 251.802C537.58 251.151 537.363 250.65 536.93 250.299C536.496 249.941 535.907 249.762 535.163 249.762C534.706 249.762 534.29 249.809 533.915 249.903C533.54 249.997 533.188 250.126 532.86 250.29C532.532 250.454 532.204 250.644 531.876 250.861L531.138 249.859C531.606 249.496 532.178 249.182 532.852 248.919C533.525 248.655 534.29 248.523 535.146 248.523C536.458 248.523 537.442 248.822 538.099 249.42C538.755 250.017 539.083 250.779 539.083 251.705Z" fill="#2E2885"/>
<rect x="16.75" y="299.557" width="79" height="91" rx="8" fill="white"/>
<path d="M52.2686 352.557H50.8447V343.452C50.8447 343.106 50.8447 342.81 50.8447 342.564C50.8506 342.312 50.8564 342.084 50.8623 341.879C50.874 341.668 50.8887 341.454 50.9062 341.237C50.7246 341.425 50.5547 341.586 50.3965 341.72C50.2383 341.849 50.042 342.01 49.8076 342.204L48.3398 343.382L47.5752 342.388L51.0557 339.708H52.2686V352.557ZM66.1992 349.578H64.2744V352.557H62.8506V349.578H56.6367V348.347L62.7539 339.637H64.2744V348.26H66.1992V349.578ZM62.8506 348.26V344.058C62.8506 343.736 62.8535 343.446 62.8594 343.188C62.8652 342.925 62.874 342.681 62.8857 342.459C62.8975 342.23 62.9062 342.013 62.9121 341.808C62.9238 341.603 62.9326 341.401 62.9385 341.202H62.8682C62.7568 341.436 62.6279 341.685 62.4814 341.949C62.3408 342.207 62.1973 342.438 62.0508 342.643L58.0869 348.26H62.8506Z" fill="#2E2885"/>
<rect x="95.75" y="299.557" width="79" height="91" rx="8" fill="white"/>
<path d="M131.269 352.557H129.845V343.452C129.845 343.106 129.845 342.81 129.845 342.564C129.851 342.312 129.856 342.084 129.862 341.879C129.874 341.668 129.889 341.454 129.906 341.237C129.725 341.425 129.555 341.586 129.396 341.72C129.238 341.849 129.042 342.01 128.808 342.204L127.34 343.382L126.575 342.388L130.056 339.708H131.269V352.557ZM140.198 344.7C141.071 344.7 141.83 344.849 142.475 345.148C143.119 345.441 143.617 345.869 143.969 346.431C144.326 346.994 144.505 347.677 144.505 348.479C144.505 349.358 144.314 350.117 143.934 350.756C143.553 351.388 143.005 351.878 142.29 352.223C141.575 352.563 140.72 352.733 139.724 352.733C139.056 352.733 138.435 352.675 137.86 352.557C137.286 352.44 136.803 352.264 136.41 352.03V350.641C136.838 350.899 137.356 351.104 137.966 351.257C138.575 351.409 139.167 351.485 139.741 351.485C140.392 351.485 140.96 351.383 141.446 351.177C141.938 350.967 142.319 350.65 142.589 350.228C142.864 349.801 143.002 349.264 143.002 348.62C143.002 347.764 142.738 347.105 142.211 346.642C141.689 346.174 140.863 345.939 139.732 345.939C139.369 345.939 138.971 345.969 138.537 346.027C138.104 346.086 137.746 346.15 137.465 346.22L136.727 345.737L137.219 339.708H143.608V341.044H138.467L138.142 344.92C138.364 344.873 138.651 344.826 139.003 344.779C139.354 344.726 139.753 344.7 140.198 344.7Z" fill="#2E2885"/>
<rect x="174.75" y="299.557" width="79" height="91" rx="8" fill="white"/>
<path d="M210.269 352.557H208.845V343.452C208.845 343.106 208.845 342.81 208.845 342.564C208.851 342.312 208.856 342.084 208.862 341.879C208.874 341.668 208.889 341.454 208.906 341.237C208.725 341.425 208.555 341.586 208.396 341.72C208.238 341.849 208.042 342.01 207.808 342.204L206.34 343.382L205.575 342.388L209.056 339.708H210.269V352.557ZM215.27 347.064C215.27 346.291 215.322 345.535 215.428 344.797C215.539 344.058 215.724 343.373 215.981 342.74C216.239 342.101 216.591 341.542 217.036 341.061C217.481 340.581 218.035 340.206 218.697 339.936C219.365 339.661 220.165 339.523 221.097 339.523C221.36 339.523 221.645 339.538 221.949 339.567C222.254 339.591 222.506 339.632 222.705 339.69V340.947C222.488 340.871 222.239 340.815 221.958 340.78C221.683 340.745 221.404 340.727 221.123 340.727C220.033 340.727 219.175 340.965 218.548 341.439C217.927 341.914 217.479 342.558 217.203 343.373C216.928 344.181 216.77 345.093 216.729 346.106H216.825C217.007 345.813 217.238 345.55 217.52 345.315C217.801 345.075 218.141 344.885 218.539 344.744C218.943 344.603 219.412 344.533 219.945 344.533C220.695 344.533 221.349 344.685 221.905 344.99C222.468 345.295 222.901 345.737 223.206 346.317C223.517 346.897 223.672 347.6 223.672 348.427C223.672 349.311 223.508 350.076 223.18 350.72C222.852 351.365 222.383 351.863 221.773 352.215C221.17 352.56 220.449 352.733 219.611 352.733C218.984 352.733 218.407 352.613 217.88 352.373C217.353 352.133 216.893 351.775 216.5 351.301C216.113 350.826 215.812 350.237 215.595 349.534C215.378 348.825 215.27 348.002 215.27 347.064ZM219.594 351.503C220.391 351.503 221.029 351.248 221.51 350.738C221.99 350.228 222.23 349.458 222.23 348.427C222.23 347.583 222.017 346.915 221.589 346.423C221.161 345.93 220.517 345.684 219.655 345.684C219.069 345.684 218.56 345.807 218.126 346.053C217.692 346.294 217.355 346.598 217.115 346.968C216.875 347.337 216.755 347.712 216.755 348.093C216.755 348.479 216.811 348.872 216.922 349.27C217.039 349.669 217.215 350.038 217.449 350.378C217.684 350.718 217.979 350.99 218.337 351.195C218.694 351.4 219.113 351.503 219.594 351.503Z" fill="#2E2885"/>
<rect x="253.75" y="299.557" width="79" height="91" rx="8" fill="white"/>
<path d="M289.269 352.557H287.845V343.452C287.845 343.106 287.845 342.81 287.845 342.564C287.851 342.312 287.856 342.084 287.862 341.879C287.874 341.668 287.889 341.454 287.906 341.237C287.725 341.425 287.555 341.586 287.396 341.72C287.238 341.849 287.042 342.01 286.808 342.204L285.34 343.382L284.575 342.388L288.056 339.708H289.269V352.557ZM295.799 352.557L301.072 341.044H294.067V339.708H302.637V340.833L297.398 352.557H295.799Z" fill="#2E2885"/>
<path d="M368.269 352.557H366.845V343.452C366.845 343.106 366.845 342.81 366.845 342.564C366.851 342.312 366.856 342.084 366.862 341.879C366.874 341.668 366.889 341.454 366.906 341.237C366.725 341.425 366.555 341.586 366.396 341.72C366.238 341.849 366.042 342.01 365.808 342.204L364.34 343.382L363.575 342.388L367.056 339.708H368.269V352.557ZM377.383 339.523C378.127 339.523 378.786 339.64 379.36 339.875C379.935 340.109 380.383 340.455 380.705 340.912C381.033 341.363 381.197 341.92 381.197 342.582C381.197 343.103 381.083 343.56 380.854 343.953C380.632 344.34 380.33 344.679 379.949 344.972C379.568 345.26 379.146 345.517 378.684 345.746C379.234 345.998 379.729 346.282 380.169 346.598C380.614 346.915 380.966 347.287 381.224 347.715C381.481 348.142 381.61 348.649 381.61 349.235C381.61 349.956 381.435 350.58 381.083 351.107C380.737 351.629 380.251 352.03 379.624 352.311C378.997 352.593 378.262 352.733 377.418 352.733C376.51 352.733 375.736 352.598 375.098 352.329C374.465 352.053 373.981 351.661 373.647 351.151C373.319 350.635 373.155 350.017 373.155 349.297C373.155 348.705 373.281 348.192 373.533 347.759C373.785 347.319 374.119 346.941 374.535 346.625C374.951 346.308 375.405 346.042 375.897 345.825C375.47 345.591 375.077 345.324 374.72 345.025C374.368 344.726 374.087 344.378 373.876 343.979C373.671 343.575 373.568 343.106 373.568 342.573C373.568 341.923 373.732 341.372 374.061 340.921C374.395 340.464 374.849 340.118 375.423 339.884C376.003 339.643 376.656 339.523 377.383 339.523ZM374.588 349.305C374.588 349.962 374.819 350.504 375.282 350.931C375.745 351.353 376.445 351.564 377.383 351.564C378.273 351.564 378.962 351.353 379.448 350.931C379.935 350.504 380.178 349.944 380.178 349.253C380.178 348.825 380.066 348.45 379.844 348.128C379.621 347.8 379.305 347.507 378.895 347.249C378.484 346.991 378.001 346.757 377.444 346.546L377.128 346.431C376.589 346.654 376.129 346.903 375.748 347.178C375.373 347.448 375.086 347.756 374.887 348.101C374.688 348.447 374.588 348.848 374.588 349.305ZM377.365 340.719C376.674 340.719 376.108 340.885 375.669 341.219C375.229 341.548 375.01 342.022 375.01 342.643C375.01 343.089 375.115 343.467 375.326 343.777C375.543 344.082 375.836 344.345 376.205 344.568C376.574 344.785 376.987 344.987 377.444 345.175C377.89 344.987 378.285 344.782 378.631 344.559C378.977 344.331 379.249 344.061 379.448 343.751C379.647 343.44 379.747 343.068 379.747 342.635C379.747 342.013 379.527 341.539 379.088 341.211C378.654 340.883 378.08 340.719 377.365 340.719Z" fill="#2E2885"/>
<rect x="411.75" y="299.557" width="79" height="91" rx="8" fill="white"/>
<path d="M447.269 352.557H445.845V343.452C445.845 343.106 445.845 342.81 445.845 342.564C445.851 342.312 445.856 342.084 445.862 341.879C445.874 341.668 445.889 341.454 445.906 341.237C445.725 341.425 445.555 341.586 445.396 341.72C445.238 341.849 445.042 342.01 444.808 342.204L443.34 343.382L442.575 342.388L446.056 339.708H447.269V352.557ZM460.575 345.183C460.575 345.963 460.52 346.721 460.408 347.46C460.303 348.198 460.118 348.886 459.854 349.525C459.597 350.164 459.245 350.723 458.8 351.204C458.354 351.684 457.795 352.062 457.121 352.338C456.453 352.607 455.653 352.742 454.722 352.742C454.47 352.742 454.183 352.724 453.86 352.689C453.538 352.66 453.274 352.616 453.069 352.557V351.292C453.286 351.368 453.541 351.429 453.834 351.476C454.127 351.517 454.414 351.538 454.695 351.538C455.791 351.538 456.652 351.303 457.279 350.835C457.906 350.36 458.357 349.719 458.633 348.91C458.908 348.095 459.063 347.181 459.099 346.168H458.993C458.817 346.449 458.586 346.71 458.299 346.95C458.018 347.184 457.675 347.375 457.271 347.521C456.866 347.662 456.395 347.732 455.855 347.732C455.111 347.732 454.461 347.58 453.904 347.275C453.354 346.97 452.923 346.528 452.612 345.948C452.308 345.368 452.155 344.668 452.155 343.847C452.155 342.963 452.322 342.198 452.656 341.553C452.996 340.903 453.471 340.402 454.08 340.051C454.689 339.699 455.407 339.523 456.233 339.523C456.866 339.523 457.446 339.643 457.974 339.884C458.501 340.124 458.958 340.484 459.345 340.965C459.737 341.439 460.039 342.028 460.25 342.731C460.467 343.434 460.575 344.252 460.575 345.183ZM456.233 340.762C455.454 340.762 454.821 341.017 454.335 341.527C453.854 342.037 453.614 342.804 453.614 343.83C453.614 344.679 453.822 345.35 454.238 345.843C454.654 346.335 455.296 346.581 456.163 346.581C456.761 346.581 457.276 346.461 457.71 346.22C458.149 345.98 458.486 345.676 458.721 345.306C458.961 344.937 459.081 344.559 459.081 344.173C459.081 343.786 459.022 343.393 458.905 342.995C458.794 342.596 458.621 342.23 458.387 341.896C458.152 341.556 457.856 341.284 457.499 341.079C457.142 340.868 456.72 340.762 456.233 340.762Z" fill="#2E2885"/>
<rect x="490.75" y="299.557" width="79" height="91" rx="8" fill="white"/>
<path d="M529.257 352.557H520.837V351.336L524.273 347.846C524.912 347.202 525.448 346.628 525.882 346.124C526.321 345.62 526.655 345.125 526.884 344.638C527.112 344.146 527.227 343.607 527.227 343.021C527.227 342.295 527.01 341.741 526.576 341.36C526.148 340.973 525.583 340.78 524.88 340.78C524.265 340.78 523.72 340.885 523.245 341.096C522.771 341.307 522.284 341.606 521.786 341.993L521.004 341.009C521.344 340.721 521.713 340.467 522.111 340.244C522.516 340.021 522.946 339.845 523.403 339.717C523.866 339.588 524.358 339.523 524.88 339.523C525.671 339.523 526.354 339.661 526.928 339.936C527.502 340.212 527.944 340.604 528.255 341.114C528.571 341.624 528.729 342.23 528.729 342.933C528.729 343.613 528.595 344.246 528.325 344.832C528.056 345.412 527.678 345.989 527.191 346.563C526.705 347.132 526.137 347.735 525.486 348.374L522.691 351.16V351.221H529.257V352.557ZM539.628 346.115C539.628 347.158 539.549 348.09 539.391 348.91C539.232 349.73 538.983 350.425 538.644 350.993C538.304 351.561 537.864 351.995 537.325 352.294C536.786 352.587 536.139 352.733 535.383 352.733C534.428 352.733 533.637 352.472 533.01 351.951C532.389 351.429 531.923 350.677 531.612 349.692C531.308 348.702 531.155 347.51 531.155 346.115C531.155 344.744 531.293 343.566 531.568 342.582C531.85 341.592 532.301 340.833 532.922 340.305C533.543 339.772 534.363 339.506 535.383 339.506C536.35 339.506 537.146 339.769 537.773 340.297C538.4 340.818 538.866 341.574 539.171 342.564C539.476 343.549 539.628 344.732 539.628 346.115ZM532.623 346.115C532.623 347.31 532.714 348.306 532.896 349.103C533.077 349.9 533.37 350.498 533.774 350.896C534.185 351.289 534.721 351.485 535.383 351.485C536.045 351.485 536.578 351.289 536.982 350.896C537.393 350.504 537.688 349.909 537.87 349.112C538.058 348.315 538.151 347.316 538.151 346.115C538.151 344.937 538.061 343.953 537.879 343.162C537.697 342.365 537.404 341.767 537 341.369C536.596 340.965 536.057 340.762 535.383 340.762C534.709 340.762 534.17 340.965 533.766 341.369C533.361 341.767 533.068 342.365 532.887 343.162C532.711 343.953 532.623 344.937 532.623 346.115Z" fill="#2E2885"/>
<rect x="16.75" y="390.557" width="79" height="91" rx="8" fill="white"/>
<path d="M55.2568 443.557H46.8369V442.336L50.2734 438.846C50.9121 438.202 51.4482 437.628 51.8818 437.124C52.3213 436.62 52.6553 436.125 52.8838 435.638C53.1123 435.146 53.2266 434.607 53.2266 434.021C53.2266 433.295 53.0098 432.741 52.5762 432.36C52.1484 431.973 51.583 431.78 50.8799 431.78C50.2646 431.78 49.7197 431.885 49.2451 432.096C48.7705 432.307 48.2842 432.606 47.7861 432.993L47.0039 432.009C47.3438 431.721 47.7129 431.467 48.1113 431.244C48.5156 431.021 48.9463 430.845 49.4033 430.717C49.8662 430.588 50.3584 430.523 50.8799 430.523C51.6709 430.523 52.3535 430.661 52.9277 430.936C53.502 431.212 53.9443 431.604 54.2549 432.114C54.5713 432.624 54.7295 433.23 54.7295 433.933C54.7295 434.613 54.5947 435.246 54.3252 435.832C54.0557 436.412 53.6777 436.989 53.1914 437.563C52.7051 438.132 52.1367 438.735 51.4863 439.374L48.6914 442.16V442.221H55.2568V443.557ZM62.5693 443.557H61.1455V434.452C61.1455 434.106 61.1455 433.81 61.1455 433.564C61.1514 433.312 61.1572 433.084 61.1631 432.879C61.1748 432.668 61.1895 432.454 61.207 432.237C61.0254 432.425 60.8555 432.586 60.6973 432.72C60.5391 432.849 60.3428 433.01 60.1084 433.204L58.6406 434.382L57.876 433.388L61.3564 430.708H62.5693V443.557Z" fill="#2E2885"/>
<rect x="95.75" y="390.557" width="79" height="91" rx="8" fill="white"/>
<path d="M134.257 443.557H125.837V442.336L129.273 438.846C129.912 438.202 130.448 437.628 130.882 437.124C131.321 436.62 131.655 436.125 131.884 435.638C132.112 435.146 132.227 434.607 132.227 434.021C132.227 433.295 132.01 432.741 131.576 432.36C131.148 431.973 130.583 431.78 129.88 431.78C129.265 431.78 128.72 431.885 128.245 432.096C127.771 432.307 127.284 432.606 126.786 432.993L126.004 432.009C126.344 431.721 126.713 431.467 127.111 431.244C127.516 431.021 127.946 430.845 128.403 430.717C128.866 430.588 129.358 430.523 129.88 430.523C130.671 430.523 131.354 430.661 131.928 430.936C132.502 431.212 132.944 431.604 133.255 432.114C133.571 432.624 133.729 433.23 133.729 433.933C133.729 434.613 133.595 435.246 133.325 435.832C133.056 436.412 132.678 436.989 132.191 437.563C131.705 438.132 131.137 438.735 130.486 439.374L127.691 442.16V442.221H134.257V443.557ZM144.558 443.557H136.138V442.336L139.574 438.846C140.213 438.202 140.749 437.628 141.183 437.124C141.622 436.62 141.956 436.125 142.185 435.638C142.413 435.146 142.527 434.607 142.527 434.021C142.527 433.295 142.311 432.741 141.877 432.36C141.449 431.973 140.884 431.78 140.181 431.78C139.565 431.78 139.021 431.885 138.546 432.096C138.071 432.307 137.585 432.606 137.087 432.993L136.305 432.009C136.645 431.721 137.014 431.467 137.412 431.244C137.816 431.021 138.247 430.845 138.704 430.717C139.167 430.588 139.659 430.523 140.181 430.523C140.972 430.523 141.654 430.661 142.229 430.936C142.803 431.212 143.245 431.604 143.556 432.114C143.872 432.624 144.03 433.23 144.03 433.933C144.03 434.613 143.896 435.246 143.626 435.832C143.356 436.412 142.979 436.989 142.492 437.563C142.006 438.132 141.438 438.735 140.787 439.374L137.992 442.16V442.221H144.558V443.557Z" fill="#2E2885"/>
<rect x="174.75" y="390.557" width="79" height="91" rx="8" fill="white"/>
<path d="M213.257 443.557H204.837V442.336L208.273 438.846C208.912 438.202 209.448 437.628 209.882 437.124C210.321 436.62 210.655 436.125 210.884 435.638C211.112 435.146 211.227 434.607 211.227 434.021C211.227 433.295 211.01 432.741 210.576 432.36C210.148 431.973 209.583 431.78 208.88 431.78C208.265 431.78 207.72 431.885 207.245 432.096C206.771 432.307 206.284 432.606 205.786 432.993L205.004 432.009C205.344 431.721 205.713 431.467 206.111 431.244C206.516 431.021 206.946 430.845 207.403 430.717C207.866 430.588 208.358 430.523 208.88 430.523C209.671 430.523 210.354 430.661 210.928 430.936C211.502 431.212 211.944 431.604 212.255 432.114C212.571 432.624 212.729 433.23 212.729 433.933C212.729 434.613 212.595 435.246 212.325 435.832C212.056 436.412 211.678 436.989 211.191 437.563C210.705 438.132 210.137 438.735 209.486 439.374L206.691 442.16V442.221H213.257V443.557ZM223.083 433.705C223.083 434.279 222.972 434.777 222.749 435.199C222.526 435.621 222.216 435.967 221.817 436.236C221.419 436.5 220.95 436.684 220.411 436.79V436.86C221.431 436.989 222.195 437.317 222.705 437.844C223.221 438.372 223.479 439.063 223.479 439.919C223.479 440.663 223.303 441.322 222.951 441.896C222.605 442.47 222.072 442.922 221.352 443.25C220.637 443.572 219.72 443.733 218.601 443.733C217.921 443.733 217.291 443.677 216.711 443.566C216.137 443.461 215.586 443.282 215.059 443.03V441.659C215.592 441.923 216.172 442.131 216.799 442.283C217.426 442.429 218.032 442.503 218.618 442.503C219.79 442.503 220.637 442.271 221.158 441.808C221.68 441.34 221.94 440.701 221.94 439.892C221.94 439.336 221.794 438.887 221.501 438.548C221.214 438.202 220.798 437.95 220.253 437.792C219.714 437.628 219.063 437.546 218.302 437.546H217.019V436.298H218.311C219.008 436.298 219.6 436.195 220.086 435.99C220.572 435.785 220.941 435.498 221.193 435.129C221.451 434.754 221.58 434.311 221.58 433.802C221.58 433.151 221.363 432.65 220.93 432.299C220.496 431.941 219.907 431.762 219.163 431.762C218.706 431.762 218.29 431.809 217.915 431.903C217.54 431.997 217.188 432.126 216.86 432.29C216.532 432.454 216.204 432.644 215.876 432.861L215.138 431.859C215.606 431.496 216.178 431.182 216.852 430.919C217.525 430.655 218.29 430.523 219.146 430.523C220.458 430.523 221.442 430.822 222.099 431.42C222.755 432.017 223.083 432.779 223.083 433.705Z" fill="#2E2885"/>
<rect x="253.75" y="390.557" width="79" height="91" rx="8" fill="white"/>
<path d="M292.257 443.557H283.837V442.336L287.273 438.846C287.912 438.202 288.448 437.628 288.882 437.124C289.321 436.62 289.655 436.125 289.884 435.638C290.112 435.146 290.227 434.607 290.227 434.021C290.227 433.295 290.01 432.741 289.576 432.36C289.148 431.973 288.583 431.78 287.88 431.78C287.265 431.78 286.72 431.885 286.245 432.096C285.771 432.307 285.284 432.606 284.786 432.993L284.004 432.009C284.344 431.721 284.713 431.467 285.111 431.244C285.516 431.021 285.946 430.845 286.403 430.717C286.866 430.588 287.358 430.523 287.88 430.523C288.671 430.523 289.354 430.661 289.928 430.936C290.502 431.212 290.944 431.604 291.255 432.114C291.571 432.624 291.729 433.23 291.729 433.933C291.729 434.613 291.595 435.246 291.325 435.832C291.056 436.412 290.678 436.989 290.191 437.563C289.705 438.132 289.137 438.735 288.486 439.374L285.691 442.16V442.221H292.257V443.557ZM303.199 440.578H301.274V443.557H299.851V440.578H293.637V439.347L299.754 430.637H301.274V439.26H303.199V440.578ZM299.851 439.26V435.058C299.851 434.736 299.854 434.446 299.859 434.188C299.865 433.925 299.874 433.681 299.886 433.459C299.897 433.23 299.906 433.013 299.912 432.808C299.924 432.603 299.933 432.401 299.938 432.202H299.868C299.757 432.436 299.628 432.685 299.481 432.949C299.341 433.207 299.197 433.438 299.051 433.643L295.087 439.26H299.851Z" fill="#2E2885"/>
<rect x="332.75" y="390.557" width="79" height="91" rx="8" fill="white"/>
<path d="M371.257 443.557H362.837V442.336L366.273 438.846C366.912 438.202 367.448 437.628 367.882 437.124C368.321 436.62 368.655 436.125 368.884 435.638C369.112 435.146 369.227 434.607 369.227 434.021C369.227 433.295 369.01 432.741 368.576 432.36C368.148 431.973 367.583 431.78 366.88 431.78C366.265 431.78 365.72 431.885 365.245 432.096C364.771 432.307 364.284 432.606 363.786 432.993L363.004 432.009C363.344 431.721 363.713 431.467 364.111 431.244C364.516 431.021 364.946 430.845 365.403 430.717C365.866 430.588 366.358 430.523 366.88 430.523C367.671 430.523 368.354 430.661 368.928 430.936C369.502 431.212 369.944 431.604 370.255 432.114C370.571 432.624 370.729 433.23 370.729 433.933C370.729 434.613 370.595 435.246 370.325 435.832C370.056 436.412 369.678 436.989 369.191 437.563C368.705 438.132 368.137 438.735 367.486 439.374L364.691 442.16V442.221H371.257V443.557ZM377.198 435.7C378.071 435.7 378.83 435.849 379.475 436.148C380.119 436.441 380.617 436.869 380.969 437.431C381.326 437.994 381.505 438.677 381.505 439.479C381.505 440.358 381.314 441.117 380.934 441.756C380.553 442.388 380.005 442.878 379.29 443.223C378.575 443.563 377.72 443.733 376.724 443.733C376.056 443.733 375.435 443.675 374.86 443.557C374.286 443.44 373.803 443.264 373.41 443.03V441.641C373.838 441.899 374.356 442.104 374.966 442.257C375.575 442.409 376.167 442.485 376.741 442.485C377.392 442.485 377.96 442.383 378.446 442.177C378.938 441.967 379.319 441.65 379.589 441.228C379.864 440.801 380.002 440.264 380.002 439.62C380.002 438.764 379.738 438.105 379.211 437.642C378.689 437.174 377.863 436.939 376.732 436.939C376.369 436.939 375.971 436.969 375.537 437.027C375.104 437.086 374.746 437.15 374.465 437.22L373.727 436.737L374.219 430.708H380.608V432.044H375.467L375.142 435.92C375.364 435.873 375.651 435.826 376.003 435.779C376.354 435.726 376.753 435.7 377.198 435.7Z" fill="#2E2885"/>
<rect x="411.75" y="390.557" width="79" height="91" rx="8" fill="white"/>
<path d="M450.257 443.557H441.837V442.336L445.273 438.846C445.912 438.202 446.448 437.628 446.882 437.124C447.321 436.62 447.655 436.125 447.884 435.638C448.112 435.146 448.227 434.607 448.227 434.021C448.227 433.295 448.01 432.741 447.576 432.36C447.148 431.973 446.583 431.78 445.88 431.78C445.265 431.78 444.72 431.885 444.245 432.096C443.771 432.307 443.284 432.606 442.786 432.993L442.004 432.009C442.344 431.721 442.713 431.467 443.111 431.244C443.516 431.021 443.946 430.845 444.403 430.717C444.866 430.588 445.358 430.523 445.88 430.523C446.671 430.523 447.354 430.661 447.928 430.936C448.502 431.212 448.944 431.604 449.255 432.114C449.571 432.624 449.729 433.23 449.729 433.933C449.729 434.613 449.595 435.246 449.325 435.832C449.056 436.412 448.678 436.989 448.191 437.563C447.705 438.132 447.137 438.735 446.486 439.374L443.691 442.16V442.221H450.257V443.557ZM452.27 438.064C452.27 437.291 452.322 436.535 452.428 435.797C452.539 435.058 452.724 434.373 452.981 433.74C453.239 433.101 453.591 432.542 454.036 432.061C454.481 431.581 455.035 431.206 455.697 430.936C456.365 430.661 457.165 430.523 458.097 430.523C458.36 430.523 458.645 430.538 458.949 430.567C459.254 430.591 459.506 430.632 459.705 430.69V431.947C459.488 431.871 459.239 431.815 458.958 431.78C458.683 431.745 458.404 431.727 458.123 431.727C457.033 431.727 456.175 431.965 455.548 432.439C454.927 432.914 454.479 433.558 454.203 434.373C453.928 435.181 453.77 436.093 453.729 437.106H453.825C454.007 436.813 454.238 436.55 454.52 436.315C454.801 436.075 455.141 435.885 455.539 435.744C455.943 435.603 456.412 435.533 456.945 435.533C457.695 435.533 458.349 435.685 458.905 435.99C459.468 436.295 459.901 436.737 460.206 437.317C460.517 437.897 460.672 438.6 460.672 439.427C460.672 440.311 460.508 441.076 460.18 441.72C459.852 442.365 459.383 442.863 458.773 443.215C458.17 443.56 457.449 443.733 456.611 443.733C455.984 443.733 455.407 443.613 454.88 443.373C454.353 443.133 453.893 442.775 453.5 442.301C453.113 441.826 452.812 441.237 452.595 440.534C452.378 439.825 452.27 439.002 452.27 438.064ZM456.594 442.503C457.391 442.503 458.029 442.248 458.51 441.738C458.99 441.228 459.23 440.458 459.23 439.427C459.23 438.583 459.017 437.915 458.589 437.423C458.161 436.93 457.517 436.684 456.655 436.684C456.069 436.684 455.56 436.807 455.126 437.053C454.692 437.294 454.355 437.598 454.115 437.968C453.875 438.337 453.755 438.712 453.755 439.093C453.755 439.479 453.811 439.872 453.922 440.27C454.039 440.669 454.215 441.038 454.449 441.378C454.684 441.718 454.979 441.99 455.337 442.195C455.694 442.4 456.113 442.503 456.594 442.503Z" fill="#2E2885"/>
<rect x="490.75" y="390.557" width="79" height="91" rx="8" fill="white"/>
<path d="M529.257 443.557H520.837V442.336L524.273 438.846C524.912 438.202 525.448 437.628 525.882 437.124C526.321 436.62 526.655 436.125 526.884 435.638C527.112 435.146 527.227 434.607 527.227 434.021C527.227 433.295 527.01 432.741 526.576 432.36C526.148 431.973 525.583 431.78 524.88 431.78C524.265 431.78 523.72 431.885 523.245 432.096C522.771 432.307 522.284 432.606 521.786 432.993L521.004 432.009C521.344 431.721 521.713 431.467 522.111 431.244C522.516 431.021 522.946 430.845 523.403 430.717C523.866 430.588 524.358 430.523 524.88 430.523C525.671 430.523 526.354 430.661 526.928 430.936C527.502 431.212 527.944 431.604 528.255 432.114C528.571 432.624 528.729 433.23 528.729 433.933C528.729 434.613 528.595 435.246 528.325 435.832C528.056 436.412 527.678 436.989 527.191 437.563C526.705 438.132 526.137 438.735 525.486 439.374L522.691 442.16V442.221H529.257V443.557ZM532.799 443.557L538.072 432.044H531.067V430.708H539.637V431.833L534.398 443.557H532.799Z" fill="#2E2885"/>
<rect x="16.75" y="481.557" width="79" height="91" rx="8" fill="white"/>
<path d="M55.2568 534.557H46.8369V533.336L50.2734 529.846C50.9121 529.202 51.4482 528.628 51.8818 528.124C52.3213 527.62 52.6553 527.125 52.8838 526.638C53.1123 526.146 53.2266 525.607 53.2266 525.021C53.2266 524.295 53.0098 523.741 52.5762 523.36C52.1484 522.973 51.583 522.78 50.8799 522.78C50.2646 522.78 49.7197 522.885 49.2451 523.096C48.7705 523.307 48.2842 523.606 47.7861 523.993L47.0039 523.009C47.3438 522.721 47.7129 522.467 48.1113 522.244C48.5156 522.021 48.9463 521.845 49.4033 521.717C49.8662 521.588 50.3584 521.523 50.8799 521.523C51.6709 521.523 52.3535 521.661 52.9277 521.936C53.502 522.212 53.9443 522.604 54.2549 523.114C54.5713 523.624 54.7295 524.23 54.7295 524.933C54.7295 525.613 54.5947 526.246 54.3252 526.832C54.0557 527.412 53.6777 527.989 53.1914 528.563C52.7051 529.132 52.1367 529.735 51.4863 530.374L48.6914 533.16V533.221H55.2568V534.557ZM61.3828 521.523C62.127 521.523 62.7861 521.64 63.3604 521.875C63.9346 522.109 64.3828 522.455 64.7051 522.912C65.0332 523.363 65.1973 523.92 65.1973 524.582C65.1973 525.103 65.083 525.56 64.8545 525.953C64.6318 526.34 64.3301 526.679 63.9492 526.972C63.5684 527.26 63.1465 527.517 62.6836 527.746C63.2344 527.998 63.7295 528.282 64.1689 528.598C64.6143 528.915 64.9658 529.287 65.2236 529.715C65.4814 530.142 65.6104 530.649 65.6104 531.235C65.6104 531.956 65.4346 532.58 65.083 533.107C64.7373 533.629 64.251 534.03 63.624 534.311C62.9971 534.593 62.2617 534.733 61.418 534.733C60.5098 534.733 59.7363 534.598 59.0977 534.329C58.4648 534.053 57.9814 533.661 57.6475 533.151C57.3193 532.635 57.1553 532.017 57.1553 531.297C57.1553 530.705 57.2812 530.192 57.5332 529.759C57.7852 529.319 58.1191 528.941 58.5352 528.625C58.9512 528.308 59.4053 528.042 59.8975 527.825C59.4697 527.591 59.0771 527.324 58.7197 527.025C58.3682 526.726 58.0869 526.378 57.876 525.979C57.6709 525.575 57.5684 525.106 57.5684 524.573C57.5684 523.923 57.7324 523.372 58.0605 522.921C58.3945 522.464 58.8486 522.118 59.4229 521.884C60.0029 521.643 60.6562 521.523 61.3828 521.523ZM58.5879 531.305C58.5879 531.962 58.8193 532.504 59.2822 532.931C59.7451 533.353 60.4453 533.564 61.3828 533.564C62.2734 533.564 62.9619 533.353 63.4482 532.931C63.9346 532.504 64.1777 531.944 64.1777 531.253C64.1777 530.825 64.0664 530.45 63.8438 530.128C63.6211 529.8 63.3047 529.507 62.8945 529.249C62.4844 528.991 62.001 528.757 61.4443 528.546L61.1279 528.431C60.5889 528.654 60.1289 528.903 59.748 529.178C59.373 529.448 59.0859 529.756 58.8867 530.101C58.6875 530.447 58.5879 530.848 58.5879 531.305ZM61.3652 522.719C60.6738 522.719 60.1084 522.885 59.6689 523.219C59.2295 523.548 59.0098 524.022 59.0098 524.643C59.0098 525.089 59.1152 525.467 59.3262 525.777C59.543 526.082 59.8359 526.345 60.2051 526.568C60.5742 526.785 60.9873 526.987 61.4443 527.175C61.8896 526.987 62.2852 526.782 62.6309 526.559C62.9766 526.331 63.249 526.061 63.4482 525.751C63.6475 525.44 63.7471 525.068 63.7471 524.635C63.7471 524.013 63.5273 523.539 63.0879 523.211C62.6543 522.883 62.0801 522.719 61.3652 522.719Z" fill="#2E2885"/>
<rect x="95.75" y="481.557" width="79" height="91" rx="8" fill="white"/>
<path d="M134.257 534.557H125.837V533.336L129.273 529.846C129.912 529.202 130.448 528.628 130.882 528.124C131.321 527.62 131.655 527.125 131.884 526.638C132.112 526.146 132.227 525.607 132.227 525.021C132.227 524.295 132.01 523.741 131.576 523.36C131.148 522.973 130.583 522.78 129.88 522.78C129.265 522.78 128.72 522.885 128.245 523.096C127.771 523.307 127.284 523.606 126.786 523.993L126.004 523.009C126.344 522.721 126.713 522.467 127.111 522.244C127.516 522.021 127.946 521.845 128.403 521.717C128.866 521.588 129.358 521.523 129.88 521.523C130.671 521.523 131.354 521.661 131.928 521.936C132.502 522.212 132.944 522.604 133.255 523.114C133.571 523.624 133.729 524.23 133.729 524.933C133.729 525.613 133.595 526.246 133.325 526.832C133.056 527.412 132.678 527.989 132.191 528.563C131.705 529.132 131.137 529.735 130.486 530.374L127.691 533.16V533.221H134.257V534.557ZM144.575 527.183C144.575 527.963 144.52 528.721 144.408 529.46C144.303 530.198 144.118 530.886 143.854 531.525C143.597 532.164 143.245 532.723 142.8 533.204C142.354 533.684 141.795 534.062 141.121 534.338C140.453 534.607 139.653 534.742 138.722 534.742C138.47 534.742 138.183 534.724 137.86 534.689C137.538 534.66 137.274 534.616 137.069 534.557V533.292C137.286 533.368 137.541 533.429 137.834 533.476C138.127 533.517 138.414 533.538 138.695 533.538C139.791 533.538 140.652 533.303 141.279 532.835C141.906 532.36 142.357 531.719 142.633 530.91C142.908 530.095 143.063 529.181 143.099 528.168H142.993C142.817 528.449 142.586 528.71 142.299 528.95C142.018 529.184 141.675 529.375 141.271 529.521C140.866 529.662 140.395 529.732 139.855 529.732C139.111 529.732 138.461 529.58 137.904 529.275C137.354 528.97 136.923 528.528 136.612 527.948C136.308 527.368 136.155 526.668 136.155 525.847C136.155 524.963 136.322 524.198 136.656 523.553C136.996 522.903 137.471 522.402 138.08 522.051C138.689 521.699 139.407 521.523 140.233 521.523C140.866 521.523 141.446 521.643 141.974 521.884C142.501 522.124 142.958 522.484 143.345 522.965C143.737 523.439 144.039 524.028 144.25 524.731C144.467 525.434 144.575 526.252 144.575 527.183ZM140.233 522.762C139.454 522.762 138.821 523.017 138.335 523.527C137.854 524.037 137.614 524.804 137.614 525.83C137.614 526.679 137.822 527.35 138.238 527.843C138.654 528.335 139.296 528.581 140.163 528.581C140.761 528.581 141.276 528.461 141.71 528.22C142.149 527.98 142.486 527.676 142.721 527.306C142.961 526.937 143.081 526.559 143.081 526.173C143.081 525.786 143.022 525.393 142.905 524.995C142.794 524.596 142.621 524.23 142.387 523.896C142.152 523.556 141.856 523.284 141.499 523.079C141.142 522.868 140.72 522.762 140.233 522.762Z" fill="#2E2885"/>
<rect x="174.75" y="481.557" width="79" height="91" rx="8" fill="white"/>
<path d="M212.782 524.705C212.782 525.279 212.671 525.777 212.448 526.199C212.226 526.621 211.915 526.967 211.517 527.236C211.118 527.5 210.649 527.684 210.11 527.79V527.86C211.13 527.989 211.895 528.317 212.404 528.844C212.92 529.372 213.178 530.063 213.178 530.919C213.178 531.663 213.002 532.322 212.65 532.896C212.305 533.47 211.771 533.922 211.051 534.25C210.336 534.572 209.419 534.733 208.3 534.733C207.62 534.733 206.99 534.677 206.41 534.566C205.836 534.461 205.285 534.282 204.758 534.03V532.659C205.291 532.923 205.871 533.131 206.498 533.283C207.125 533.429 207.731 533.503 208.317 533.503C209.489 533.503 210.336 533.271 210.857 532.808C211.379 532.34 211.64 531.701 211.64 530.892C211.64 530.336 211.493 529.887 211.2 529.548C210.913 529.202 210.497 528.95 209.952 528.792C209.413 528.628 208.763 528.546 208.001 528.546H206.718V527.298H208.01C208.707 527.298 209.299 527.195 209.785 526.99C210.271 526.785 210.641 526.498 210.893 526.129C211.15 525.754 211.279 525.311 211.279 524.802C211.279 524.151 211.062 523.65 210.629 523.299C210.195 522.941 209.606 522.762 208.862 522.762C208.405 522.762 207.989 522.809 207.614 522.903C207.239 522.997 206.888 523.126 206.56 523.29C206.231 523.454 205.903 523.644 205.575 523.861L204.837 522.859C205.306 522.496 205.877 522.182 206.551 521.919C207.225 521.655 207.989 521.523 208.845 521.523C210.157 521.523 211.142 521.822 211.798 522.42C212.454 523.017 212.782 523.779 212.782 524.705ZM223.628 528.115C223.628 529.158 223.549 530.09 223.391 530.91C223.232 531.73 222.983 532.425 222.644 532.993C222.304 533.561 221.864 533.995 221.325 534.294C220.786 534.587 220.139 534.733 219.383 534.733C218.428 534.733 217.637 534.472 217.01 533.951C216.389 533.429 215.923 532.677 215.612 531.692C215.308 530.702 215.155 529.51 215.155 528.115C215.155 526.744 215.293 525.566 215.568 524.582C215.85 523.592 216.301 522.833 216.922 522.305C217.543 521.772 218.363 521.506 219.383 521.506C220.35 521.506 221.146 521.769 221.773 522.297C222.4 522.818 222.866 523.574 223.171 524.564C223.476 525.549 223.628 526.732 223.628 528.115ZM216.623 528.115C216.623 529.31 216.714 530.306 216.896 531.103C217.077 531.9 217.37 532.498 217.774 532.896C218.185 533.289 218.721 533.485 219.383 533.485C220.045 533.485 220.578 533.289 220.982 532.896C221.393 532.504 221.688 531.909 221.87 531.112C222.058 530.315 222.151 529.316 222.151 528.115C222.151 526.937 222.061 525.953 221.879 525.162C221.697 524.365 221.404 523.767 221 523.369C220.596 522.965 220.057 522.762 219.383 522.762C218.709 522.762 218.17 522.965 217.766 523.369C217.361 523.767 217.068 524.365 216.887 525.162C216.711 525.953 216.623 526.937 216.623 528.115Z" fill="#2E2885"/>
<rect x="253.75" y="481.557" width="79" height="91" rx="8" fill="white"/>
<path d="M291.782 524.705C291.782 525.279 291.671 525.777 291.448 526.199C291.226 526.621 290.915 526.967 290.517 527.236C290.118 527.5 289.649 527.684 289.11 527.79V527.86C290.13 527.989 290.895 528.317 291.404 528.844C291.92 529.372 292.178 530.063 292.178 530.919C292.178 531.663 292.002 532.322 291.65 532.896C291.305 533.47 290.771 533.922 290.051 534.25C289.336 534.572 288.419 534.733 287.3 534.733C286.62 534.733 285.99 534.677 285.41 534.566C284.836 534.461 284.285 534.282 283.758 534.03V532.659C284.291 532.923 284.871 533.131 285.498 533.283C286.125 533.429 286.731 533.503 287.317 533.503C288.489 533.503 289.336 533.271 289.857 532.808C290.379 532.34 290.64 531.701 290.64 530.892C290.64 530.336 290.493 529.887 290.2 529.548C289.913 529.202 289.497 528.95 288.952 528.792C288.413 528.628 287.763 528.546 287.001 528.546H285.718V527.298H287.01C287.707 527.298 288.299 527.195 288.785 526.99C289.271 526.785 289.641 526.498 289.893 526.129C290.15 525.754 290.279 525.311 290.279 524.802C290.279 524.151 290.062 523.65 289.629 523.299C289.195 522.941 288.606 522.762 287.862 522.762C287.405 522.762 286.989 522.809 286.614 522.903C286.239 522.997 285.888 523.126 285.56 523.29C285.231 523.454 284.903 523.644 284.575 523.861L283.837 522.859C284.306 522.496 284.877 522.182 285.551 521.919C286.225 521.655 286.989 521.523 287.845 521.523C289.157 521.523 290.142 521.822 290.798 522.42C291.454 523.017 291.782 523.779 291.782 524.705ZM299.569 534.557H298.146V525.452C298.146 525.106 298.146 524.81 298.146 524.564C298.151 524.312 298.157 524.084 298.163 523.879C298.175 523.668 298.189 523.454 298.207 523.237C298.025 523.425 297.855 523.586 297.697 523.72C297.539 523.849 297.343 524.01 297.108 524.204L295.641 525.382L294.876 524.388L298.356 521.708H299.569V534.557Z" fill="#2E2885"/>
<rect x="332.75" y="481.557" width="79" height="91" rx="8" fill="white"/>
<path d="M373.419 534.557H371.995V525.452C371.995 525.106 371.995 524.81 371.995 524.564C372.001 524.312 372.007 524.084 372.013 523.879C372.024 523.668 372.039 523.454 372.057 523.237C371.875 523.425 371.705 523.586 371.547 523.72C371.389 523.849 371.192 524.01 370.958 524.204L369.49 525.382L368.726 524.388L372.206 521.708H373.419V534.557Z" fill="#A6B1E1"/>
<rect x="411.75" y="481.557" width="79" height="91" rx="8" fill="white"/>
<path d="M455.407 534.557H446.987V533.336L450.424 529.846C451.062 529.202 451.599 528.628 452.032 528.124C452.472 527.62 452.806 527.125 453.034 526.638C453.263 526.146 453.377 525.607 453.377 525.021C453.377 524.295 453.16 523.741 452.727 523.36C452.299 522.973 451.733 522.78 451.03 522.78C450.415 522.78 449.87 522.885 449.396 523.096C448.921 523.307 448.435 523.606 447.937 523.993L447.154 523.009C447.494 522.721 447.863 522.467 448.262 522.244C448.666 522.021 449.097 521.845 449.554 521.717C450.017 521.588 450.509 521.523 451.03 521.523C451.821 521.523 452.504 521.661 453.078 521.936C453.652 522.212 454.095 522.604 454.405 523.114C454.722 523.624 454.88 524.23 454.88 524.933C454.88 525.613 454.745 526.246 454.476 526.832C454.206 527.412 453.828 527.989 453.342 528.563C452.855 529.132 452.287 529.735 451.637 530.374L448.842 533.16V533.221H455.407V534.557Z" fill="#A6B1E1"/>
<rect x="490.75" y="481.557" width="79" height="91" rx="8" fill="white"/>
<path d="M533.933 524.705C533.933 525.279 533.821 525.777 533.599 526.199C533.376 526.621 533.065 526.967 532.667 527.236C532.269 527.5 531.8 527.684 531.261 527.79V527.86C532.28 527.989 533.045 528.317 533.555 528.844C534.07 529.372 534.328 530.063 534.328 530.919C534.328 531.663 534.152 532.322 533.801 532.896C533.455 533.47 532.922 533.922 532.201 534.25C531.486 534.572 530.569 534.733 529.45 534.733C528.771 534.733 528.141 534.677 527.561 534.566C526.986 534.461 526.436 534.282 525.908 534.03V532.659C526.441 532.923 527.021 533.131 527.648 533.283C528.275 533.429 528.882 533.503 529.468 533.503C530.64 533.503 531.486 533.271 532.008 532.808C532.529 532.34 532.79 531.701 532.79 530.892C532.79 530.336 532.644 529.887 532.351 529.548C532.063 529.202 531.647 528.95 531.103 528.792C530.563 528.628 529.913 528.546 529.151 528.546H527.868V527.298H529.16C529.857 527.298 530.449 527.195 530.936 526.99C531.422 526.785 531.791 526.498 532.043 526.129C532.301 525.754 532.43 525.311 532.43 524.802C532.43 524.151 532.213 523.65 531.779 523.299C531.346 522.941 530.757 522.762 530.013 522.762C529.556 522.762 529.14 522.809 528.765 522.903C528.39 522.997 528.038 523.126 527.71 523.29C527.382 523.454 527.054 523.644 526.726 523.861L525.987 522.859C526.456 522.496 527.027 522.182 527.701 521.919C528.375 521.655 529.14 521.523 529.995 521.523C531.308 521.523 532.292 521.822 532.948 522.42C533.604 523.017 533.933 523.779 533.933 524.705Z" fill="#A6B1E1"/>
<rect x="3.25" y="3.05737" width="580" height="583" rx="29.5" stroke="#5012B5" stroke-width="5"/>
</svg>
