<svg width="212" height="72" viewBox="0 0 212 72" fill="none" xmlns="http://www.w3.org/2000/svg">
<path d="M20.1328 23.8047C16.3672 23.8047 13.3906 25.0625 11.2031 27.5781C9.03125 30.0781 7.94531 33.5078 7.94531 37.8672C7.94531 42.3516 8.99219 45.8203 11.0859 48.2734C13.1953 50.7109 16.1953 51.9297 20.0859 51.9297C22.4766 51.9297 25.2031 51.5 28.2656 50.6406V54.1328C25.8906 55.0234 22.9609 55.4688 19.4766 55.4688C14.4297 55.4688 10.5312 53.9375 7.78125 50.875C5.04688 47.8125 3.67969 43.4609 3.67969 37.8203C3.67969 34.2891 4.33594 31.1953 5.64844 28.5391C6.97656 25.8828 8.88281 23.8359 11.3672 22.3984C13.8672 20.9609 16.8047 20.2422 20.1797 20.2422C23.7734 20.2422 26.9141 20.8984 29.6016 22.2109L27.9141 25.6328C25.3203 24.4141 22.7266 23.8047 20.1328 23.8047ZM46.875 28.8438C48.0156 28.8438 49.0391 28.9375 49.9453 29.125L49.4062 32.7344C48.3438 32.5 47.4062 32.3828 46.5938 32.3828C44.5156 32.3828 42.7344 33.2266 41.25 34.9141C39.7812 36.6016 39.0469 38.7031 39.0469 41.2188V55H35.1562V29.3125H38.3672L38.8125 34.0703H39C39.9531 32.3984 41.1016 31.1094 42.4453 30.2031C43.7891 29.2969 45.2656 28.8438 46.875 28.8438ZM70.5469 55L69.7734 51.3438H69.5859C68.3047 52.9531 67.0234 54.0469 65.7422 54.625C64.4766 55.1875 62.8906 55.4688 60.9844 55.4688C58.4375 55.4688 56.4375 54.8125 54.9844 53.5C53.5469 52.1875 52.8281 50.3203 52.8281 47.8984C52.8281 42.7109 56.9766 39.9922 65.2734 39.7422L69.6328 39.6016V38.0078C69.6328 35.9922 69.1953 34.5078 68.3203 33.5547C67.4609 32.5859 66.0781 32.1016 64.1719 32.1016C62.0312 32.1016 59.6094 32.7578 56.9062 34.0703L55.7109 31.0938C56.9766 30.4062 58.3594 29.8672 59.8594 29.4766C61.375 29.0859 62.8906 28.8906 64.4062 28.8906C67.4688 28.8906 69.7344 29.5703 71.2031 30.9297C72.6875 32.2891 73.4297 34.4688 73.4297 37.4688V55H70.5469ZM61.7578 52.2578C64.1797 52.2578 66.0781 51.5938 67.4531 50.2656C68.8438 48.9375 69.5391 47.0781 69.5391 44.6875V42.3672L65.6484 42.5312C62.5547 42.6406 60.3203 43.125 58.9453 43.9844C57.5859 44.8281 56.9062 46.1484 56.9062 47.9453C56.9062 49.3516 57.3281 50.4219 58.1719 51.1562C59.0312 51.8906 60.2266 52.2578 61.7578 52.2578ZM85.3594 55H81.4688V29.3125H85.3594V55ZM81.1406 22.3516C81.1406 21.4609 81.3594 20.8125 81.7969 20.4062C82.2344 19.9844 82.7812 19.7734 83.4375 19.7734C84.0625 19.7734 84.6016 19.9844 85.0547 20.4062C85.5078 20.8281 85.7344 21.4766 85.7344 22.3516C85.7344 23.2266 85.5078 23.8828 85.0547 24.3203C84.6016 24.7422 84.0625 24.9531 83.4375 24.9531C82.7812 24.9531 82.2344 24.7422 81.7969 24.3203C81.3594 23.8828 81.1406 23.2266 81.1406 22.3516ZM114.633 29.3125V31.7734L109.875 32.3359C110.312 32.8828 110.703 33.6016 111.047 34.4922C111.391 35.3672 111.562 36.3594 111.562 37.4688C111.562 39.9844 110.703 41.9922 108.984 43.4922C107.266 44.9922 104.906 45.7422 101.906 45.7422C101.141 45.7422 100.422 45.6797 99.75 45.5547C98.0938 46.4297 97.2656 47.5312 97.2656 48.8594C97.2656 49.5625 97.5547 50.0859 98.1328 50.4297C98.7109 50.7578 99.7031 50.9219 101.109 50.9219H105.656C108.438 50.9219 110.57 51.5078 112.055 52.6797C113.555 53.8516 114.305 55.5547 114.305 57.7891C114.305 60.6328 113.164 62.7969 110.883 64.2812C108.602 65.7812 105.273 66.5312 100.898 66.5312C97.5391 66.5312 94.9453 65.9062 93.1172 64.6562C91.3047 63.4062 90.3984 61.6406 90.3984 59.3594C90.3984 57.7969 90.8984 56.4453 91.8984 55.3047C92.8984 54.1641 94.3047 53.3906 96.1172 52.9844C95.4609 52.6875 94.9062 52.2266 94.4531 51.6016C94.0156 50.9766 93.7969 50.25 93.7969 49.4219C93.7969 48.4844 94.0469 47.6641 94.5469 46.9609C95.0469 46.2578 95.8359 45.5781 96.9141 44.9219C95.5859 44.375 94.5 43.4453 93.6562 42.1328C92.8281 40.8203 92.4141 39.3203 92.4141 37.6328C92.4141 34.8203 93.2578 32.6562 94.9453 31.1406C96.6328 29.6094 99.0234 28.8438 102.117 28.8438C103.461 28.8438 104.672 29 105.75 29.3125H114.633ZM94.1484 59.3125C94.1484 60.7031 94.7344 61.7578 95.9062 62.4766C97.0781 63.1953 98.7578 63.5547 100.945 63.5547C104.211 63.5547 106.625 63.0625 108.188 62.0781C109.766 61.1094 110.555 59.7891 110.555 58.1172C110.555 56.7266 110.125 55.7578 109.266 55.2109C108.406 54.6797 106.789 54.4141 104.414 54.4141H99.75C97.9844 54.4141 96.6094 54.8359 95.625 55.6797C94.6406 56.5234 94.1484 57.7344 94.1484 59.3125ZM96.2578 37.5391C96.2578 39.3359 96.7656 40.6953 97.7812 41.6172C98.7969 42.5391 100.211 43 102.023 43C105.82 43 107.719 41.1562 107.719 37.4688C107.719 33.6094 105.797 31.6797 101.953 31.6797C100.125 31.6797 98.7188 32.1719 97.7344 33.1562C96.75 34.1406 96.2578 35.6016 96.2578 37.5391ZM136.477 47.9922C136.477 50.3828 135.586 52.2266 133.805 53.5234C132.023 54.8203 129.523 55.4688 126.305 55.4688C122.898 55.4688 120.242 54.9297 118.336 53.8516V50.2422C119.57 50.8672 120.891 51.3594 122.297 51.7188C123.719 52.0781 125.086 52.2578 126.398 52.2578C128.43 52.2578 129.992 51.9375 131.086 51.2969C132.18 50.6406 132.727 49.6484 132.727 48.3203C132.727 47.3203 132.289 46.4688 131.414 45.7656C130.555 45.0469 128.867 44.2031 126.352 43.2344C123.961 42.3438 122.258 41.5703 121.242 40.9141C120.242 40.2422 119.492 39.4844 118.992 38.6406C118.508 37.7969 118.266 36.7891 118.266 35.6172C118.266 33.5234 119.117 31.875 120.82 30.6719C122.523 29.4531 124.859 28.8438 127.828 28.8438C130.594 28.8438 133.297 29.4062 135.938 30.5312L134.555 33.6953C131.977 32.6328 129.641 32.1016 127.547 32.1016C125.703 32.1016 124.312 32.3906 123.375 32.9688C122.438 33.5469 121.969 34.3438 121.969 35.3594C121.969 36.0469 122.141 36.6328 122.484 37.1172C122.844 37.6016 123.414 38.0625 124.195 38.5C124.977 38.9375 126.477 39.5703 128.695 40.3984C131.742 41.5078 133.797 42.625 134.859 43.75C135.938 44.875 136.477 46.2891 136.477 47.9922ZM146.719 55H142.828V18.5312H146.719V55ZM158.859 55H154.969V29.3125H158.859V55ZM154.641 22.3516C154.641 21.4609 154.859 20.8125 155.297 20.4062C155.734 19.9844 156.281 19.7734 156.938 19.7734C157.562 19.7734 158.102 19.9844 158.555 20.4062C159.008 20.8281 159.234 21.4766 159.234 22.3516C159.234 23.2266 159.008 23.8828 158.555 24.3203C158.102 24.7422 157.562 24.9531 156.938 24.9531C156.281 24.9531 155.734 24.7422 155.297 24.3203C154.859 23.8828 154.641 23.2266 154.641 22.3516ZM183.68 47.9922C183.68 50.3828 182.789 52.2266 181.008 53.5234C179.227 54.8203 176.727 55.4688 173.508 55.4688C170.102 55.4688 167.445 54.9297 165.539 53.8516V50.2422C166.773 50.8672 168.094 51.3594 169.5 51.7188C170.922 52.0781 172.289 52.2578 173.602 52.2578C175.633 52.2578 177.195 51.9375 178.289 51.2969C179.383 50.6406 179.93 49.6484 179.93 48.3203C179.93 47.3203 179.492 46.4688 178.617 45.7656C177.758 45.0469 176.07 44.2031 173.555 43.2344C171.164 42.3438 169.461 41.5703 168.445 40.9141C167.445 40.2422 166.695 39.4844 166.195 38.6406C165.711 37.7969 165.469 36.7891 165.469 35.6172C165.469 33.5234 166.32 31.875 168.023 30.6719C169.727 29.4531 172.062 28.8438 175.031 28.8438C177.797 28.8438 180.5 29.4062 183.141 30.5312L181.758 33.6953C179.18 32.6328 176.844 32.1016 174.75 32.1016C172.906 32.1016 171.516 32.3906 170.578 32.9688C169.641 33.5469 169.172 34.3438 169.172 35.3594C169.172 36.0469 169.344 36.6328 169.688 37.1172C170.047 37.6016 170.617 38.0625 171.398 38.5C172.18 38.9375 173.68 39.5703 175.898 40.3984C178.945 41.5078 181 42.625 182.062 43.75C183.141 44.875 183.68 46.2891 183.68 47.9922ZM198.328 52.2578C199.016 52.2578 199.68 52.2109 200.32 52.1172C200.961 52.0078 201.469 51.8984 201.844 51.7891V54.7656C201.422 54.9688 200.797 55.1328 199.969 55.2578C199.156 55.3984 198.422 55.4688 197.766 55.4688C192.797 55.4688 190.312 52.8516 190.312 47.6172V32.3359H186.633V30.4609L190.312 28.8438L191.953 23.3594H194.203V29.3125H201.656V32.3359H194.203V47.4531C194.203 49 194.57 50.1875 195.305 51.0156C196.039 51.8438 197.047 52.2578 198.328 52.2578Z" fill="#EBEBEB"/>
</svg>
